{
.appVersion = "1056";
DisplayStrings = (
"nanbncndnenfngnhn/idotless n/jdotless nknlnmnnonpnqnrnsntnunvnwnxnynzn",
"obodopoqogo\012nbndnpnqngn\012obodopoqogo\012nbndnpnqngn\012obodopoqogo\012nbndnpnqngn\012/_bowl.d"
);
classes = (
{
automatic = 1;

glyphs = (
{
glyphname = A;
lastChange = "2017-09-09 08:25:19 +0000";
layers = (
{
anchors = (
{
name = bottom;
position = "{338, 0}";
},
{
name = ogonek;
position = "{624, 10}";
},
{
name = top;
position = "{338, 694}";
}
);
layerId = "F333AEC5-BB61-4D5E-9EDD-6124322D28F2";
paths = (
{
closed = 1;
nodes = (
"118 0 LINE",
"345 636 LINE",
"336 636 LINE",
"550 0 LINE",
"643 0 LINE",
"399 694 LINE",
"291 694 LINE",
"31 0 LINE"
);
},
{
closed = 1;
nodes = (
"509 206 LINE",
"509 278 LINE",
"162 278 LINE",
"162 206 LINE"
);
}
);
width = 675;
},
{
layerId = "51C2DFEF-3776-4D13-9284-96485B799B57";
width = 600;
},
{
layerId = "0B2E441B-685E-400D-9B9B-E078DEED62EF";
width = 600;
}
);
note = A;
unicode = 0041;
},
{
glyphname = B;
lastChange = "2017-09-10 18:11:30 +0000";
layers = (
{
anchors = (
{
name = bottom;
position = "{331, 0}";
},
{
name = top;
position = "{331, 694}";
}
);
layerId = "F333AEC5-BB61-4D5E-9EDD-6124322D28F2";
paths = (
{
closed = 1;
nodes = (
"351 0 LINE SMOOTH",
"511 0 OFFCURVE",
"605 74 OFFCURVE",
"605 201 CURVE SMOOTH",
"605 322 OFFCURVE",
"520 397 OFFCURVE",
"384 397 CURVE SMOOTH",
"178 397 LINE",
"178 326 LINE",
"375 326 LINE SMOOTH",
"469 326 OFFCURVE",
"520 278 OFFCURVE",
"520 190 CURVE SMOOTH",
"520 106 OFFCURVE",
"473 71 OFFCURVE",
"361 71 CURVE SMOOTH",
"192 71 LINE",
"192 623 LINE",
"310 623 LINE SMOOTH",
"416 623 OFFCURVE",
"468 584 OFFCURVE",
"468 505 CURVE SMOOTH",
"468 444 OFFCURVE",
"434 409 OFFCURVE",
"342 375 CURVE",
"462 375 LINE",
"518 399 OFFCURVE",
"553 457 OFFCURVE",
"553 524 CURVE SMOOTH",
"553 631 OFFCURVE",
"466 694 OFFCURVE",
"320 694 CURVE SMOOTH",
"109 694 LINE",
"109 0 LINE"
);
}
);
width = 663;
},
{
layerId = "51C2DFEF-3776-4D13-9284-96485B799B57";
width = 600;
},
{
layerId = "0B2E441B-685E-400D-9B9B-E078DEED62EF";
width = 600;
}
);
note = B;
unicode = 0042;
},
{
glyphname = C;
lastChange = "2017-09-10 18:11:30 +0000";
layers = (
{
anchors = (
{
name = bottom;
position = "{376, 0}";
},
{
name = top;
position = "{376, 694}";
}
);
layerId = "F333AEC5-BB61-4D5E-9EDD-6124322D28F2";
paths = (
{
closed = 1;
nodes = (
"472 -10 OFFCURVE",
"542 5 OFFCURVE",
"608 34 CURVE",
"589 95 LINE",
"536 74 OFFCURVE",
"474 63 OFFCURVE",
"425 63 CURVE SMOOTH",
"263 63 OFFCURVE",
"148 186 OFFCURVE",
"148 358 CURVE SMOOTH",
"148 526 OFFCURVE",
"251 630 OFFCURVE",
"415 630 CURVE SMOOTH",
"473 630 OFFCURVE",
"536 618 OFFCURVE",
"588 597 CURVE",
"612 662 LINE",
"562 687 OFFCURVE",
"490 703 OFFCURVE",
"421 703 CURVE SMOOTH",
"209 703 OFFCURVE",
"63 554 OFFCURVE",
"63 339 CURVE SMOOTH",
"63 130 OFFCURVE",
"201 -10 OFFCURVE",
"405 -10 CURVE SMOOTH"
);
}
);
width = 651;
},
{
layerId = "51C2DFEF-3776-4D13-9284-96485B799B57";
width = 600;
},
{
layerId = "0B2E441B-685E-400D-9B9B-E078DEED62EF";
width = 600;
}
);
note = C;
unicode = 0043;
},
{
glyphname = D;
lastChange = "2017-09-10 18:11:30 +0000";
layers = (
{
anchors = (
{
name = bottom;
position = "{339, 0}";
},
{
name = center;
position = "{172, 347}";
},
{
name = top;
position = "{339, 694}";
}
);
layerId = "F333AEC5-BB61-4D5E-9EDD-6124322D28F2";
paths = (
{
closed = 1;
nodes = (
"321 0 LINE SMOOTH",
"550 0 OFFCURVE",
"673 153 OFFCURVE",
"673 356 CURVE SMOOTH",
"673 570 OFFCURVE",
"535 694 OFFCURVE",
"336 694 CURVE SMOOTH",
"109 694 LINE",
"109 0 LINE"
);
},
{
closed = 1;
nodes = (
"192 622 LINE",
"326 622 LINE SMOOTH",
"504 622 OFFCURVE",
"590 513 OFFCURVE",
"590 347 CURVE SMOOTH",
"590 184 OFFCURVE",
"507 72 OFFCURVE",
"331 72 CURVE SMOOTH",
"192 72 LINE"
);
}
);
width = 737;
},
{
layerId = "51C2DFEF-3776-4D13-9284-96485B799B57";
width = 600;
},
{
layerId = "0B2E441B-685E-400D-9B9B-E078DEED62EF";
width = 600;
}
);
note = D;
unicode = 0044;
},
{
glyphname = E;
lastChange = "2017-09-10 18:11:30 +0000";
layers = (
{
anchors = (
{
name = "#entry";
position = "{149, 291}";
},
{
name = bottom;
position = "{318, 0}";
},
{
name = ogonek;
position = "{527, 10}";
},
{
name = top;
position = "{338, 694}";
},
{
name = topleft;
position = "{20, 694}";
}
);
layerId = "F333AEC5-BB61-4D5E-9EDD-6124322D28F2";
paths = (
{
closed = 1;
nodes = (
"192 0 LINE",
"192 694 LINE",
"109 694 LINE",
"109 0 LINE"
);
},
{
closed = 1;
nodes = (
"545 0 LINE",
"545 72 LINE",
"149 72 LINE",
"149 0 LINE"
);
},
{
closed = 1;
nodes = (
"518 323 LINE",
"518 395 LINE",
"149 395 LINE",
"149 323 LINE"
);
},
{
closed = 1;
nodes = (
"545 622 LINE",
"545 694 LINE",
"149 694 LINE",
"149 622 LINE"
);
}
);
width = 605;
},
{
layerId = "51C2DFEF-3776-4D13-9284-96485B799B57";
width = 600;
},
{
layerId = "0B2E441B-685E-400D-9B9B-E078DEED62EF";
width = 600;
}
);
note = E;
unicode = 0045;
},
{
glyphname = F;
lastChange = "2017-09-10 18:11:30 +0000";
layers = (
{
anchors = (
{
name = bottom;
position = "{276, 0}";
},
{
name = top;
position = "{276, 694}";
}
);
layerId = "F333AEC5-BB61-4D5E-9EDD-6124322D28F2";
paths = (
{
closed = 1;
nodes = (
"192 0 LINE",
"192 694 LINE",
"109 694 LINE",
"109 0 LINE"
);
},
{
closed = 1;
nodes = (
"511 322 LINE",
"511 394 LINE",
"141 394 LINE",
"141 322 LINE"
);
},
{
closed = 1;
nodes = (
"540 622 LINE",
"540 694 LINE",
"141 694 LINE",
"141 622 LINE"
);
}
);
width = 582;
},
{
layerId = "51C2DFEF-3776-4D13-9284-96485B799B57";
width = 600;
},
{
layerId = "0B2E441B-685E-400D-9B9B-E078DEED62EF";
width = 600;
}
);
note = F;
unicode = 0046;
},
{
glyphname = G;
lastChange = "2017-09-10 18:11:30 +0000";
layers = (
{
anchors = (
{
name = bottom;
position = "{403, 0}";
},
{
name = top;
position = "{403, 694}";
}
);
layerId = "F333AEC5-BB61-4D5E-9EDD-6124322D28F2";
paths = (
{
closed = 1;
nodes = (
"508 -9 OFFCURVE",
"595 19 OFFCURVE",
"665 74 CURVE",
"665 368 LINE",
"385 368 LINE",
"385 296 LINE",
"582 296 LINE",
"582 102 LINE",
"533 77 OFFCURVE",
"479 64 OFFCURVE",
"424 64 CURVE SMOOTH",
"257 64 OFFCURVE",
"149 179 OFFCURVE",
"149 357 CURVE SMOOTH",
"149 530 OFFCURVE",
"248 630 OFFCURVE",
"417 630 CURVE SMOOTH",
"481 630 OFFCURVE",
"551 615 OFFCURVE",
"614 589 CURVE",
"638 655 LINE",
"577 687 OFFCURVE",
"505 703 OFFCURVE",
"428 703 CURVE SMOOTH",
"209 703 OFFCURVE",
"64 560 OFFCURVE",
"64 342 CURVE SMOOTH",
"64 130 OFFCURVE",
"202 -9 OFFCURVE",
"412 -9 CURVE SMOOTH"
);
}
);
width = 746;
},
{
layerId = "51C2DFEF-3776-4D13-9284-96485B799B57";
width = 600;
},
{
layerId = "0B2E441B-685E-400D-9B9B-E078DEED62EF";
width = 600;
}
);
note = G;
unicode = 0047;
},
{
glyphname = H;
lastChange = "2017-09-10 18:11:30 +0000";
layers = (
{
anchors = (
{
name = bottom;
position = "{378, 0}";
},
{
name = center;
position = "{378, 539}";
},
{
name = top;
position = "{378, 694}";
},
{
name = topleft;
position = "{20, 694}";
}
);
layerId = "F333AEC5-BB61-4D5E-9EDD-6124322D28F2";
paths = (
{
closed = 1;
nodes = (
"646 0 LINE",
"646 694 LINE",
"563 694 LINE",
"563 0 LINE"
);
},
{
closed = 1;
nodes = (
"192 0 LINE",
"192 694 LINE",
"109 694 LINE",
"109 0 LINE"
);
},
{
closed = 1;
nodes = (
"611 323 LINE",
"611 395 LINE",
"141 395 LINE",
"141 323 LINE"
);
}
);
width = 755;
},
{
layerId = "51C2DFEF-3776-4D13-9284-96485B799B57";
width = 600;
},
{
layerId = "0B2E441B-685E-400D-9B9B-E078DEED62EF";
width = 600;
}
);
note = H;
unicode = 0048;
},
{
glyphname = I;
lastChange = "2017-09-10 18:11:30 +0000";
layers = (
{
anchors = (
{
name = bottom;
position = "{151, 0}";
},
{
name = ogonek;
position = "{174, 10}";
},
{
name = top;
position = "{151, 694}";
},
{
name = topleft;
position = "{20, 694}";
}
);
layerId = "F333AEC5-BB61-4D5E-9EDD-6124322D28F2";
paths = (
{
closed = 1;
nodes = (
"192 0 LINE",
"192 694 LINE",
"109 694 LINE",
"109 0 LINE"
);
}
);
width = 301;
},
{
layerId = "51C2DFEF-3776-4D13-9284-96485B799B57";
width = 600;
},
{
layerId = "0B2E441B-685E-400D-9B9B-E078DEED62EF";
width = 600;
}
);
note = I;
unicode = 0049;
},
{
glyphname = J;
lastChange = "2017-09-10 18:11:30 +0000";
layers = (
{
anchors = (
{
name = bottom;
position = "{218, 0}";
},
{
name = top;
position = "{293, 694}";
}
);
layerId = "F333AEC5-BB61-4D5E-9EDD-6124322D28F2";
paths = (
{
closed = 1;
nodes = (
"269 -10 OFFCURVE",
"336 65 OFFCURVE",
"336 200 CURVE SMOOTH",
"336 694 LINE",
"253 694 LINE",
"253 191 LINE SMOOTH",
"253 104 OFFCURVE",
"222 63 OFFCURVE",
"152 63 CURVE SMOOTH",
"119 63 OFFCURVE",
"82 72 OFFCURVE",
"51 87 CURVE",
"27 21 LINE",
"62 2 OFFCURVE",
"104 -10 OFFCURVE",
"151 -10 CURVE SMOOTH"
);
}
);
width = 437;
},
{
layerId = "51C2DFEF-3776-4D13-9284-96485B799B57";
width = 600;
},
{
layerId = "0B2E441B-685E-400D-9B9B-E078DEED62EF";
width = 600;
}
);
note = J;
unicode = 004A;
},
{
glyphname = K;
lastChange = "2017-09-10 18:11:30 +0000";
layers = (
{
anchors = (
{
name = bottom;
position = "{323, 0}";
},
{
name = top;
position = "{323, 694}";
}
);
layerId = "F333AEC5-BB61-4D5E-9EDD-6124322D28F2";
paths = (
{
closed = 1;
nodes = (
"620 0 LINE",
"276 375 LINE",
"275 353 LINE",
"601 694 LINE",
"500 694 LINE",
"183 356 LINE",
"506 0 LINE"
);
},
{
closed = 1;
nodes = (
"192 0 LINE",
"192 694 LINE",
"109 694 LINE",
"109 0 LINE"
);
}
);
width = 645;
},
{
layerId = "51C2DFEF-3776-4D13-9284-96485B799B57";
width = 600;
},
{
layerId = "0B2E441B-685E-400D-9B9B-E078DEED62EF";
width = 600;
}
);
note = K;
unicode = 004B;
},
{
glyphname = L;
lastChange = "2017-09-10 18:11:30 +0000";
layers = (
{
anchors = (
{
name = "#periodcentered";
position = "{418, 352}";
},
{
name = bottom;
position = "{307, 0}";
},
{
name = center;
position = "{177, 347}";
},
{
name = top;
position = "{152, 694}";
},
{
name = topright;
position = "{316, 482}";
}
);
layerId = "F333AEC5-BB61-4D5E-9EDD-6124322D28F2";
paths = (
{
closed = 1;
nodes = (
"192 0 LINE",
"192 694 LINE",
"109 694 LINE",
"109 0 LINE"
);
},
{
closed = 1;
nodes = (
"503 0 LINE",
"503 74 LINE",
"141 74 LINE",
"141 0 LINE"
);
}
);
width = 533;
},
{
layerId = "51C2DFEF-3776-4D13-9284-96485B799B57";
width = 600;
},
{
layerId = "0B2E441B-685E-400D-9B9B-E078DEED62EF";
width = 600;
}
);
note = L;
unicode = 004C;
},
{
glyphname = M;
lastChange = "2017-09-10 18:11:30 +0000";
layers = (
{
anchors = (
{
name = bottom;
position = "{447, 0}";
},
{
name = top;
position = "{447, 694}";
}
);
layerId = "F333AEC5-BB61-4D5E-9EDD-6124322D28F2";
paths = (
{
closed = 1;
nodes = (
"187 0 LINE",
"187 581 LINE",
"171 581 LINE",
"422 108 LINE",
"480 108 LINE",
"722 581 LINE",
"706 581 LINE",
"706 0 LINE",
"784 0 LINE",
"784 694 LINE",
"702 694 LINE",
"447 198 LINE",
"460 198 LINE",
"197 694 LINE",
"109 694 LINE",
"109 0 LINE"
);
}
);
width = 893;
},
{
layerId = "51C2DFEF-3776-4D13-9284-96485B799B57";
width = 600;
},
{
layerId = "0B2E441B-685E-400D-9B9B-E078DEED62EF";
width = 600;
}
);
note = M;
unicode = 004D;
},
{
glyphname = N;
lastChange = "2017-09-10 18:11:30 +0000";
layers = (
{
anchors = (
{
name = "#hook";
position = "{636, 0}";
},
{
name = bottom;
position = "{392, 0}";
},
{
name = top;
position = "{392, 694}";
}
);
layerId = "F333AEC5-BB61-4D5E-9EDD-6124322D28F2";
paths = (
{
closed = 1;
nodes = (
"187 0 LINE",
"187 605 LINE",
"170 605 LINE",
"580 0 LINE",
"675 0 LINE",
"675 694 LINE",
"597 694 LINE",
"597 87 LINE",
"615 87 LINE",
"204 694 LINE",
"109 694 LINE",
"109 0 LINE"
);
}
);
width = 784;
},
{
layerId = "51C2DFEF-3776-4D13-9284-96485B799B57";
width = 600;
},
{
layerId = "0B2E441B-685E-400D-9B9B-E078DEED62EF";
width = 600;
}
);
note = N;
unicode = 004E;
},
{
glyphname = O;
lastChange = "2017-09-10 18:11:30 +0000";
layers = (
{
anchors = (
{
name = "#Qtail";
position = "{555, 65}";
},
{
name = "#exit";
position = "{672, 291}";
},
{
name = bottom;
position = "{391, 0}";
},
{
name = center;
position = "{391, 347}";
},
{
name = ogonek;
position = "{503, 10}";
},
{
name = top;
position = "{391, 694}";
},
{
name = topleft;
position = "{20, 694}";
},
{
name = topright;
position = "{582, 694}";
}
);
associatedMasterId = "F333AEC5-BB61-4D5E-9EDD-6124322D28F2";
layerId = "EC4D3195-D96F-470D-9C91-AC6DC99AADFD";
name = "Aug 31 17, 20:13";
paths = (
{
closed = 1;
nodes = (
"578 -7 OFFCURVE",
"717 141 OFFCURVE",
"717 356 CURVE SMOOTH",
"717 566 OFFCURVE",
"586 703 OFFCURVE",
"393 703 CURVE SMOOTH",
"194 703 OFFCURVE",
"65 558 OFFCURVE",
"65 344 CURVE SMOOTH",
"65 135 OFFCURVE",
"192 -7 OFFCURVE",
"383 -7 CURVE SMOOTH"
);
},
{
closed = 1;
nodes = (
"249 65 OFFCURVE",
"150 186 OFFCURVE",
"150 356 CURVE SMOOTH",
"150 524 OFFCURVE",
"236 630 OFFCURVE",
"383 630 CURVE SMOOTH",
"526 630 OFFCURVE",
"632 513 OFFCURVE",
"632 344 CURVE SMOOTH",
"632 178 OFFCURVE",
"533 65 OFFCURVE",
"393 65 CURVE SMOOTH"
);
}
);
width = 782;
},
{
anchors = (
{
name = "#Qtail";
position = "{555, 65}";
},
{
name = "#exit";
position = "{672, 291}";
},
{
name = bottom;
position = "{391, 0}";
},
{
name = center;
position = "{391, 347}";
},
{
name = ogonek;
position = "{503, 10}";
},
{
name = top;
position = "{391, 694}";
},
{
name = topleft;
position = "{20, 694}";
},
{
name = topright;
position = "{582, 694}";
}
);
layerId = "F333AEC5-BB61-4D5E-9EDD-6124322D28F2";
paths = (
{
closed = 1;
nodes = (
"583 -7 OFFCURVE",
"717 138 OFFCURVE",
"717 356 CURVE SMOOTH",
"717 564 OFFCURVE",
"587 703 OFFCURVE",
"393 703 CURVE SMOOTH",
"196 703 OFFCURVE",
"65 559 OFFCURVE",
"65 344 CURVE SMOOTH",
"65 133 OFFCURVE",
"192 -7 OFFCURVE",
"383 -7 CURVE SMOOTH"
);
},
{
closed = 1;
nodes = (
"247 65 OFFCURVE",
"150 181 OFFCURVE",
"150 356 CURVE SMOOTH",
"150 520 OFFCURVE",
"243 630 OFFCURVE",
"383 630 CURVE SMOOTH",
"532 630 OFFCURVE",
"632 516 OFFCURVE",
"632 344 CURVE SMOOTH",
"632 177 OFFCURVE",
"536 65 OFFCURVE",
"393 65 CURVE SMOOTH"
);
}
);
width = 782;
},
{
layerId = "51C2DFEF-3776-4D13-9284-96485B799B57";
width = 600;
},
{
layerId = "0B2E441B-685E-400D-9B9B-E078DEED62EF";
width = 600;
}
);
note = O;
unicode = 004F;
},
{
glyphname = R;
lastChange = "2017-09-10 18:11:30 +0000";
layers = (
{
anchors = (
{
name = bottom;
position = "{326, 0}";
},
{
name = top;
position = "{326, 694}";
}
);
layerId = "F333AEC5-BB61-4D5E-9EDD-6124322D28F2";
paths = (
{
closed = 1;
nodes = (
"192 0 LINE",
"192 622 LINE",
"329 622 LINE SMOOTH",
"426 622 OFFCURVE",
"486 576 OFFCURVE",
"486 488 CURVE SMOOTH",
"486 403 OFFCURVE",
"430 359 OFFCURVE",
"339 359 CURVE SMOOTH",
"148 359 LINE",
"148 287 LINE",
"329 287 LINE SMOOTH",
"472 287 OFFCURVE",
"571 372 OFFCURVE",
"571 499 CURVE SMOOTH",
"571 625 OFFCURVE",
"473 694 OFFCURVE",
"339 694 CURVE SMOOTH",
"109 694 LINE",
"109 0 LINE"
);
},
{
closed = 1;
nodes = (
"611 0 LINE",
"419 328 LINE",
"324 328 LINE",
"512 0 LINE"
);
}
);
width = 652;
},
{
layerId = "51C2DFEF-3776-4D13-9284-96485B799B57";
width = 600;
},
{
layerId = "0B2E441B-685E-400D-9B9B-E078DEED62EF";
width = 600;
}
);
note = R;
unicode = 0052;
},
{
glyphname = S;
lastChange = "2017-09-10 18:11:30 +0000";
layers = (
{
anchors = (
{
name = bottom;
position = "{297, 0}";
},
{
name = top;
position = "{297, 694}";
}
);
layerId = "F333AEC5-BB61-4D5E-9EDD-6124322D28F2";
paths = (
{
closed = 1;
nodes = (
"441 -10 OFFCURVE",
"535 67 OFFCURVE",
"535 196 CURVE SMOOTH",
"535 452 OFFCURVE",
"155 335 OFFCURVE",
"155 514 CURVE SMOOTH",
"155 587 OFFCURVE",
"218 631 OFFCURVE",
"323 631 CURVE SMOOTH",
"377 631 OFFCURVE",
"439 619 OFFCURVE",
"487 600 CURVE",
"511 665 LINE",
"455 691 OFFCURVE",
"398 704 OFFCURVE",
"334 704 CURVE SMOOTH",
"172 704 OFFCURVE",
"70 626 OFFCURVE",
"70 501 CURVE SMOOTH",
"70 258 OFFCURVE",
"450 373 OFFCURVE",
"450 183 CURVE SMOOTH",
"450 107 OFFCURVE",
"391 63 OFFCURVE",
"288 63 CURVE SMOOTH",
"228 63 OFFCURVE",
"158 78 OFFCURVE",
"81 109 CURVE",
"57 40 LINE",
"130 8 OFFCURVE",
"211 -10 OFFCURVE",
"285 -10 CURVE SMOOTH"
);
}
);
width = 592;
},
{
layerId = "51C2DFEF-3776-4D13-9284-96485B799B57";
width = 600;
},
{
layerId = "0B2E441B-685E-400D-9B9B-E078DEED62EF";
width = 600;
}
);
note = S;
unicode = 0053;
},
{
glyphname = Germandbls;
lastChange = "2017-09-10 18:11:30 +0000";
layers = (
{
layerId = "F333AEC5-BB61-4D5E-9EDD-6124322D28F2";
paths = (
{
closed = 1;
nodes = (
"572 -10 OFFCURVE",
"667 72 OFFCURVE",
"667 184 CURVE SMOOTH",
"667 283 OFFCURVE",
"597 363 OFFCURVE",
"491 387 CURVE",
"617 583 LINE",
"584 657 OFFCURVE",
"489 704 OFFCURVE",
"370 704 CURVE SMOOTH",
"207 704 OFFCURVE",
"98 615 OFFCURVE",
"98 483 CURVE SMOOTH",
"98 0 LINE",
"181 0 LINE",
"181 492 LINE SMOOTH",
"181 579 OFFCURVE",
"248 631 OFFCURVE",
"360 631 CURVE SMOOTH",
"438 631 OFFCURVE",
"498 607 OFFCURVE",
"522 565 CURVE",
"374 343 LINE",
"508 322 OFFCURVE",
"582 262 OFFCURVE",
"582 175 CURVE SMOOTH",
"582 107 OFFCURVE",
"536 62 OFFCURVE",
"463 62 CURVE SMOOTH",
"422 62 OFFCURVE",
"364 76 OFFCURVE",
"320 98 CURVE",
"296 33 LINE",
"343 6 OFFCURVE",
"401 -10 OFFCURVE",
"453 -10 CURVE SMOOTH"
);
}
);
width = 724;
},
{
layerId = "51C2DFEF-3776-4D13-9284-96485B799B57";
width = 600;
},
{
layerId = "0B2E441B-685E-400D-9B9B-E078DEED62EF";
width = 600;
}
);
unicode = 1E9E;
},
{
glyphname = Schwa;
lastChange = "2017-09-10 18:11:30 +0000";
layers = (
{
layerId = "F333AEC5-BB61-4D5E-9EDD-6124322D28F2";
paths = (
{
closed = 1;
nodes = (
"532 -10 OFFCURVE",
"656 139 OFFCURVE",
"656 348 CURVE SMOOTH",
"656 563 OFFCURVE",
"524 694 OFFCURVE",
"328 694 CURVE SMOOTH",
"251 694 OFFCURVE",
"157 674 OFFCURVE",
"94 645 CURVE",
"118 579 LINE",
"181 604 OFFCURVE",
"262 621 OFFCURVE",
"320 621 CURVE SMOOTH",
"469 621 OFFCURVE",
"571 513 OFFCURVE",
"571 338 CURVE SMOOTH",
"571 178 OFFCURVE",
"486 63 OFFCURVE",
"355 63 CURVE SMOOTH",
"235 63 OFFCURVE",
"150 160 OFFCURVE",
"150 306 CURVE",
"576 306 LINE",
"576 378 LINE",
"69 378 LINE",
"67 342 OFFCURVE",
"65 305 OFFCURVE",
"65 282 CURVE SMOOTH",
"65 107 OFFCURVE",
"180 -10 OFFCURVE",
"345 -10 CURVE SMOOTH"
);
}
);
width = 721;
},
{
layerId = "51C2DFEF-3776-4D13-9284-96485B799B57";
width = 600;
},
{
layerId = "0B2E441B-685E-400D-9B9B-E078DEED62EF";
width = 600;
}
);
unicode = 018F;
},
{
glyphname = T;
lastChange = "2017-09-10 18:11:30 +0000";
layers = (
{
anchors = (
{
name = bottom;
position = "{302, 0}";
},
{
name = center;
position = "{302, 347}";
},
{
name = top;
position = "{302, 694}";
}
);
layerId = "F333AEC5-BB61-4D5E-9EDD-6124322D28F2";
paths = (
{
closed = 1;
nodes = (
"343 0 LINE",
"343 660 LINE",
"260 660 LINE",
"260 0 LINE"
);
},
{
closed = 1;
nodes = (
"575 622 LINE",
"575 694 LINE",
"29 694 LINE",
"29 622 LINE"
);
}
);
width = 604;
},
{
layerId = "51C2DFEF-3776-4D13-9284-96485B799B57";
width = 600;
},
{
layerId = "0B2E441B-685E-400D-9B9B-E078DEED62EF";
width = 600;
}
);
note = T;
unicode = 0054;
},
{
glyphname = U;
lastChange = "2017-09-10 18:11:30 +0000";
layers = (
{
anchors = (
{
name = bottom;
position = "{359, 0}";
},
{
name = ogonek;
position = "{468, 10}";
},
{
name = top;
position = "{359, 694}";
},
{
name = topright;
position = "{658, 694}";
}
);
layerId = "F333AEC5-BB61-4D5E-9EDD-6124322D28F2";
paths = (
{
closed = 1;
nodes = (
"513 -10 OFFCURVE",
"623 92 OFFCURVE",
"623 246 CURVE SMOOTH",
"623 694 LINE",
"542 694 LINE",
"542 236 LINE SMOOTH",
"542 132 OFFCURVE",
"482 63 OFFCURVE",
"365 63 CURVE SMOOTH",
"252 63 OFFCURVE",
"179 128 OFFCURVE",
"179 253 CURVE SMOOTH",
"179 694 LINE",
"96 694 LINE",
"96 243 LINE SMOOTH",
"96 91 OFFCURVE",
"196 -10 OFFCURVE",
"354 -10 CURVE SMOOTH"
);
}
);
width = 718;
},
{
layerId = "51C2DFEF-3776-4D13-9284-96485B799B57";
width = 600;
},
{
layerId = "0B2E441B-685E-400D-9B9B-E078DEED62EF";
width = 600;
}
);
note = U;
unicode = 0055;
},
{
glyphname = V;
lastChange = "2017-09-10 18:11:30 +0000";
layers = (
{
anchors = (
{
name = bottom;
position = "{326, 0}";
},
{
name = top;
position = "{326, 694}";
}
);
layerId = "F333AEC5-BB61-4D5E-9EDD-6124322D28F2";
paths = (
{
closed = 1;
nodes = (
"366 0 LINE",
"619 694 LINE",
"535 694 LINE",
"304 29 LINE",
"354 29 LINE",
"127 694 LINE",
"32 694 LINE",
"285 0 LINE"
);
}
);
width = 651;
},
{
layerId = "51C2DFEF-3776-4D13-9284-96485B799B57";
width = 600;
},
{
layerId = "0B2E441B-685E-400D-9B9B-E078DEED62EF";
width = 600;
}
);
note = V;
unicode = 0056;
},
{
glyphname = W;
lastChange = "2017-09-10 18:11:30 +0000";
layers = (
{
anchors = (
{
name = bottom;
position = "{513, 0}";
},
{
name = top;
position = "{513, 694}";
}
);
layerId = "F333AEC5-BB61-4D5E-9EDD-6124322D28F2";
paths = (
{
closed = 1;
nodes = (
"337 0 LINE",
"539 648 LINE",
"492 648 LINE",
"698 0 LINE",
"778 0 LINE",
"994 694 LINE",
"912 694 LINE",
"718 39 LINE",
"767 39 LINE",
"568 684 LINE",
"472 684 LINE",
"272 39 LINE",
"321 39 LINE",
"131 694 LINE",
"35 694 LINE",
"257 0 LINE"
);
}
);
width = 1029;
},
{
layerId = "51C2DFEF-3776-4D13-9284-96485B799B57";
width = 600;
},
{
layerId = "0B2E441B-685E-400D-9B9B-E078DEED62EF";
width = 600;
}
);
note = W;
unicode = 0057;
},
{
glyphname = X;
lastChange = "2017-09-10 18:11:30 +0000";
layers = (
{
anchors = (
{
name = bottom;
position = "{322, 0}";
},
{
name = top;
position = "{322, 694}";
}
);
layerId = "F333AEC5-BB61-4D5E-9EDD-6124322D28F2";
paths = (
{
closed = 1;
nodes = (
"615 0 LINE",
"342 394 LINE",
"148 694 LINE",
"49 694 LINE",
"283 346 LINE",
"516 0 LINE"
);
},
{
closed = 1;
nodes = (
"123 0 LINE",
"341 333 LINE",
"589 694 LINE",
"495 694 LINE",
"294 390 LINE",
"29 0 LINE"
);
}
);
width = 643;
},
{
layerId = "51C2DFEF-3776-4D13-9284-96485B799B57";
width = 600;
},
{
layerId = "0B2E441B-685E-400D-9B9B-E078DEED62EF";
width = 600;
}
);
note = X;
unicode = 0058;
},
{
glyphname = Y;
lastChange = "2017-09-10 18:11:30 +0000";
layers = (
{
anchors = (
{
name = bottom;
position = "{309, 0}";
},
{
name = top;
position = "{309, 694}";
},
{
name = topleft;
position = "{31, 694}";
}
);
layerId = "F333AEC5-BB61-4D5E-9EDD-6124322D28F2";
paths = (
{
closed = 1;
nodes = (
"347 0 LINE",
"347 299 LINE",
"593 694 LINE",
"502 694 LINE",
"303 362 LINE",
"314 362 LINE",
"122 694 LINE",
"25 694 LINE",
"264 299 LINE",
"264 0 LINE"
);
}
);
width = 617;
},
{
layerId = "51C2DFEF-3776-4D13-9284-96485B799B57";
width = 600;
},
{
layerId = "0B2E441B-685E-400D-9B9B-E078DEED62EF";
width = 600;
}
);
note = Y;
unicode = 0059;
},
{
glyphname = Z;
lastChange = "2017-09-10 18:11:30 +0000";
layers = (
{
anchors = (
{
name = bottom;
position = "{321, 0}";
},
{
name = top;
position = "{321, 694}";
}
);
layerId = "F333AEC5-BB61-4D5E-9EDD-6124322D28F2";
paths = (
{
closed = 1;
nodes = (
"600 0 LINE",
"600 72 LINE",
"120 72 LINE",
"132 47 LINE",
"587 642 LINE",
"587 694 LINE",
"56 694 LINE",
"56 622 LINE",
"508 622 LINE",
"496 647 LINE",
"42 53 LINE",
"42 0 LINE"
);
}
);
width = 642;
},
{
layerId = "51C2DFEF-3776-4D13-9284-96485B799B57";
width = 600;
},
{
layerId = "0B2E441B-685E-400D-9B9B-E078DEED62EF";
width = 600;
}
);
note = Z;
unicode = 005A;
},
{
glyphname = a;
lastChange = "2017-09-16 15:46:13 +0000";
layers = (
{
anchors = (
{
name = bottom;
position = "{265, 0}";
},
{
name = ogonek;
position = "{423, 10}";
},
{
name = top;
position = "{250, 482}";
}
);
layerId = "F333AEC5-BB61-4D5E-9EDD-6124322D28F2";
paths = (
{
closed = 1;
nodes = (
"441 0 LINE",
"441 326 LINE SMOOTH",
"441 429 OFFCURVE",
"370 492 OFFCURVE",
"252 492 CURVE SMOOTH",
"187 492 OFFCURVE",
"126 474 OFFCURVE",
"61 435 CURVE",
"82 378 LINE",
"136 407 OFFCURVE",
"183 420 OFFCURVE",
"234 420 CURVE SMOOTH",
"318 420 OFFCURVE",
"361 384 OFFCURVE",
"361 313 CURVE SMOOTH",
"361 56 LINE",
"385 0 LINE"
);
},
{
closed = 1;
nodes = (
"326 -10 OFFCURVE",
"414 62 OFFCURVE",
"430 169 CURVE",
"401 183 LINE",
"385 108 OFFCURVE",
"320 60 OFFCURVE",
"236 60 CURVE SMOOTH",
"172 60 OFFCURVE",
"131 89 OFFCURVE",
"131 134 CURVE SMOOTH",
"131 196 OFFCURVE",
"206 224 OFFCURVE",
"373 224 CURVE",
"373 284 LINE",
"166 284 OFFCURVE",
"51 225 OFFCURVE",
"51 120 CURVE SMOOTH",
"51 42 OFFCURVE",
"115 -10 OFFCURVE",
"212 -10 CURVE SMOOTH"
);
}
);
width = 525;
},
{
anchors = (
{
name = bottom;
position = "{282, 0}";
},
{
name = ogonek;
position = "{428, 10}";
},
{
name = top;
position = "{282, 490}";
}
);
background = {
paths = (
{
closed = 1;
nodes = (
"504 0 LINE",
"504 292 LINE SMOOTH",
"504 424 OFFCURVE",
"416 500 OFFCURVE",
"274 500 CURVE SMOOTH",
"200 500 OFFCURVE",
"113 476 OFFCURVE",
"46 428 CURVE",
"85 313 LINE",
"131 341 OFFCURVE",
"184 356 OFFCURVE",
"237 356 CURVE SMOOTH",
"295 356 OFFCURVE",
"331 331 OFFCURVE",
"331 282 CURVE SMOOTH",
"331 119 LINE",
"358 0 LINE"
);
},
{
closed = 1;
nodes = (
"318 -10 OFFCURVE",
"374 68 OFFCURVE",
"421 155 CURVE",
"378 178 LINE",
"345 140 OFFCURVE",
"301 119 OFFCURVE",
"266 119 CURVE SMOOTH",
"232 119 OFFCURVE",
"209 132 OFFCURVE",
"209 154 CURVE SMOOTH",
"209 185 OFFCURVE",
"234 205 OFFCURVE",
"366 205 CURVE",
"366 309 LINE",
"153 299 OFFCURVE",
"35 228 OFFCURVE",
"35 123 CURVE SMOOTH",
"35 41 OFFCURVE",
"110 -10 OFFCURVE",
"201 -10 CURVE SMOOTH"
);
}
);
};
layerId = "51C2DFEF-3776-4D13-9284-96485B799B57";
paths = (
{
closed = 1;
nodes = (
"504 0 LINE",
"504 292 LINE SMOOTH",
"504 422 OFFCURVE",
"418 500 OFFCURVE",
"276 500 CURVE SMOOTH",
"194 500 OFFCURVE",
"109 475 OFFCURVE",
"46 433 CURVE",
"85 318 LINE",
"129 342 OFFCURVE",
"184 356 OFFCURVE",
"233 356 CURVE SMOOTH",
"297 356 OFFCURVE",
"331 331 OFFCURVE",
"331 282 CURVE SMOOTH",
"331 119 LINE",
"358 0 LINE"
);
},
{
closed = 1;
nodes = (
"298 -10 OFFCURVE",
"371 43 OFFCURVE",
"431 155 CURVE",
"378 178 LINE",
"345 140 OFFCURVE",
"304 119 OFFCURVE",
"263 119 CURVE SMOOTH",
"229 119 OFFCURVE",
"209 133 OFFCURVE",
"209 157 CURVE SMOOTH",
"209 190 OFFCURVE",
"249 201 OFFCURVE",
"366 201 CURVE",
"366 305 LINE",
"170 305 OFFCURVE",
"35 231 OFFCURVE",
"35 123 CURVE SMOOTH",
"35 45 OFFCURVE",
"104 -10 OFFCURVE",
"202 -10 CURVE SMOOTH"
);
}
);
width = 564;
},
{
anchors = (
{
name = bottom;
position = "{251, 0}";
},
{
name = ogonek;
position = "{400, 10}";
},
{
name = top;
position = "{251, 480}";
}
);
background = {
paths = (
{
closed = 1;
nodes = (
"407 0 LINE",
"407 327 LINE SMOOTH",
"407 436 OFFCURVE",
"342 486 OFFCURVE",
"233 486 CURVE SMOOTH",
"170 486 OFFCURVE",
"101 460 OFFCURVE",
"59 425 CURVE",
"68 412 LINE",
"112 446 OFFCURVE",
"174 466 OFFCURVE",
"230 466 CURVE SMOOTH",
"328 466 OFFCURVE",
"387 425 OFFCURVE",
"387 323 CURVE SMOOTH",
"387 71 LINE",
"391 0 LINE"
);
},
{
closed = 1;
nodes = (
"282 -10 OFFCURVE",
"350 20 OFFCURVE",
"395 65 CURVE",
"395 86 LINE",
"339 34 OFFCURVE",
"279 10 OFFCURVE",
"215 10 CURVE SMOOTH",
"128 10 OFFCURVE",
"75 48 OFFCURVE",
"75 112 CURVE SMOOTH",
"75 202 OFFCURVE",
"178 245 OFFCURVE",
"395 245 CURVE",
"395 266 LINE",
"175 266 OFFCURVE",
"54 211 OFFCURVE",
"54 108 CURVE SMOOTH",
"54 35 OFFCURVE",
"113 -10 OFFCURVE",
"211 -10 CURVE SMOOTH"
);
}
);
};
layerId = "0B2E441B-685E-400D-9B9B-E078DEED62EF";
paths = (
{
closed = 1;
nodes = (
"407 0 LINE",
"407 327 LINE SMOOTH",
"407 429 OFFCURVE",
"349 486 OFFCURVE",
"246 486 CURVE SMOOTH",
"180 486 OFFCURVE",
"110 462 OFFCURVE",
"64 425 CURVE",
"73 412 LINE",
"117 446 OFFCURVE",
"179 466 OFFCURVE",
"241 466 CURVE SMOOTH",
"337 466 OFFCURVE",
"387 417 OFFCURVE",
"387 323 CURVE SMOOTH",
"387 71 LINE",
"391 0 LINE"
);
},
{
closed = 1;
nodes = (
"281 -10 OFFCURVE",
"347 17 OFFCURVE",
"395 65 CURVE",
"395 86 LINE",
"339 34 OFFCURVE",
"282 10 OFFCURVE",
"216 10 CURVE SMOOTH",
"132 10 OFFCURVE",
"80 49 OFFCURVE",
"80 112 CURVE SMOOTH",
"80 202 OFFCURVE",
"182 245 OFFCURVE",
"395 245 CURVE",
"395 266 LINE",
"178 266 OFFCURVE",
"59 210 OFFCURVE",
"59 108 CURVE SMOOTH",
"59 36 OFFCURVE",
"117 -10 OFFCURVE",
"210 -10 CURVE SMOOTH"
);
}
);
width = 502;
},
{
anchors = (
{
name = bottom;
position = "{282, 0}";
},
{
name = ogonek;
position = "{428, 10}";
},
{
name = top;
position = "{282, 490}";
}
);
associatedMasterId = "51C2DFEF-3776-4D13-9284-96485B799B57";
background = {
paths = (
{
closed = 1;
nodes = (
"504 0 LINE",
"504 292 LINE SMOOTH",
"504 424 OFFCURVE",
"416 500 OFFCURVE",
"274 500 CURVE SMOOTH",
"200 500 OFFCURVE",
"113 476 OFFCURVE",
"46 428 CURVE",
"85 313 LINE",
"131 341 OFFCURVE",
"184 356 OFFCURVE",
"237 356 CURVE SMOOTH",
"295 356 OFFCURVE",
"331 331 OFFCURVE",
"331 282 CURVE SMOOTH",
"331 119 LINE",
"358 0 LINE"
);
},
{
closed = 1;
nodes = (
"318 -10 OFFCURVE",
"374 68 OFFCURVE",
"421 155 CURVE",
"378 178 LINE",
"345 140 OFFCURVE",
"301 119 OFFCURVE",
"266 119 CURVE SMOOTH",
"232 119 OFFCURVE",
"209 132 OFFCURVE",
"209 154 CURVE SMOOTH",
"209 185 OFFCURVE",
"234 205 OFFCURVE",
"366 205 CURVE",
"366 309 LINE",
"153 299 OFFCURVE",
"35 228 OFFCURVE",
"35 123 CURVE SMOOTH",
"35 41 OFFCURVE",
"110 -10 OFFCURVE",
"201 -10 CURVE SMOOTH"
);
}
);
};
layerId = "9707B00C-8292-4D70-B17A-DB07EF7F01BC";
name = "Sep 15 17, 21:22";
paths = (
{
closed = 1;
nodes = (
"504 0 LINE",
"504 292 LINE SMOOTH",
"504 422 OFFCURVE",
"418 500 OFFCURVE",
"276 500 CURVE SMOOTH",
"194 500 OFFCURVE",
"109 475 OFFCURVE",
"46 433 CURVE",
"85 318 LINE",
"129 342 OFFCURVE",
"184 356 OFFCURVE",
"233 356 CURVE SMOOTH",
"297 356 OFFCURVE",
"331 331 OFFCURVE",
"331 282 CURVE SMOOTH",
"331 119 LINE",
"358 0 LINE"
);
},
{
closed = 1;
nodes = (
"298 -10 OFFCURVE",
"371 43 OFFCURVE",
"431 155 CURVE",
"378 178 LINE",
"345 140 OFFCURVE",
"304 119 OFFCURVE",
"263 119 CURVE SMOOTH",
"229 119 OFFCURVE",
"209 133 OFFCURVE",
"209 157 CURVE SMOOTH",
"209 191 OFFCURVE",
"255 205 OFFCURVE",
"366 205 CURVE",
"366 309 LINE",
"157 299 OFFCURVE",
"35 231 OFFCURVE",
"35 124 CURVE SMOOTH",
"35 45 OFFCURVE",
"104 -10 OFFCURVE",
"202 -10 CURVE SMOOTH"
);
}
);
width = 564;
}
);
note = a;
rightMetricsKey = n;
unicode = 0061;
},
{
glyphname = c;
lastChange = "2017-09-16 15:48:47 +0000";
layers = (
{
anchors = (
{
name = bottom;
position = "{255, 0}";
},
{
name = top;
position = "{275, 482}";
}
);
layerId = "F333AEC5-BB61-4D5E-9EDD-6124322D28F2";
paths = (
{
closed = 1;
nodes = (
"336 -10 OFFCURVE",
"398 5 OFFCURVE",
"441 30 CURVE",
"422 86 LINE",
"384 67 OFFCURVE",
"338 56 OFFCURVE",
"297 56 CURVE SMOOTH",
"194 56 OFFCURVE",
"135 125 OFFCURVE",
"135 243 CURVE SMOOTH",
"135 359 OFFCURVE",
"193 422 OFFCURVE",
"297 422 CURVE SMOOTH",
"336 422 OFFCURVE",
"376 413 OFFCURVE",
"422 395 CURVE",
"441 460 LINE",
"392 481 OFFCURVE",
"345 492 OFFCURVE",
"298 492 CURVE SMOOTH",
"151 492 OFFCURVE",
"53 386 OFFCURVE",
"53 227 CURVE SMOOTH",
"53 78 OFFCURVE",
"137 -10 OFFCURVE",
"278 -10 CURVE SMOOTH"
);
}
);
width = 468;
},
{
anchors = (
{
name = bottom;
position = "{248, 0}";
},
{
name = top;
position = "{251, 490}";
}
);
layerId = "51C2DFEF-3776-4D13-9284-96485B799B57";
paths = (
{
closed = 1;
nodes = (
"366 -12 OFFCURVE",
"421 1 OFFCURVE",
"467 27 CURVE",
"433 146 LINE",
"406 134 OFFCURVE",
"374 128 OFFCURVE",
"341 128 CURVE SMOOTH",
"257 128 OFFCURVE",
"207 173 OFFCURVE",
"207 248 CURVE SMOOTH",
"207 316 OFFCURVE",
"249 356 OFFCURVE",
"317 356 CURVE SMOOTH",
"348 356 OFFCURVE",
"389 348 OFFCURVE",
"430 333 CURVE",
"467 469 LINE",
"427 489 OFFCURVE",
"371 500 OFFCURVE",
"317 500 CURVE SMOOTH",
"148 500 OFFCURVE",
"31 390 OFFCURVE",
"31 230 CURVE SMOOTH",
"31 80 OFFCURVE",
"134 -12 OFFCURVE",
"302 -12 CURVE SMOOTH"
);
}
);
width = 497;
},
{
anchors = (
{
name = bottom;
position = "{232, 0}";
},
{
name = top;
position = "{233, 480}";
}
);
layerId = "0B2E441B-685E-400D-9B9B-E078DEED62EF";
paths = (
{
closed = 1;
nodes = (
"332 -10 OFFCURVE",
"386 7 OFFCURVE",
"425 36 CURVE",
"416 51 LINE",
"380 25 OFFCURVE",
"331 9 OFFCURVE",
"283 9 CURVE SMOOTH",
"168 9 OFFCURVE",
"90 100 OFFCURVE",
"90 238 CURVE SMOOTH",
"90 375 OFFCURVE",
"166 466 OFFCURVE",
"281 466 CURVE SMOOTH",
"323 466 OFFCURVE",
"371 454 OFFCURVE",
"408 434 CURVE",
"416 452 LINE",
"378 474 OFFCURVE",
"330 486 OFFCURVE",
"285 486 CURVE SMOOTH",
"156 486 OFFCURVE",
"69 385 OFFCURVE",
"69 234 CURVE SMOOTH",
"69 87 OFFCURVE",
"152 -10 OFFCURVE",
"279 -10 CURVE SMOOTH"
);
}
);
width = 462;
}
);
note = c;
unicode = 0063;
},
{
glyphname = eth;
lastChange = "2017-09-10 18:11:30 +0000";
layers = (
{
layerId = "F333AEC5-BB61-4D5E-9EDD-6124322D28F2";
paths = (
{
closed = 1;
nodes = (
"414 -9 OFFCURVE",
"497 94 OFFCURVE",
"497 273 CURVE SMOOTH",
"497 486 OFFCURVE",
"381 645 OFFCURVE",
"162 732 CURVE",
"142 671 LINE",
"298 600 OFFCURVE",
"394 498 OFFCURVE",
"431 365 CURVE",
"425 365 LINE",
"399 417 OFFCURVE",
"337 449 OFFCURVE",
"264 449 CURVE SMOOTH",
"138 449 OFFCURVE",
"52 353 OFFCURVE",
"52 215 CURVE SMOOTH",
"52 78 OFFCURVE",
"137 -9 OFFCURVE",
"269 -9 CURVE SMOOTH"
);
},
{
closed = 1;
nodes = (
"187 61 OFFCURVE",
"132 127 OFFCURVE",
"132 229 CURVE SMOOTH",
"132 322 OFFCURVE",
"177 379 OFFCURVE",
"262 379 CURVE SMOOTH",
"354 379 OFFCURVE",
"419 311 OFFCURVE",
"419 213 CURVE SMOOTH",
"419 119 OFFCURVE",
"360 61 OFFCURVE",
"276 61 CURVE SMOOTH"
);
},
{
closed = 1;
nodes = (
"420 673 LINE",
"393 722 LINE",
"133 586 LINE",
"160 538 LINE"
);
}
);
width = 549;
},
{
layerId = "51C2DFEF-3776-4D13-9284-96485B799B57";
width = 600;
},
{
layerId = "0B2E441B-685E-400D-9B9B-E078DEED62EF";
width = 600;
}
);
unicode = 00F0;
},
{
glyphname = e;
lastChange = "2017-09-16 15:50:55 +0000";
layers = (
{
anchors = (
{
name = "#entry";
position = "{92, 236}";
},
{
name = bottom;
position = "{287, 0}";
},
{
name = ogonek;
position = "{430, 10}";
},
{
name = top;
position = "{272, 482}";
}
);
associatedMasterId = "F333AEC5-BB61-4D5E-9EDD-6124322D28F2";
layerId = "91DE0B1C-30D9-4C38-87F3-02620E7556DE";
name = "Aug 19 17, 13:53";
paths = (
{
closed = 1;
nodes = (
"351 -10 OFFCURVE",
"410 5 OFFCURVE",
"459 27 CURVE",
"445 83 LINE",
"403 66 OFFCURVE",
"358 55 OFFCURVE",
"317 55 CURVE SMOOTH",
"207 55 OFFCURVE",
"136 133 OFFCURVE",
"136 251 CURVE SMOOTH",
"136 353 OFFCURVE",
"188 422 OFFCURVE",
"273 422 CURVE SMOOTH",
"348 422 OFFCURVE",
"397 369 OFFCURVE",
"397 279 CURVE",
"121 279 LINE",
"121 219 LINE",
"473 219 LINE",
"475 234 OFFCURVE",
"477 269 OFFCURVE",
"477 289 CURVE SMOOTH",
"477 413 OFFCURVE",
"397 492 OFFCURVE",
"279 492 CURVE SMOOTH",
"145 492 OFFCURVE",
"53 391 OFFCURVE",
"53 236 CURVE SMOOTH",
"53 82 OFFCURVE",
"144 -10 OFFCURVE",
"291 -10 CURVE SMOOTH"
);
}
);
width = 533;
},
{
anchors = (
{
name = "#entry";
position = "{91, 236}";
},
{
name = bottom;
position = "{286, 0}";
},
{
name = ogonek;
position = "{429, 10}";
},
{
name = top;
position = "{271, 482}";
}
);
background = {
paths = (
{
closed = 1;
nodes = (
"418 -10 OFFCURVE",
"515 92 OFFCURVE",
"515 247 CURVE SMOOTH",
"515 394 OFFCURVE",
"428 492 OFFCURVE",
"289 492 CURVE SMOOTH",
"147 492 OFFCURVE",
"52 390 OFFCURVE",
"52 236 CURVE SMOOTH",
"52 89 OFFCURVE",
"138 -10 OFFCURVE",
"277 -10 CURVE SMOOTH"
);
},
{
closed = 1;
nodes = (
"196 60 OFFCURVE",
"132 134 OFFCURVE",
"132 246 CURVE SMOOTH",
"132 352 OFFCURVE",
"188 422 OFFCURVE",
"278 422 CURVE SMOOTH",
"370 422 OFFCURVE",
"435 348 OFFCURVE",
"435 236 CURVE SMOOTH",
"435 131 OFFCURVE",
"378 60 OFFCURVE",
"288 60 CURVE SMOOTH"
);
}
);
};
layerId = "F333AEC5-BB61-4D5E-9EDD-6124322D28F2";
paths = (
{
closed = 1;
nodes = (
"353 -10 OFFCURVE",
"400 1 OFFCURVE",
"458 27 CURVE",
"444 83 LINE",
"396 64 OFFCURVE",
"354 55 OFFCURVE",
"315 55 CURVE SMOOTH",
"201 55 OFFCURVE",
"134 130 OFFCURVE",
"134 255 CURVE SMOOTH",
"134 364 OFFCURVE",
"183 424 OFFCURVE",
"271 424 CURVE SMOOTH",
"353 424 OFFCURVE",
"401 371 OFFCURVE",
"401 279 CURVE",
"120 279 LINE",
"120 219 LINE",
"472 219 LINE",
"474 234 OFFCURVE",
"476 269 OFFCURVE",
"476 288 CURVE SMOOTH",
"476 409 OFFCURVE",
"396 492 OFFCURVE",
"277 492 CURVE SMOOTH",
"143 492 OFFCURVE",
"52 388 OFFCURVE",
"52 236 CURVE SMOOTH",
"52 82 OFFCURVE",
"145 -10 OFFCURVE",
"300 -10 CURVE SMOOTH"
);
}
);
width = 528;
},
{
anchors = (
{
name = "#entry";
position = "{111, 236}";
},
{
name = bottom;
position = "{281, 0}";
},
{
name = ogonek;
position = "{406, 10}";
},
{
name = top;
position = "{281, 490}";
}
);
layerId = "51C2DFEF-3776-4D13-9284-96485B799B57";
paths = (
{
closed = 1;
nodes = (
"383 -10 OFFCURVE",
"450 4 OFFCURVE",
"512 30 CURVE",
"478 149 LINE",
"431 136 OFFCURVE",
"385 129 OFFCURVE",
"343 129 CURVE SMOOTH",
"244 129 OFFCURVE",
"203 166 OFFCURVE",
"203 260 CURVE SMOOTH",
"203 334 OFFCURVE",
"228 370 OFFCURVE",
"279 370 CURVE SMOOTH",
"323 370 OFFCURVE",
"349 344 OFFCURVE",
"349 298 CURVE",
"179 298 LINE",
"179 195 LINE",
"511 195 LINE",
"516 225 OFFCURVE",
"518 256 OFFCURVE",
"518 272 CURVE SMOOTH",
"518 410 OFFCURVE",
"424 500 OFFCURVE",
"285 500 CURVE SMOOTH",
"134 500 OFFCURVE",
"29 395 OFFCURVE",
"29 242 CURVE SMOOTH",
"29 86 OFFCURVE",
"138 -10 OFFCURVE",
"316 -10 CURVE SMOOTH"
);
}
);
width = 562;
},
{
anchors = (
{
name = "#entry";
position = "{80, 236}";
},
{
name = bottom;
position = "{262, 0}";
},
{
name = ogonek;
position = "{372, 10}";
},
{
name = top;
position = "{262, 480}";
}
);
layerId = "0B2E441B-685E-400D-9B9B-E078DEED62EF";
paths = (
{
closed = 1;
nodes = (
"350 -10 OFFCURVE",
"399 5 OFFCURVE",
"453 38 CURVE",
"444 53 LINE",
"398 25 OFFCURVE",
"348 9 OFFCURVE",
"297 9 CURVE SMOOTH",
"175 9 OFFCURVE",
"90 101 OFFCURVE",
"90 239 CURVE SMOOTH",
"90 378 OFFCURVE",
"159 466 OFFCURVE",
"271 466 CURVE SMOOTH",
"375 466 OFFCURVE",
"440 389 OFFCURVE",
"440 262 CURVE",
"79 262 LINE",
"79 243 LINE",
"460 243 LINE",
"461 250 OFFCURVE",
"461 258 OFFCURVE",
"461 265 CURVE SMOOTH",
"461 398 OFFCURVE",
"388 486 OFFCURVE",
"273 486 CURVE SMOOTH",
"152 486 OFFCURVE",
"69 386 OFFCURVE",
"69 237 CURVE SMOOTH",
"69 86 OFFCURVE",
"157 -10 OFFCURVE",
"295 -10 CURVE SMOOTH"
);
}
);
width = 524;
}
);
leftMetricsKey = o;
note = e;
unicode = 0065;
},
{
glyphname = f;
lastChange = "2017-09-16 15:51:18 +0000";
layers = (
{
anchors = (
{
name = "#hook";
position = "{144, 0}";
},
{
name = bottom;
position = "{143, 0}";
},
{
name = top;
position = "{270, 739}";
}
);
layerId = "F333AEC5-BB61-4D5E-9EDD-6124322D28F2";
paths = (
{
closed = 1;
nodes = (
"183 0 LINE",
"183 587 LINE SMOOTH",
"183 648 OFFCURVE",
"211 680 OFFCURVE",
"266 680 CURVE SMOOTH",
"293 680 OFFCURVE",
"326 672 OFFCURVE",
"351 661 CURVE",
"370 723 LINE",
"339 741 OFFCURVE",
"306 749 OFFCURVE",
"273 749 CURVE SMOOTH",
"174 749 OFFCURVE",
"103 678 OFFCURVE",
"103 577 CURVE SMOOTH",
"103 0 LINE"
);
},
{
closed = 1;
nodes = (
"333 415 LINE",
"333 482 LINE",
"31 482 LINE",
"31 415 LINE"
);
}
);
width = 345;
},
{
anchors = (
{
name = "#hook";
position = "{170, 0}";
},
{
name = bottom;
position = "{170, 0}";
},
{
name = top;
position = "{322, 739}";
}
);
layerId = "51C2DFEF-3776-4D13-9284-96485B799B57";
paths = (
{
closed = 1;
nodes = (
"261 0 LINE",
"261 538 LINE SMOOTH",
"261 580 OFFCURVE",
"289 606 OFFCURVE",
"336 606 CURVE SMOOTH",
"361 606 OFFCURVE",
"397 598 OFFCURVE",
"417 588 CURVE",
"452 723 LINE",
"414 741 OFFCURVE",
"378 749 OFFCURVE",
"335 749 CURVE SMOOTH",
"188 749 OFFCURVE",
"88 656 OFFCURVE",
"88 518 CURVE SMOOTH",
"88 0 LINE"
);
},
{
closed = 1;
nodes = (
"401 355 LINE",
"401 490 LINE",
"28 490 LINE",
"28 355 LINE"
);
}
);
width = 409;
},
{
anchors = (
{
name = "#hook";
position = "{123, 0}";
},
{
name = bottom;
position = "{122, 0}";
},
{
name = top;
position = "{223, 739}";
}
);
layerId = "0B2E441B-685E-400D-9B9B-E078DEED62EF";
paths = (
{
closed = 1;
nodes = (
"132 0 LINE",
"132 636 LINE SMOOTH",
"132 689 OFFCURVE",
"171 729 OFFCURVE",
"223 729 CURVE SMOOTH",
"244 729 OFFCURVE",
"273 723 OFFCURVE",
"295 713 CURVE",
"302 731 LINE",
"277 743 OFFCURVE",
"252 749 OFFCURVE",
"229 749 CURVE SMOOTH",
"161 749 OFFCURVE",
"113 699 OFFCURVE",
"113 631 CURVE SMOOTH",
"113 0 LINE"
);
},
{
closed = 1;
nodes = (
"283 461 LINE",
"283 480 LINE",
"32 480 LINE",
"32 461 LINE"
);
}
);
width = 302;
}
);
note = f;
unicode = 0066;
},
{
glyphname = h;
lastChange = "2017-09-16 13:30:37 +0000";
layers = (
{
anchors = (
{
name = bottom;
position = "{288, 0}";
},
{
name = center;
position = "{156, 608}";
},
{
name = top;
position = "{294, 739}";
}
);
background = {
components = (
{
name = _stem.d;
transform = "{1, 0, 0, 1, 312, 0}";
},
{
name = _bowl.d;
transform = "{1, 0, 0, 1, -6, 0}";
}
);
};
components = (
{
name = _stem.h;
},
{
name = _shoulder.n;
transform = "{1, 0, 0, 1, 94, 0}";
}
);
layerId = "F333AEC5-BB61-4D5E-9EDD-6124322D28F2";
width = 575;
},
{
anchors = (
{
name = bottom;
position = "{312, 0}";
},
{
name = center;
position = "{238, 600}";
},
{
name = top;
position = "{312, 490}";
}
);
components = (
{
name = _stem.h;
transform = "{1, 0, 0, 1, -10, 0}";
},
{
name = _shoulder.n;
transform = "{1, 0, 0, 1, 145, 0}";
}
);
layerId = "51C2DFEF-3776-4D13-9284-96485B799B57";
width = 624;
},
{
anchors = (
{
name = bottom;
position = "{280, 0}";
},
{
name = center;
position = "{119, 607}";
},
{
name = top;
position = "{280, 480}";
}
);
components = (
{
name = _stem.h;
transform = "{1, 0, 0, 1, -37, 0}";
},
{
name = _shoulder.n;
transform = "{1, 0, 0, 1, 6, 0}";
}
);
layerId = "0B2E441B-685E-400D-9B9B-E078DEED62EF";
width = 560;
},
{
associatedMasterId = "0B2E441B-685E-400D-9B9B-E078DEED62EF";
layerId = "D8BCD29D-2EC0-41B9-85E4-32E264350C95";
name = "Sep 11 17, 19:08";
paths = (
{
closed = 1;
nodes = (
"120 0 LINE",
"120 739 LINE",
"100 739 LINE",
"100 0 LINE"
);
},
{
closed = 1;
nodes = (
"478 0 LINE",
"478 338 LINE SMOOTH",
"478 429 OFFCURVE",
"410 490 OFFCURVE",
"308 490 CURVE SMOOTH",
"238 490 OFFCURVE",
"170 462 OFFCURVE",
"112 407 CURVE",
"112 391 LINE",
"173 444 OFFCURVE",
"239 471 OFFCURVE",
"303 471 CURVE SMOOTH",
"396 471 OFFCURVE",
"458 414 OFFCURVE",
"458 328 CURVE SMOOTH",
"458 0 LINE"
);
}
);
width = 541;
}
);
note = h;
unicode = 0068;
},
{
glyphname = idotless;
lastChange = "2017-09-16 13:30:36 +0000";
layers = (
{
anchors = (
{
name = bottom;
position = "{128, 0}";
},
{
name = ogonek;
position = "{150, 10}";
},
{
name = top;
position = "{128, 482}";
}
);
layerId = "F333AEC5-BB61-4D5E-9EDD-6124322D28F2";
paths = (
{
closed = 1;
nodes = (
"168 0 LINE",
"168 482 LINE",
"88 482 LINE",
"88 0 LINE"
);
}
);
width = 256;
},
{
anchors = (
{
name = bottom;
position = "{157, 0}";
},
{
name = ogonek;
position = "{190, 10}";
},
{
name = top;
position = "{157, 490}";
}
);
layerId = "51C2DFEF-3776-4D13-9284-96485B799B57";
paths = (
{
closed = 1;
nodes = (
"243 0 LINE",
"243 490 LINE",
"70 490 LINE",
"70 0 LINE"
);
}
);
width = 313;
},
{
anchors = (
{
name = bottom;
position = "{113, 0}";
},
{
name = ogonek;
position = "{116, 10}";
},
{
name = top;
position = "{113, 480}";
}
);
layerId = "0B2E441B-685E-400D-9B9B-E078DEED62EF";
paths = (
{
closed = 1;
nodes = (
"123 0 LINE",
"123 480 LINE",
"103 480 LINE",
"103 0 LINE"
);
}
);
width = 226;
}
);
note = dotlessi;
unicode = 0131;
},
{
glyphname = jdotless;
lastChange = "2017-09-16 15:52:25 +0000";
layers = (
{
anchors = (
{
name = bottom;
position = "{128, 0}";
},
{
name = top;
position = "{128, 482}";
}
);
layerId = "F333AEC5-BB61-4D5E-9EDD-6124322D28F2";
paths = (
{
closed = 1;
nodes = (
"119 -185 OFFCURVE",
"168 -117 OFFCURVE",
"168 -23 CURVE SMOOTH",
"168 482 LINE",
"88 482 LINE",
"88 -35 LINE SMOOTH",
"88 -97 OFFCURVE",
"58 -145 OFFCURVE",
"-2 -179 CURVE",
"24 -227 LINE"
);
}
);
width = 256;
},
{
anchors = (
{
name = bottom;
position = "{145, 0}";
},
{
name = top;
position = "{156, 490}";
}
);
layerId = "51C2DFEF-3776-4D13-9284-96485B799B57";
paths = (
{
closed = 1;
nodes = (
"163 -170 OFFCURVE",
"242 -67 OFFCURVE",
"242 57 CURVE SMOOTH",
"242 490 LINE",
"69 490 LINE",
"69 45 LINE SMOOTH",
"69 -20 OFFCURVE",
"26 -84 OFFCURVE",
"-39 -115 CURVE",
"14 -227 LINE"
);
}
);
width = 312;
},
{
anchors = (
{
name = bottom;
position = "{114, 0}";
},
{
name = top;
position = "{114, 480}";
}
);
layerId = "0B2E441B-685E-400D-9B9B-E078DEED62EF";
paths = (
{
closed = 1;
nodes = (
"82 -189 OFFCURVE",
"124 -126 OFFCURVE",
"124 -58 CURVE SMOOTH",
"124 480 LINE",
"104 480 LINE",
"104 -65 LINE SMOOTH",
"104 -120 OFFCURVE",
"67 -176 OFFCURVE",
"11 -204 CURVE",
"18 -217 LINE"
);
}
);
width = 227;
}
);
note = uni0237;
unicode = 0237;
},
{
glyphname = l;
lastChange = "2017-09-16 15:53:20 +0000";
layers = (
{
anchors = (
{
name = "#periodcentered";
position = "{269, 353}";
},
{
name = bottom;
position = "{168, 0}";
},
{
name = center;
position = "{147, 412}";
},
{
name = top;
position = "{125, 739}";
},
{
name = topright;
position = "{255, 482}";
}
);
layerId = "F333AEC5-BB61-4D5E-9EDD-6124322D28F2";
paths = (
{
closed = 1;
nodes = (
"230 -6 OFFCURVE",
"258 2 OFFCURVE",
"278 17 CURVE",
"263 70 LINE",
"246 61 OFFCURVE",
"231 57 OFFCURVE",
"217 57 CURVE SMOOTH",
"185 57 OFFCURVE",
"164 82 OFFCURVE",
"164 118 CURVE SMOOTH",
"164 739 LINE",
"84 739 LINE",
"84 108 LINE SMOOTH",
"84 40 OFFCURVE",
"130 -6 OFFCURVE",
"199 -6 CURVE SMOOTH"
);
}
);
width = 289;
},
{
anchors = (
{
name = "#periodcentered";
position = "{319, 353}";
},
{
name = bottom;
position = "{190, 0}";
},
{
name = center;
position = "{152, 397}";
},
{
name = top;
position = "{144, 739}";
},
{
name = topright;
position = "{329, 490}";
}
);
layerId = "51C2DFEF-3776-4D13-9284-96485B799B57";
paths = (
{
closed = 1;
nodes = (
"300 -8 OFFCURVE",
"333 0 OFFCURVE",
"377 21 CURVE",
"350 141 LINE",
"332 134 OFFCURVE",
"312 130 OFFCURVE",
"297 130 CURVE SMOOTH",
"258 130 OFFCURVE",
"232 159 OFFCURVE",
"232 201 CURVE SMOOTH",
"232 739 LINE",
"59 739 LINE",
"59 182 LINE SMOOTH",
"59 65 OFFCURVE",
"136 -8 OFFCURVE",
"258 -8 CURVE SMOOTH"
);
}
);
width = 379;
},
{
anchors = (
{
name = "#periodcentered";
position = "{199, 353}";
},
{
name = bottom;
position = "{124, 0}";
},
{
name = center;
position = "{124, 396}";
},
{
name = top;
position = "{111, 739}";
},
{
name = topright;
position = "{188, 480}";
}
);
layerId = "0B2E441B-685E-400D-9B9B-E078DEED62EF";
paths = (
{
closed = 1;
nodes = (
"192 -2 OFFCURVE",
"213 5 OFFCURVE",
"227 16 CURVE",
"221 32 LINE",
"209 23 OFFCURVE",
"193 18 OFFCURVE",
"177 18 CURVE SMOOTH",
"143 18 OFFCURVE",
"120 42 OFFCURVE",
"120 77 CURVE SMOOTH",
"120 739 LINE",
"101 739 LINE",
"101 73 LINE SMOOTH",
"101 28 OFFCURVE",
"129 -2 OFFCURVE",
"171 -2 CURVE SMOOTH"
);
}
);
width = 248;
}
);
note = l;
unicode = 006C;
},
{
glyphname = n;
lastChange = "2017-09-16 15:33:54 +0000";
layers = (
{
anchors = (
{
name = bottom;
position = "{291, 0}";
},
{
name = top;
position = "{291, 482}";
}
);
components = (
{
name = _stem.n;
},
{
name = _shoulder.n;
transform = "{1, 0, 0, 1, 90, 0}";
}
);
layerId = "F333AEC5-BB61-4D5E-9EDD-6124322D28F2";
width = 581;
},
{
anchors = (
{
name = bottom;
position = "{312, 0}";
},
{
name = top;
position = "{312, 490}";
}
);
components = (
{
name = _stem.n;
transform = "{1, 0, 0, 1, -10, 0}";
},
{
name = _shoulder.n;
transform = "{1, 0, 0, 1, 145, 0}";
}
);
layerId = "51C2DFEF-3776-4D13-9284-96485B799B57";
width = 624;
},
{
anchors = (
{
name = bottom;
position = "{280, 0}";
},
{
name = top;
position = "{280, 480}";
}
);
components = (
{
name = _stem.n;
transform = "{1, 0, 0, 1, 3, 0}";
},
{
name = _shoulder.n;
transform = "{1, 0, 0, 1, 6, 0}";
}
);
layerId = "0B2E441B-685E-400D-9B9B-E078DEED62EF";
width = 560;
},
{
associatedMasterId = "0B2E441B-685E-400D-9B9B-E078DEED62EF";
layerId = "C61958B6-84F7-4994-9D37-EADF52FA5068";
name = "Sep 11 17, 18:57";
paths = (
{
closed = 1;
nodes = (
"482 0 LINE",
"482 338 LINE SMOOTH",
"482 429 OFFCURVE",
"414 490 OFFCURVE",
"312 490 CURVE SMOOTH",
"242 490 OFFCURVE",
"174 462 OFFCURVE",
"116 407 CURVE",
"116 391 LINE",
"177 444 OFFCURVE",
"243 471 OFFCURVE",
"307 471 CURVE SMOOTH",
"400 471 OFFCURVE",
"462 414 OFFCURVE",
"462 328 CURVE SMOOTH",
"462 0 LINE"
);
},
{
closed = 1;
nodes = (
"120 0 LINE",
"120 404 LINE",
"116 480 LINE",
"100 480 LINE",
"100 0 LINE"
);
}
);
width = 574;
}
);
note = n;
unicode = 006E;
},
{
glyphname = o;
lastChange = "2017-09-16 15:54:32 +0000";
layers = (
{
anchors = (
{
name = "#exit";
position = "{474, 236}";
},
{
name = bottom;
position = "{284, 0}";
},
{
name = center;
position = "{284, 241}";
},
{
name = ogonek;
position = "{373, 10}";
},
{
name = top;
position = "{284, 482}";
},
{
name = topright;
position = "{458, 482}";
}
);
background = {
components = (
{
name = _stem.d;
transform = "{1, 0, 0, 1, 298, 0}";
},
{
name = _bowl.d;
transform = "{1, 0, 0, 1, -20, 0}";
}
);
};
layerId = "F333AEC5-BB61-4D5E-9EDD-6124322D28F2";
paths = (
{
closed = 1;
nodes = (
"419 -10 OFFCURVE",
"515 93 OFFCURVE",
"515 247 CURVE SMOOTH",
"515 396 OFFCURVE",
"426 492 OFFCURVE",
"289 492 CURVE SMOOTH",
"147 492 OFFCURVE",
"52 390 OFFCURVE",
"52 236 CURVE SMOOTH",
"52 87 OFFCURVE",
"140 -10 OFFCURVE",
"277 -10 CURVE SMOOTH"
);
},
{
closed = 1;
nodes = (
"195 60 OFFCURVE",
"132 135 OFFCURVE",
"132 246 CURVE SMOOTH",
"132 353 OFFCURVE",
"189 422 OFFCURVE",
"278 422 CURVE SMOOTH",
"371 422 OFFCURVE",
"435 346 OFFCURVE",
"435 236 CURVE SMOOTH",
"435 130 OFFCURVE",
"377 60 OFFCURVE",
"288 60 CURVE SMOOTH"
);
}
);
width = 567;
},
{
anchors = (
{
name = "#exit";
position = "{474, 236}";
},
{
name = bottom;
position = "{294, 0}";
},
{
name = center;
position = "{294, 245}";
},
{
name = ogonek;
position = "{311, 10}";
},
{
name = top;
position = "{294, 490}";
},
{
name = topright;
position = "{567, 490}";
}
);
layerId = "51C2DFEF-3776-4D13-9284-96485B799B57";
paths = (
{
closed = 1;
nodes = (
"442 -10 OFFCURVE",
"558 101 OFFCURVE",
"558 254 CURVE SMOOTH",
"558 399 OFFCURVE",
"454 500 OFFCURVE",
"303 500 CURVE SMOOTH",
"145 500 OFFCURVE",
"29 389 OFFCURVE",
"29 236 CURVE SMOOTH",
"29 91 OFFCURVE",
"133 -10 OFFCURVE",
"284 -10 CURVE SMOOTH"
);
},
{
closed = 1;
nodes = (
"243 134 OFFCURVE",
"205 182 OFFCURVE",
"205 249 CURVE SMOOTH",
"205 313 OFFCURVE",
"239 356 OFFCURVE",
"291 356 CURVE SMOOTH",
"344 356 OFFCURVE",
"382 309 OFFCURVE",
"382 242 CURVE SMOOTH",
"382 178 OFFCURVE",
"347 134 OFFCURVE",
"296 134 CURVE SMOOTH"
);
}
);
width = 587;
},
{
anchors = (
{
name = "#exit";
position = "{474, 236}";
},
{
name = bottom;
position = "{278, 0}";
},
{
name = center;
position = "{278, 240}";
},
{
name = ogonek;
position = "{289, 10}";
},
{
name = top;
position = "{278, 480}";
},
{
name = topright;
position = "{535, 480}";
}
);
layerId = "0B2E441B-685E-400D-9B9B-E078DEED62EF";
paths = (
{
closed = 1;
nodes = (
"402 -10 OFFCURVE",
"486 90 OFFCURVE",
"486 239 CURVE SMOOTH",
"486 387 OFFCURVE",
"403 486 OFFCURVE",
"278 486 CURVE SMOOTH",
"153 486 OFFCURVE",
"69 386 OFFCURVE",
"69 237 CURVE SMOOTH",
"69 89 OFFCURVE",
"152 -10 OFFCURVE",
"277 -10 CURVE SMOOTH"
);
},
{
closed = 1;
nodes = (
"166 10 OFFCURVE",
"90 102 OFFCURVE",
"90 241 CURVE SMOOTH",
"90 377 OFFCURVE",
"163 466 OFFCURVE",
"275 466 CURVE SMOOTH",
"389 466 OFFCURVE",
"465 374 OFFCURVE",
"465 235 CURVE SMOOTH",
"465 99 OFFCURVE",
"392 10 OFFCURVE",
"280 10 CURVE SMOOTH"
);
}
);
width = 555;
}
);
note = o;
rightMetricsKey = "=|";
unicode = 006F;
},
{
glyphname = r;
lastChange = "2017-09-16 15:58:27 +0000";
layers = (
{
anchors = (
{
name = bottom;
position = "{127, 0}";
},
{
name = top;
position = "{232, 482}";
}
);
layerId = "F333AEC5-BB61-4D5E-9EDD-6124322D28F2";
paths = (
{
closed = 1;
nodes = (
"168 0 LINE",
"168 370 LINE",
"154 482 LINE",
"88 482 LINE",
"88 0 LINE"
);
},
{
closed = 1;
nodes = (
"179 356 OFFCURVE",
"244 409 OFFCURVE",
"303 409 CURVE SMOOTH",
"320 409 OFFCURVE",
"345 404 OFFCURVE",
"355 400 CURVE",
"372 477 LINE",
"359 483 OFFCURVE",
"330 487 OFFCURVE",
"311 487 CURVE SMOOTH",
"247 487 OFFCURVE",
"184 443 OFFCURVE",
"150 374 CURVE",
"150 283 LINE"
);
}
);
width = 382;
},
{
anchors = (
{
name = bottom;
position = "{127, 0}";
},
{
name = top;
position = "{212, 482}";
}
);
associatedMasterId = "F333AEC5-BB61-4D5E-9EDD-6124322D28F2";
layerId = "198C3889-C046-4B23-B5BC-3ACCF485BAE2";
name = "Aug 11 17, 19:31";
paths = (
{
closed = 1;
nodes = (
"168 0 LINE",
"168 370 LINE",
"154 482 LINE",
"88 482 LINE",
"88 0 LINE"
);
},
{
closed = 1;
nodes = (
"182 381 OFFCURVE",
"238 419 OFFCURVE",
"293 419 CURVE SMOOTH",
"315 419 OFFCURVE",
"345 413 OFFCURVE",
"365 405 CURVE",
"382 480 LINE",
"362 487 OFFCURVE",
"329 492 OFFCURVE",
"304 492 CURVE SMOOTH",
"242 492 OFFCURVE",
"185 461 OFFCURVE",
"150 399 CURVE",
"150 313 LINE"
);
}
);
width = 394;
},
{
anchors = (
{
name = bottom;
position = "{157, 0}";
},
{
name = top;
position = "{234, 490}";
}
);
layerId = "51C2DFEF-3776-4D13-9284-96485B799B57";
paths = (
{
closed = 1;
nodes = (
"243 0 LINE",
"243 349 LINE",
"215 490 LINE",
"70 490 LINE",
"70 0 LINE"
);
},
{
closed = 1;
nodes = (
"238 304 OFFCURVE",
"297 345 OFFCURVE",
"356 345 CURVE SMOOTH",
"379 345 OFFCURVE",
"410 338 OFFCURVE",
"432 328 CURVE",
"459 477 LINE",
"433 491 OFFCURVE",
"402 497 OFFCURVE",
"377 497 CURVE SMOOTH",
"306 497 OFFCURVE",
"242 451 OFFCURVE",
"212 377 CURVE",
"212 244 LINE"
);
}
);
width = 464;
},
{
anchors = (
{
name = bottom;
position = "{112, 0}";
},
{
name = top;
position = "{166, 480}";
}
);
layerId = "0B2E441B-685E-400D-9B9B-E078DEED62EF";
paths = (
{
closed = 1;
nodes = (
"122 0 LINE",
"122 378 LINE",
"118 472 LINE",
"102 472 LINE",
"102 0 LINE"
);
},
{
closed = 1;
nodes = (
"149 422 OFFCURVE",
"199 460 OFFCURVE",
"254 460 CURVE SMOOTH",
"268 460 OFFCURVE",
"286 457 OFFCURVE",
"300 451 CURVE",
"306 470 LINE",
"292 476 OFFCURVE",
"274 480 OFFCURVE",
"256 480 CURVE SMOOTH",
"198 480 OFFCURVE",
"147 443 OFFCURVE",
"114 376 CURVE",
"114 351 LINE"
);
}
);
width = 326;
}
);
note = r;
unicode = 0072;
},
{
glyphname = s;
lastChange = "2017-09-16 16:15:32 +0000";
layers = (
{
anchors = (
{
name = bottom;
position = "{240, 0}";
},
{
name = top;
position = "{235, 482}";
}
);
layerId = "F333AEC5-BB61-4D5E-9EDD-6124322D28F2";
paths = (
{
closed = 1;
nodes = (
"349 -10 OFFCURVE",
"425 48 OFFCURVE",
"425 137 CURVE SMOOTH",
"425 312 OFFCURVE",
"137 251 OFFCURVE",
"137 358 CURVE SMOOTH",
"137 399 OFFCURVE",
"181 424 OFFCURVE",
"253 424 CURVE SMOOTH",
"287 424 OFFCURVE",
"315 419 OFFCURVE",
"379 401 CURVE",
"398 466 LINE",
"357 483 OFFCURVE",
"307 492 OFFCURVE",
"259 492 CURVE SMOOTH",
"140 492 OFFCURVE",
"57 432 OFFCURVE",
"57 346 CURVE SMOOTH",
"57 184 OFFCURVE",
"345 244 OFFCURVE",
"345 127 CURVE SMOOTH",
"345 84 OFFCURVE",
"306 58 OFFCURVE",
"239 58 CURVE SMOOTH",
"189 58 OFFCURVE",
"127 72 OFFCURVE",
"69 95 CURVE",
"50 28 LINE",
"106 4 OFFCURVE",
"174 -10 OFFCURVE",
"232 -10 CURVE SMOOTH"
);
}
);
width = 469;
},
{
associatedMasterId = "F333AEC5-BB61-4D5E-9EDD-6124322D28F2";
layerId = "8AF66680-1C48-45CA-BDE5-584DAE6DFAE0";
name = "Aug 3 17, 22:25";
paths = (
{
closed = 1;
nodes = (
"126 492 OFFCURVE",
"47 434 OFFCURVE",
"47 342 CURVE SMOOTH",
"47 168 OFFCURVE",
"327 237 OFFCURVE",
"327 123 CURVE SMOOTH",
"327 82 OFFCURVE",
"291 60 OFFCURVE",
"230 60 CURVE SMOOTH",
"185 60 OFFCURVE",
"132 72 OFFCURVE",
"91 89 CURVE",
"74 14 LINE",
"115 0 OFFCURVE",
"166 -10 OFFCURVE",
"216 -10 CURVE SMOOTH",
"334 -10 OFFCURVE",
"410 46 OFFCURVE",
"410 137 CURVE SMOOTH",
"410 309 OFFCURVE",
"135 233 OFFCURVE",
"135 355 CURVE SMOOTH",
"135 401 OFFCURVE",
"175 422 OFFCURVE",
"236 422 CURVE SMOOTH",
"284 422 OFFCURVE",
"350 409 OFFCURVE",
"405 384 CURVE",
"422 459 LINE",
"369 479 OFFCURVE",
"305 492 OFFCURVE",
"247 492 CURVE SMOOTH"
);
}
);
width = 466;
},
{
anchors = (
{
name = bottom;
position = "{254, 0}";
},
{
name = top;
position = "{254, 490}";
}
);
layerId = "51C2DFEF-3776-4D13-9284-96485B799B57";
paths = (
{
closed = 1;
nodes = (
"389 -10 OFFCURVE",
"474 51 OFFCURVE",
"474 157 CURVE SMOOTH",
"474 349 OFFCURVE",
"217 292 OFFCURVE",
"217 342 CURVE SMOOTH",
"217 357 OFFCURVE",
"239 365 OFFCURVE",
"280 365 CURVE SMOOTH",
"317 365 OFFCURVE",
"372 357 OFFCURVE",
"418 346 CURVE",
"449 476 LINE",
"412 491 OFFCURVE",
"349 500 OFFCURVE",
"289 500 CURVE SMOOTH",
"136 500 OFFCURVE",
"43 434 OFFCURVE",
"43 325 CURVE SMOOTH",
"43 144 OFFCURVE",
"300 201 OFFCURVE",
"300 147 CURVE SMOOTH",
"300 130 OFFCURVE",
"284 123 OFFCURVE",
"246 123 CURVE SMOOTH",
"195 123 OFFCURVE",
"128 135 OFFCURVE",
"76 154 CURVE",
"44 25 LINE",
"101 3 OFFCURVE",
"174 -10 OFFCURVE",
"241 -10 CURVE SMOOTH"
);
}
);
width = 508;
},
{
anchors = (
{
name = bottom;
position = "{227, 0}";
},
{
name = top;
position = "{227, 480}";
}
);
layerId = "0B2E441B-685E-400D-9B9B-E078DEED62EF";
paths = (
{
closed = 1;
nodes = (
"334 -10 OFFCURVE",
"399 33 OFFCURVE",
"399 115 CURVE SMOOTH",
"399 298 OFFCURVE",
"84 209 OFFCURVE",
"84 358 CURVE SMOOTH",
"84 421 OFFCURVE",
"140 466 OFFCURVE",
"227 466 CURVE SMOOTH",
"274 466 OFFCURVE",
"325 453 OFFCURVE",
"368 431 CURVE",
"374 449 LINE",
"335 473 OFFCURVE",
"282 486 OFFCURVE",
"231 486 CURVE SMOOTH",
"129 486 OFFCURVE",
"63 432 OFFCURVE",
"63 356 CURVE SMOOTH",
"63 189 OFFCURVE",
"379 274 OFFCURVE",
"379 113 CURVE SMOOTH",
"379 45 OFFCURVE",
"322 10 OFFCURVE",
"233 10 CURVE SMOOTH",
"177 10 OFFCURVE",
"118 26 OFFCURVE",
"62 57 CURVE",
"56 38 LINE",
"110 7 OFFCURVE",
"172 -10 OFFCURVE",
"231 -10 CURVE SMOOTH"
);
}
);
width = 453;
}
);
note = s;
unicode = 0073;
},
{
glyphname = germandbls;
lastChange = "2017-09-10 18:11:30 +0000";
layers = (
{
layerId = "F333AEC5-BB61-4D5E-9EDD-6124322D28F2";
paths = (
{
closed = 1;
nodes = (
"483 -10 OFFCURVE",
"563 58 OFFCURVE",
"563 154 CURVE SMOOTH",
"563 302 OFFCURVE",
"373 304 OFFCURVE",
"373 387 CURVE SMOOTH",
"373 451 OFFCURVE",
"487 469 OFFCURVE",
"487 582 CURVE SMOOTH",
"487 679 OFFCURVE",
"404 749 OFFCURVE",
"290 749 CURVE SMOOTH",
"167 749 OFFCURVE",
"88 666 OFFCURVE",
"88 539 CURVE SMOOTH",
"88 0 LINE",
"168 0 LINE",
"168 548 LINE SMOOTH",
"168 633 OFFCURVE",
"208 679 OFFCURVE",
"280 679 CURVE SMOOTH",
"353 679 OFFCURVE",
"407 633 OFFCURVE",
"407 572 CURVE SMOOTH",
"407 483 OFFCURVE",
"294 468 OFFCURVE",
"294 374 CURVE SMOOTH",
"294 253 OFFCURVE",
"483 250 OFFCURVE",
"483 141 CURVE SMOOTH",
"483 94 OFFCURVE",
"439 60 OFFCURVE",
"377 60 CURVE SMOOTH",
"341 60 OFFCURVE",
"295 72 OFFCURVE",
"251 93 CURVE",
"232 26 LINE",
"273 3 OFFCURVE",
"323 -10 OFFCURVE",
"371 -10 CURVE SMOOTH"
);
}
);
width = 596;
},
{
layerId = "51C2DFEF-3776-4D13-9284-96485B799B57";
width = 600;
},
{
layerId = "0B2E441B-685E-400D-9B9B-E078DEED62EF";
width = 600;
}
);
unicode = 00DF;
},
{
glyphname = t;
lastChange = "2017-09-16 15:59:38 +0000";
layers = (
{
anchors = (
{
name = bottom;
position = "{206, 5}";
},
{
name = center;
position = "{181, 246}";
},
{
name = top;
position = "{134, 621}";
},
{
name = topright;
position = "{291, 482}";
}
);
layerId = "F333AEC5-BB61-4D5E-9EDD-6124322D28F2";
paths = (
{
closed = 1;
nodes = (
"265 -5 OFFCURVE",
"300 3 OFFCURVE",
"325 17 CURVE",
"311 73 LINE",
"294 65 OFFCURVE",
"271 60 OFFCURVE",
"252 60 CURVE SMOOTH",
"207 60 OFFCURVE",
"177 92 OFFCURVE",
"177 140 CURVE SMOOTH",
"177 621 LINE",
"97 621 LINE",
"97 129 LINE SMOOTH",
"97 49 OFFCURVE",
"151 -5 OFFCURVE",
"233 -5 CURVE SMOOTH"
);
},
{
closed = 1;
nodes = (
"324 415 LINE",
"324 482 LINE",
"32 482 LINE",
"32 415 LINE"
);
}
);
width = 379;
},
{
associatedMasterId = "F333AEC5-BB61-4D5E-9EDD-6124322D28F2";
layerId = "8DD4D7B4-764D-4C4A-81DC-EA5BCD364777";
name = "Aug 3 17, 20:24";
paths = (
{
closed = 1;
nodes = (
"269 -10 OFFCURVE",
"312 -2 OFFCURVE",
"342 12 CURVE",
"331 69 LINE",
"312 60 OFFCURVE",
"284 55 OFFCURVE",
"261 55 CURVE SMOOTH",
"211 55 OFFCURVE",
"177 79 OFFCURVE",
"177 145 CURVE SMOOTH",
"177 621 LINE",
"97 621 LINE",
"97 134 LINE SMOOTH",
"97 36 OFFCURVE",
"153 -10 OFFCURVE",
"235 -10 CURVE SMOOTH"
);
},
{
closed = 1;
nodes = (
"324 415 LINE",
"324 482 LINE",
"32 482 LINE",
"32 415 LINE"
);
}
);
width = 371;
},
{
anchors = (
{
name = bottom;
position = "{226, 0}";
},
{
name = center;
position = "{226, 245}";
},
{
name = top;
position = "{183, 617}";
},
{
name = topright;
position = "{341, 490}";
}
);
layerId = "51C2DFEF-3776-4D13-9284-96485B799B57";
paths = (
{
closed = 1;
nodes = (
"341 -8 OFFCURVE",
"392 3 OFFCURVE",
"424 20 CURVE",
"395 140 LINE",
"377 134 OFFCURVE",
"357 130 OFFCURVE",
"340 130 CURVE SMOOTH",
"296 130 OFFCURVE",
"266 158 OFFCURVE",
"266 201 CURVE SMOOTH",
"266 617 LINE",
"93 617 LINE",
"93 176 LINE SMOOTH",
"93 66 OFFCURVE",
"174 -8 OFFCURVE",
"295 -8 CURVE SMOOTH"
);
},
{
closed = 1;
nodes = (
"402 355 LINE",
"402 490 LINE",
"15 490 LINE",
"15 355 LINE"
);
}
);
width = 451;
},
{
anchors = (
{
name = bottom;
position = "{156, 0}";
},
{
name = center;
position = "{124, 240}";
},
{
name = top;
position = "{124, 617}";
},
{
name = topright;
position = "{202, 480}";
}
);
layerId = "0B2E441B-685E-400D-9B9B-E078DEED62EF";
paths = (
{
closed = 1;
nodes = (
"236 -3 OFFCURVE",
"258 4 OFFCURVE",
"277 19 CURVE",
"271 36 LINE",
"254 23 OFFCURVE",
"236 17 OFFCURVE",
"214 17 CURVE SMOOTH",
"167 17 OFFCURVE",
"134 47 OFFCURVE",
"134 88 CURVE SMOOTH",
"134 617 LINE",
"114 617 LINE",
"114 83 LINE SMOOTH",
"114 32 OFFCURVE",
"153 -3 OFFCURVE",
"210 -3 CURVE SMOOTH"
);
},
{
closed = 1;
nodes = (
"276 462 LINE",
"276 480 LINE",
"25 480 LINE",
"25 462 LINE"
);
}
);
width = 312;
}
);
note = t;
unicode = 0074;
},
{
glyphname = v;
lastChange = "2017-09-16 08:16:24 +0000";
layers = (
{
anchors = (
{
name = "#ytail";
position = "{235, 0}";
},
{
name = bottom;
position = "{238, 0}";
},
{
name = top;
position = "{238, 482}";
}
);
layerId = "F333AEC5-BB61-4D5E-9EDD-6124322D28F2";
paths = (
{
closed = 1;
nodes = (
"278 0 LINE",
"466 482 LINE",
"386 482 LINE",
"219 16 LINE",
"263 16 LINE",
"99 482 LINE",
"10 482 LINE",
"200 0 LINE"
);
}
);
width = 476;
},
{
anchors = (
{
name = "#ytail";
position = "{275, 0}";
},
{
name = bottom;
position = "{285, 0}";
},
{
name = top;
position = "{285, 490}";
}
);
layerId = "51C2DFEF-3776-4D13-9284-96485B799B57";
paths = (
{
closed = 1;
nodes = (
"379 0 LINE",
"573 490 LINE",
"395 490 LINE",
"281 124 LINE",
"298 124 LINE",
"180 490 LINE",
"-3 490 LINE",
"191 0 LINE"
);
}
);
width = 570;
},
{
anchors = (
{
name = "#ytail";
position = "{236, 0}";
},
{
name = bottom;
position = "{235, 0}";
},
{
name = top;
position = "{235, 480}";
}
);
layerId = "0B2E441B-685E-400D-9B9B-E078DEED62EF";
paths = (
{
closed = 1;
nodes = (
"245 0 LINE",
"439 480 LINE",
"417 480 LINE",
"231 14 LINE",
"241 14 LINE",
"53 480 LINE",
"30 480 LINE",
"227 0 LINE"
);
}
);
width = 469;
}
);
note = v;
unicode = 0076;
},
{
glyphname = w;
lastChange = "2017-09-16 15:24:41 +0000";
layers = (
{
anchors = (
{
name = bottom;
position = "{400, 0}";
},
{
name = top;
position = "{400, 482}";
}
);
layerId = "F333AEC5-BB61-4D5E-9EDD-6124322D28F2";
paths = (
{
closed = 1;
nodes = (
"270 0 LINE",
"416 442 LINE",
"383 442 LINE",
"525 0 LINE",
"606 0 LINE",
"782 482 LINE",
"702 482 LINE",
"553 35 LINE",
"586 35 LINE",
"451 482 LINE",
"360 482 LINE",
"219 35 LINE",
"251 35 LINE",
"109 482 LINE",
"18 482 LINE",
"194 0 LINE"
);
}
);
width = 800;
},
{
anchors = (
{
name = bottom;
position = "{449, 0}";
},
{
name = top;
position = "{449, 490}";
}
);
layerId = "51C2DFEF-3776-4D13-9284-96485B799B57";
paths = (
{
closed = 1;
nodes = (
"356 0 LINE",
"459 337 LINE",
"430 337 LINE",
"550 0 LINE",
"733 0 LINE",
"897 490 LINE",
"734 490 LINE",
"635 96 LINE",
"667 96 LINE",
"540 490 LINE",
"372 490 LINE",
"253 96 LINE",
"290 96 LINE",
"177 490 LINE",
"-1 490 LINE",
"173 0 LINE"
);
}
);
width = 898;
},
{
anchors = (
{
name = bottom;
position = "{384, 0}";
},
{
name = top;
position = "{384, 480}";
}
);
layerId = "0B2E441B-685E-400D-9B9B-E078DEED62EF";
paths = (
{
closed = 1;
nodes = (
"222 0 LINE",
"385 460 LINE",
"379 460 LINE",
"548 0 LINE",
"562 0 LINE",
"733 480 LINE",
"712 480 LINE",
"552 25 LINE",
"560 25 LINE",
"394 480 LINE",
"371 480 LINE",
"212 25 LINE",
"218 25 LINE",
"56 480 LINE",
"33 480 LINE",
"207 0 LINE"
);
}
);
width = 767;
}
);
note = w;
unicode = 0077;
},
{
glyphname = x;
lastChange = "2017-09-16 16:11:50 +0000";
layers = (
{
anchors = (
{
name = bottom;
position = "{240, 0}";
},
{
name = top;
position = "{240, 482}";
}
);
layerId = "F333AEC5-BB61-4D5E-9EDD-6124322D28F2";
paths = (
{
closed = 1;
nodes = (
"111 0 LINE",
"261 214 LINE",
"464 482 LINE",
"373 482 LINE",
"220 264 LINE",
"20 0 LINE"
);
},
{
closed = 1;
nodes = (
"456 0 LINE",
"259 272 LINE",
"113 482 LINE",
"18 482 LINE",
"214 211 LINE",
"361 0 LINE"
);
}
);
width = 480;
},
{
anchors = (
{
name = bottom;
position = "{270, 0}";
},
{
name = top;
position = "{270, 490}";
}
);
layerId = "51C2DFEF-3776-4D13-9284-96485B799B57";
paths = (
{
closed = 1;
nodes = (
"180 0 LINE",
"317 193 LINE",
"543 490 LINE",
"365 490 LINE",
"217 280 LINE",
"2 0 LINE"
);
},
{
closed = 1;
nodes = (
"538 0 LINE",
"315 292 LINE",
"185 490 LINE",
"-4 490 LINE",
"210 199 LINE",
"349 0 LINE"
);
}
);
width = 539;
},
{
anchors = (
{
name = bottom;
position = "{213, 0}";
},
{
name = top;
position = "{213, 480}";
}
);
layerId = "0B2E441B-685E-400D-9B9B-E078DEED62EF";
paths = (
{
closed = 1;
nodes = (
"57 0 LINE",
"218 230 LINE",
"393 480 LINE",
"370 480 LINE",
"207 242 LINE",
"34 0 LINE"
);
},
{
closed = 1;
nodes = (
"384 0 LINE",
"218 243 LINE",
"58 480 LINE",
"34 480 LINE",
"206 230 LINE",
"360 0 LINE"
);
}
);
width = 425;
}
);
note = x;
unicode = 0078;
},
{
glyphname = z;
lastChange = "2017-09-16 13:30:37 +0000";
layers = (
{
anchors = (
{
name = bottom;
position = "{230, 0}";
},
{
name = top;
position = "{230, 482}";
}
);
layerId = "F333AEC5-BB61-4D5E-9EDD-6124322D28F2";
paths = (
{
closed = 1;
nodes = (
"427 0 LINE",
"427 67 LINE",
"115 67 LINE",
"127 49 LINE",
"415 433 LINE",
"415 482 LINE",
"37 482 LINE",
"37 415 LINE",
"336 415 LINE",
"324 433 LINE",
"37 49 LINE",
"37 0 LINE"
);
}
);
width = 460;
},
{
anchors = (
{
name = bottom;
position = "{270, 0}";
},
{
name = top;
position = "{270, 490}";
}
);
layerId = "51C2DFEF-3776-4D13-9284-96485B799B57";
paths = (
{
closed = 1;
nodes = (
"504 0 LINE",
"504 135 LINE",
"183 135 LINE",
"211 80 LINE",
"490 386 LINE",
"490 490 LINE",
"40 490 LINE",
"40 355 LINE",
"347 355 LINE",
"319 411 LINE",
"40 103 LINE",
"40 0 LINE"
);
}
);
width = 538;
},
{
anchors = (
{
name = bottom;
position = "{206, 0}";
},
{
name = top;
position = "{206, 480}";
}
);
layerId = "0B2E441B-685E-400D-9B9B-E078DEED62EF";
paths = (
{
closed = 1;
nodes = (
"379 0 LINE",
"379 19 LINE",
"55 19 LINE",
"58 13 LINE",
"369 464 LINE",
"369 480 LINE",
"36 480 LINE",
"36 461 LINE",
"350 461 LINE",
"347 467 LINE",
"36 15 LINE",
"36 0 LINE"
);
}
);
width = 412;
}
);
note = z;
unicode = 007A;
},
{
glyphname = ordfeminine;
lastChange = "2017-09-10 18:11:30 +0000";
layers = (
{
layerId = "F333AEC5-BB61-4D5E-9EDD-6124322D28F2";
paths = (
{
closed = 1;
nodes = (
"356 411 LINE",
"356 597 LINE SMOOTH",
"356 664 OFFCURVE",
"314 704 OFFCURVE",
"245 704 CURVE SMOOTH",
"208 704 OFFCURVE",
"167 693 OFFCURVE",
"130 673 CURVE",
"144 634 LINE",
"171 646 OFFCURVE",
"202 653 OFFCURVE",
"229 653 CURVE SMOOTH",
"275 653 OFFCURVE",
"297 633 OFFCURVE",
"297 590 CURVE SMOOTH",
"297 450 LINE",
"318 411 LINE"
);
},
{
closed = 1;
nodes = (
"273 405 OFFCURVE",
"336 455 OFFCURVE",
"344 513 CURVE",
"311 524 LINE",
"303 484 OFFCURVE",
"268 456 OFFCURVE",
"225 456 CURVE SMOOTH",
"193 456 OFFCURVE",
"172 471 OFFCURVE",
"172 494 CURVE SMOOTH",
"172 528 OFFCURVE",
"215 544 OFFCURVE",
"304 544 CURVE",
"304 587 LINE",
"178 587 OFFCURVE",
"114 554 OFFCURVE",
"114 490 CURVE SMOOTH",
"114 441 OFFCURVE",
"153 405 OFFCURVE",
"208 405 CURVE SMOOTH"
);
}
);
width = 511;
},
{
layerId = "51C2DFEF-3776-4D13-9284-96485B799B57";
width = 600;
},
{
layerId = "0B2E441B-685E-400D-9B9B-E078DEED62EF";
width = 600;
}
);
unicode = 00AA;
},
{
glyphname = ordmasculine;
lastChange = "2017-09-10 18:11:30 +0000";
layers = (
{
layerId = "F333AEC5-BB61-4D5E-9EDD-6124322D28F2";
paths = (
{
closed = 1;
nodes = (
"368 404 OFFCURVE",
"427 466 OFFCURVE",
"427 558 CURVE SMOOTH",
"427 646 OFFCURVE",
"371 704 OFFCURVE",
"287 704 CURVE SMOOTH",
"199 704 OFFCURVE",
"140 643 OFFCURVE",
"140 551 CURVE SMOOTH",
"140 463 OFFCURVE",
"196 404 OFFCURVE",
"280 404 CURVE SMOOTH"
);
},
{
closed = 1;
nodes = (
"233 456 OFFCURVE",
"198 496 OFFCURVE",
"198 557 CURVE SMOOTH",
"198 614 OFFCURVE",
"231 652 OFFCURVE",
"280 652 CURVE SMOOTH",
"333 652 OFFCURVE",
"369 612 OFFCURVE",
"369 551 CURVE SMOOTH",
"369 494 OFFCURVE",
"336 456 OFFCURVE",
"286 456 CURVE SMOOTH"
);
}
);
width = 567;
},
{
layerId = "51C2DFEF-3776-4D13-9284-96485B799B57";
width = 600;
},
{
layerId = "0B2E441B-685E-400D-9B9B-E078DEED62EF";
width = 600;
}
);
unicode = 00BA;
},
{
glyphname = pi;
lastChange = "2017-09-10 18:11:30 +0000";
layers = (
{
layerId = "F333AEC5-BB61-4D5E-9EDD-6124322D28F2";
paths = (
{
closed = 1;
nodes = (
"532 -10 OFFCURVE",
"558 -2 OFFCURVE",
"577 7 CURVE",
"563 63 LINE",
"554 59 OFFCURVE",
"542 55 OFFCURVE",
"529 55 CURVE SMOOTH",
"498 55 OFFCURVE",
"481 77 OFFCURVE",
"481 124 CURVE SMOOTH",
"481 425 LINE",
"401 425 LINE",
"401 114 LINE SMOOTH",
"401 34 OFFCURVE",
"442 -10 OFFCURVE",
"505 -10 CURVE SMOOTH"
);
},
{
closed = 1;
nodes = (
"185 0 LINE",
"185 425 LINE",
"105 425 LINE",
"105 0 LINE"
);
},
{
closed = 1;
nodes = (
"560 415 LINE",
"560 482 LINE",
"25 482 LINE",
"25 415 LINE"
);
}
);
width = 605;
},
{
layerId = "51C2DFEF-3776-4D13-9284-96485B799B57";
width = 600;
},
{
layerId = "0B2E441B-685E-400D-9B9B-E078DEED62EF";
width = 600;
}
);
unicode = 03C0;
},
{
glyphname = zero;
lastChange = "2017-09-10 18:11:30 +0000";
layers = (
{
anchors = (
{
name = slash;
position = "{319, 350}";
}
);
layerId = "F333AEC5-BB61-4D5E-9EDD-6124322D28F2";
paths = (
{
closed = 1;
nodes = (
"474 -10 OFFCURVE",
"568 125 OFFCURVE",
"568 352 CURVE SMOOTH",
"568 573 OFFCURVE",
"477 704 OFFCURVE",
"324 704 CURVE SMOOTH",
"164 704 OFFCURVE",
"69 570 OFFCURVE",
"69 342 CURVE SMOOTH",
"69 121 OFFCURVE",
"161 -10 OFFCURVE",
"316 -10 CURVE SMOOTH"
);
},
{
closed = 1;
nodes = (
"217 62 OFFCURVE",
"154 170 OFFCURVE",
"154 352 CURVE SMOOTH",
"154 528 OFFCURVE",
"215 632 OFFCURVE",
"317 632 CURVE SMOOTH",
"421 632 OFFCURVE",
"483 524 OFFCURVE",
"483 342 CURVE SMOOTH",
"483 166 OFFCURVE",
"424 62 OFFCURVE",
"323 62 CURVE SMOOTH"
);
}
);
width = 637;
},
{
layerId = "51C2DFEF-3776-4D13-9284-96485B799B57";
width = 600;
},
{
layerId = "0B2E441B-685E-400D-9B9B-E078DEED62EF";
width = 600;
}
);
note = zero;
unicode = 0030;
},
{
glyphname = one;
lastChange = "2017-09-09 08:25:19 +0000";
layers = (
{
layerId = "F333AEC5-BB61-4D5E-9EDD-6124322D28F2";
paths = (
{
closed = 1;
nodes = (
"311 55 LINE",
"311 694 LINE",
"259 694 LINE",
"39 565 LINE",
"69 508 LINE",
"256 608 LINE",
"226 635 LINE",
"226 55 LINE"
);
},
{
closed = 1;
nodes = (
"463 0 LINE",
"463 71 LINE",
"50 71 LINE",
"50 0 LINE"
);
}
);
width = 488;
},
{
layerId = "51C2DFEF-3776-4D13-9284-96485B799B57";
width = 600;
},
{
layerId = "0B2E441B-685E-400D-9B9B-E078DEED62EF";
width = 600;
}
);
note = one;
unicode = 0031;
},
{
glyphname = two;
lastChange = "2017-09-09 08:25:19 +0000";
layers = (
{
layerId = "F333AEC5-BB61-4D5E-9EDD-6124322D28F2";
paths = (
{
closed = 1;
nodes = (
"495 0 LINE",
"495 72 LINE",
"134 72 LINE",
"142 48 LINE",
"372 264 OFFCURVE",
"465 383 OFFCURVE",
"465 509 CURVE SMOOTH",
"465 631 OFFCURVE",
"385 704 OFFCURVE",
"250 704 CURVE SMOOTH",
"177 704 OFFCURVE",
"99 682 OFFCURVE",
"37 644 CURVE",
"58 586 LINE",
"112 614 OFFCURVE",
"174 631 OFFCURVE",
"227 631 CURVE SMOOTH",
"321 631 OFFCURVE",
"380 579 OFFCURVE",
"380 495 CURVE SMOOTH",
"380 397 OFFCURVE",
"301 291 OFFCURVE",
"50 55 CURVE",
"50 0 LINE"
);
}
);
width = 542;
},
{
layerId = "51C2DFEF-3776-4D13-9284-96485B799B57";
width = 600;
},
{
layerId = "0B2E441B-685E-400D-9B9B-E078DEED62EF";
width = 600;
}
);
note = two;
unicode = 0032;
},
{
glyphname = three;
lastChange = "2017-09-10 18:11:30 +0000";
layers = (
{
layerId = "F333AEC5-BB61-4D5E-9EDD-6124322D28F2";
paths = (
{
closed = 1;
nodes = (
"405 -10 OFFCURVE",
"508 68 OFFCURVE",
"508 182 CURVE SMOOTH",
"508 284 OFFCURVE",
"428 361 OFFCURVE",
"310 373 CURVE",
"310 368 LINE",
"406 371 OFFCURVE",
"471 436 OFFCURVE",
"471 527 CURVE SMOOTH",
"471 632 OFFCURVE",
"385 704 OFFCURVE",
"260 704 CURVE SMOOTH",
"192 704 OFFCURVE",
"116 682 OFFCURVE",
"55 646 CURVE",
"76 588 LINE",
"134 616 OFFCURVE",
"193 631 OFFCURVE",
"243 631 CURVE SMOOTH",
"330 631 OFFCURVE",
"386 585 OFFCURVE",
"386 514 CURVE SMOOTH",
"386 432 OFFCURVE",
"310 386 OFFCURVE",
"173 386 CURVE",
"173 318 LINE",
"330 318 OFFCURVE",
"423 265 OFFCURVE",
"423 175 CURVE SMOOTH",
"423 105 OFFCURVE",
"364 63 OFFCURVE",
"263 63 CURVE SMOOTH",
"196 63 OFFCURVE",
"125 80 OFFCURVE",
"63 112 CURVE",
"39 43 LINE",
"104 9 OFFCURVE",
"181 -10 OFFCURVE",
"255 -10 CURVE SMOOTH"
);
}
);
width = 564;
},
{
layerId = "51C2DFEF-3776-4D13-9284-96485B799B57";
width = 600;
},
{
layerId = "0B2E441B-685E-400D-9B9B-E078DEED62EF";
width = 600;
}
);
note = three;
unicode = 0033;
},
{
glyphname = four;
lastChange = "2017-09-10 18:11:30 +0000";
layers = (
{
layerId = "F333AEC5-BB61-4D5E-9EDD-6124322D28F2";
paths = (
{
closed = 1;
nodes = (
"452 -10 LINE",
"452 694 LINE",
"390 694 LINE",
"30 206 LINE",
"30 161 LINE",
"577 161 LINE",
"577 236 LINE",
"116 236 LINE",
"116 214 LINE",
"377 567 LINE",
"369 567 LINE",
"369 -10 LINE"
);
}
);
width = 609;
},
{
layerId = "51C2DFEF-3776-4D13-9284-96485B799B57";
width = 600;
},
{
layerId = "0B2E441B-685E-400D-9B9B-E078DEED62EF";
width = 600;
}
);
note = four;
unicode = 0034;
},
{
glyphname = five;
lastChange = "2017-09-10 18:11:30 +0000";
layers = (
{
layerId = "F333AEC5-BB61-4D5E-9EDD-6124322D28F2";
paths = (
{
closed = 1;
nodes = (
"409 -10 OFFCURVE",
"512 78 OFFCURVE",
"512 213 CURVE SMOOTH",
"512 348 OFFCURVE",
"419 428 OFFCURVE",
"262 428 CURVE SMOOTH",
"229 428 OFFCURVE",
"190 424 OFFCURVE",
"152 416 CURVE",
"171 389 LINE",
"182 622 LINE",
"479 622 LINE",
"479 694 LINE",
"107 694 LINE",
"90 338 LINE",
"141 349 OFFCURVE",
"196 355 OFFCURVE",
"235 355 CURVE SMOOTH",
"356 355 OFFCURVE",
"427 299 OFFCURVE",
"427 204 CURVE SMOOTH",
"427 117 OFFCURVE",
"363 63 OFFCURVE",
"261 63 CURVE SMOOTH",
"201 63 OFFCURVE",
"136 81 OFFCURVE",
"81 109 CURVE",
"57 40 LINE",
"120 7 OFFCURVE",
"184 -10 OFFCURVE",
"252 -10 CURVE SMOOTH"
);
}
);
width = 566;
},
{
layerId = "51C2DFEF-3776-4D13-9284-96485B799B57";
width = 600;
},
{
layerId = "0B2E441B-685E-400D-9B9B-E078DEED62EF";
width = 600;
}
);
note = five;
unicode = 0035;
},
{
glyphname = six;
lastChange = "2017-09-09 08:25:19 +0000";
layers = (
{
layerId = "F333AEC5-BB61-4D5E-9EDD-6124322D28F2";
paths = (
{
closed = 1;
nodes = (
"448 -10 OFFCURVE",
"541 80 OFFCURVE",
"541 213 CURVE SMOOTH",
"541 338 OFFCURVE",
"459 424 OFFCURVE",
"339 424 CURVE SMOOTH",
"238 424 OFFCURVE",
"158 364 OFFCURVE",
"112 256 CURVE",
"134 213 LINE",
"168 302 OFFCURVE",
"231 352 OFFCURVE",
"310 352 CURVE SMOOTH",
"397 352 OFFCURVE",
"456 291 OFFCURVE",
"456 199 CURVE SMOOTH",
"456 115 OFFCURVE",
"407 63 OFFCURVE",
"326 63 CURVE SMOOTH",
"217 63 OFFCURVE",
"157 159 OFFCURVE",
"157 334 CURVE SMOOTH",
"157 535 OFFCURVE",
"234 631 OFFCURVE",
"363 631 CURVE SMOOTH",
"405 631 OFFCURVE",
"463 620 OFFCURVE",
"507 604 CURVE",
"530 671 LINE",
"490 692 OFFCURVE",
"429 704 OFFCURVE",
"372 704 CURVE SMOOTH",
"183 704 OFFCURVE",
"67 567 OFFCURVE",
"67 328 CURVE SMOOTH",
"67 110 OFFCURVE",
"164 -10 OFFCURVE",
"316 -10 CURVE SMOOTH"
);
}
);
width = 599;
},
{
layerId = "51C2DFEF-3776-4D13-9284-96485B799B57";
width = 600;
},
{
layerId = "0B2E441B-685E-400D-9B9B-E078DEED62EF";
width = 600;
}
);
note = six;
unicode = 0036;
},
{
glyphname = seven;
lastChange = "2017-09-10 18:11:30 +0000";
layers = (
{
layerId = "F333AEC5-BB61-4D5E-9EDD-6124322D28F2";
paths = (
{
closed = 1;
nodes = (
"202 0 LINE",
"490 654 LINE",
"490 694 LINE",
"25 694 LINE",
"25 622 LINE",
"425 622 LINE",
"404 652 LINE",
"115 0 LINE"
);
}
);
width = 519;
},
{
layerId = "51C2DFEF-3776-4D13-9284-96485B799B57";
width = 600;
},
{
layerId = "0B2E441B-685E-400D-9B9B-E078DEED62EF";
width = 600;
}
);
note = seven;
unicode = 0037;
},
{
glyphname = eight;
lastChange = "2017-09-10 18:11:30 +0000";
layers = (
{
layerId = "F333AEC5-BB61-4D5E-9EDD-6124322D28F2";
paths = (
{
closed = 1;
nodes = (
"448 -10 OFFCURVE",
"543 63 OFFCURVE",
"543 176 CURVE SMOOTH",
"543 401 OFFCURVE",
"168 359 OFFCURVE",
"168 534 CURVE SMOOTH",
"168 595 OFFCURVE",
"215 633 OFFCURVE",
"292 633 CURVE SMOOTH",
"376 633 OFFCURVE",
"433 589 OFFCURVE",
"433 523 CURVE SMOOTH",
"433 458 OFFCURVE",
"378 402 OFFCURVE",
"297 387 CURVE",
"360 356 LINE",
"454 384 OFFCURVE",
"512 453 OFFCURVE",
"512 537 CURVE SMOOTH",
"512 637 OFFCURVE",
"429 704 OFFCURVE",
"304 704 CURVE SMOOTH",
"172 704 OFFCURVE",
"85 631 OFFCURVE",
"85 521 CURVE SMOOTH",
"85 290 OFFCURVE",
"458 344 OFFCURVE",
"458 169 CURVE SMOOTH",
"458 102 OFFCURVE",
"407 63 OFFCURVE",
"316 63 CURVE SMOOTH",
"214 63 OFFCURVE",
"146 112 OFFCURVE",
"146 185 CURVE SMOOTH",
"146 257 OFFCURVE",
"209 315 OFFCURVE",
"301 328 CURVE",
"247 361 LINE",
"135 346 OFFCURVE",
"61 271 OFFCURVE",
"61 174 CURVE SMOOTH",
"61 64 OFFCURVE",
"157 -10 OFFCURVE",
"302 -10 CURVE SMOOTH"
);
}
);
width = 601;
},
{
layerId = "51C2DFEF-3776-4D13-9284-96485B799B57";
width = 600;
},
{
layerId = "0B2E441B-685E-400D-9B9B-E078DEED62EF";
width = 600;
}
);
note = eight;
unicode = 0038;
},
{
glyphname = zero.osf;
lastChange = "2017-09-10 18:11:30 +0000";
layers = (
{
anchors = (
{
name = slash;
position = "{313, 250}";
}
);
layerId = "F333AEC5-BB61-4D5E-9EDD-6124322D28F2";
paths = (
{
closed = 1;
nodes = (
"448 -10 OFFCURVE",
"549 95 OFFCURVE",
"549 243 CURVE SMOOTH",
"549 389 OFFCURVE",
"451 492 OFFCURVE",
"312 492 CURVE SMOOTH",
"167 492 OFFCURVE",
"65 385 OFFCURVE",
"65 234 CURVE SMOOTH",
"65 91 OFFCURVE",
"164 -10 OFFCURVE",
"304 -10 CURVE SMOOTH"
);
},
{
closed = 1;
nodes = (
"214 60 OFFCURVE",
"145 136 OFFCURVE",
"145 243 CURVE SMOOTH",
"145 348 OFFCURVE",
"211 422 OFFCURVE",
"304 422 CURVE SMOOTH",
"401 422 OFFCURVE",
"469 344 OFFCURVE",
"469 234 CURVE SMOOTH",
"469 132 OFFCURVE",
"404 60 OFFCURVE",
"312 60 CURVE SMOOTH"
);
}
);
width = 614;
},
{
layerId = "51C2DFEF-3776-4D13-9284-96485B799B57";
width = 600;
},
{
layerId = "0B2E441B-685E-400D-9B9B-E078DEED62EF";
width = 600;
}
);
},
{
glyphname = one.osf;
lastChange = "2017-09-10 18:11:30 +0000";
layers = (
{
layerId = "F333AEC5-BB61-4D5E-9EDD-6124322D28F2";
paths = (
{
closed = 1;
nodes = (
"325 30 LINE",
"325 482 LINE",
"265 482 LINE",
"48 363 LINE",
"78 306 LINE",
"272 405 LINE",
"245 424 LINE",
"245 30 LINE"
);
},
{
closed = 1;
nodes = (
"475 0 LINE",
"475 70 LINE",
"72 70 LINE",
"72 0 LINE"
);
}
);
width = 507;
},
{
layerId = "51C2DFEF-3776-4D13-9284-96485B799B57";
width = 600;
},
{
layerId = "0B2E441B-685E-400D-9B9B-E078DEED62EF";
width = 600;
}
);
},
{
glyphname = two.osf;
lastChange = "2017-09-10 18:11:30 +0000";
layers = (
{
layerId = "F333AEC5-BB61-4D5E-9EDD-6124322D28F2";
paths = (
{
closed = 1;
nodes = (
"483 0 LINE",
"483 71 LINE",
"147 71 LINE",
"155 38 LINE",
"369 130 OFFCURVE",
"453 212 OFFCURVE",
"453 319 CURVE SMOOTH",
"453 423 OFFCURVE",
"374 492 OFFCURVE",
"246 492 CURVE SMOOTH",
"183 492 OFFCURVE",
"120 475 OFFCURVE",
"50 439 CURVE",
"71 384 LINE",
"133 410 OFFCURVE",
"183 422 OFFCURVE",
"227 422 CURVE SMOOTH",
"314 422 OFFCURVE",
"368 376 OFFCURVE",
"368 310 CURVE SMOOTH",
"368 230 OFFCURVE",
"282 164 OFFCURVE",
"63 55 CURVE",
"63 0 LINE"
);
}
);
width = 541;
},
{
layerId = "51C2DFEF-3776-4D13-9284-96485B799B57";
width = 600;
},
{
layerId = "0B2E441B-685E-400D-9B9B-E078DEED62EF";
width = 600;
}
);
},
{
glyphname = three.osf;
lastChange = "2017-09-10 18:11:30 +0000";
layers = (
{
layerId = "F333AEC5-BB61-4D5E-9EDD-6124322D28F2";
paths = (
{
closed = 1;
nodes = (
"366 -222 OFFCURVE",
"466 -143 OFFCURVE",
"466 -28 CURVE SMOOTH",
"466 74 OFFCURVE",
"388 149 OFFCURVE",
"270 161 CURVE",
"270 156 LINE",
"365 159 OFFCURVE",
"429 224 OFFCURVE",
"429 314 CURVE SMOOTH",
"429 419 OFFCURVE",
"341 492 OFFCURVE",
"219 492 CURVE SMOOTH",
"153 492 OFFCURVE",
"84 473 OFFCURVE",
"18 437 CURVE",
"39 382 LINE",
"100 408 OFFCURVE",
"156 422 OFFCURVE",
"201 422 CURVE SMOOTH",
"287 422 OFFCURVE",
"349 374 OFFCURVE",
"349 304 CURVE SMOOTH",
"349 227 OFFCURVE",
"268 174 OFFCURVE",
"148 174 CURVE",
"148 110 LINE",
"288 110 OFFCURVE",
"386 51 OFFCURVE",
"386 -36 CURVE SMOOTH",
"386 -105 OFFCURVE",
"323 -152 OFFCURVE",
"227 -152 CURVE SMOOTH",
"170 -152 OFFCURVE",
"109 -136 OFFCURVE",
"38 -106 CURVE",
"14 -172 LINE",
"74 -203 OFFCURVE",
"151 -222 OFFCURVE",
"220 -222 CURVE SMOOTH"
);
}
);
width = 514;
},
{
layerId = "51C2DFEF-3776-4D13-9284-96485B799B57";
width = 600;
},
{
layerId = "0B2E441B-685E-400D-9B9B-E078DEED62EF";
width = 600;
}
);
},
{
glyphname = four.osf;
lastChange = "2017-09-10 18:11:30 +0000";
layers = (
{
layerId = "F333AEC5-BB61-4D5E-9EDD-6124322D28F2";
paths = (
{
closed = 1;
nodes = (
"431 -170 LINE",
"431 482 LINE",
"367 482 LINE",
"32 51 LINE",
"32 1 LINE",
"556 1 LINE",
"556 72 LINE",
"111 72 LINE",
"111 43 LINE",
"362 367 LINE",
"351 367 LINE",
"351 -170 LINE"
);
}
);
width = 588;
},
{
layerId = "51C2DFEF-3776-4D13-9284-96485B799B57";
width = 600;
},
{
layerId = "0B2E441B-685E-400D-9B9B-E078DEED62EF";
width = 600;
}
);
},
{
glyphname = five.osf;
lastChange = "2017-09-10 18:11:30 +0000";
layers = (
{
layerId = "F333AEC5-BB61-4D5E-9EDD-6124322D28F2";
paths = (
{
closed = 1;
nodes = (
"384 -222 OFFCURVE",
"485 -135 OFFCURVE",
"485 3 CURVE SMOOTH",
"485 135 OFFCURVE",
"393 216 OFFCURVE",
"247 216 CURVE SMOOTH",
"214 216 OFFCURVE",
"177 212 OFFCURVE",
"138 204 CURVE",
"157 177 LINE",
"168 415 LINE",
"454 415 LINE",
"454 482 LINE",
"97 482 LINE",
"80 129 LINE",
"127 140 OFFCURVE",
"182 146 OFFCURVE",
"218 146 CURVE SMOOTH",
"330 146 OFFCURVE",
"405 86 OFFCURVE",
"405 -9 CURVE SMOOTH",
"405 -97 OFFCURVE",
"339 -152 OFFCURVE",
"246 -152 CURVE SMOOTH",
"194 -152 OFFCURVE",
"126 -135 OFFCURVE",
"71 -108 CURVE",
"47 -174 LINE",
"117 -206 OFFCURVE",
"168 -222 OFFCURVE",
"233 -222 CURVE SMOOTH"
);
}
);
width = 535;
},
{
layerId = "51C2DFEF-3776-4D13-9284-96485B799B57";
width = 600;
},
{
layerId = "0B2E441B-685E-400D-9B9B-E078DEED62EF";
width = 600;
}
);
},
{
glyphname = six.osf;
lastChange = "2017-09-10 18:11:30 +0000";
layers = (
{
layerId = "F333AEC5-BB61-4D5E-9EDD-6124322D28F2";
paths = (
{
closed = 1;
nodes = (
"462 -10 OFFCURVE",
"551 79 OFFCURVE",
"551 212 CURVE SMOOTH",
"551 339 OFFCURVE",
"471 424 OFFCURVE",
"354 424 CURVE SMOOTH",
"257 424 OFFCURVE",
"181 365 OFFCURVE",
"134 256 CURVE",
"156 213 LINE",
"191 304 OFFCURVE",
"251 355 OFFCURVE",
"327 355 CURVE SMOOTH",
"411 355 OFFCURVE",
"471 292 OFFCURVE",
"471 199 CURVE SMOOTH",
"471 114 OFFCURVE",
"421 60 OFFCURVE",
"335 60 CURVE SMOOTH",
"231 60 OFFCURVE",
"162 139 OFFCURVE",
"162 335 CURVE SMOOTH",
"162 526 OFFCURVE",
"227 634 OFFCURVE",
"363 634 CURVE SMOOTH",
"410 634 OFFCURVE",
"462 621 OFFCURVE",
"509 600 CURVE",
"531 665 LINE",
"489 691 OFFCURVE",
"436 704 OFFCURVE",
"379 704 CURVE SMOOTH",
"186 704 OFFCURVE",
"77 556 OFFCURVE",
"77 319 CURVE SMOOTH",
"77 94 OFFCURVE",
"175 -10 OFFCURVE",
"324 -10 CURVE SMOOTH"
);
}
);
width = 612;
},
{
layerId = "51C2DFEF-3776-4D13-9284-96485B799B57";
width = 600;
},
{
layerId = "0B2E441B-685E-400D-9B9B-E078DEED62EF";
width = 600;
}
);
},
{
glyphname = seven.osf;
lastChange = "2017-09-10 18:11:30 +0000";
layers = (
{
layerId = "F333AEC5-BB61-4D5E-9EDD-6124322D28F2";
paths = (
{
closed = 1;
nodes = (
"207 -217 LINE",
"477 447 LINE",
"477 482 LINE",
"32 482 LINE",
"32 406 LINE",
"412 406 LINE",
"396 445 LINE",
"125 -217 LINE"
);
}
);
width = 517;
},
{
layerId = "51C2DFEF-3776-4D13-9284-96485B799B57";
width = 600;
},
{
layerId = "0B2E441B-685E-400D-9B9B-E078DEED62EF";
width = 600;
}
);
},
{
glyphname = eight.osf;
lastChange = "2017-09-10 18:11:30 +0000";
layers = (
{
layerId = "F333AEC5-BB61-4D5E-9EDD-6124322D28F2";
paths = (
{
closed = 1;
nodes = (
"437 -10 OFFCURVE",
"530 64 OFFCURVE",
"530 175 CURVE SMOOTH",
"530 402 OFFCURVE",
"162 359 OFFCURVE",
"162 533 CURVE SMOOTH",
"162 595 OFFCURVE",
"212 637 OFFCURVE",
"287 637 CURVE SMOOTH",
"371 637 OFFCURVE",
"427 591 OFFCURVE",
"427 523 CURVE SMOOTH",
"427 457 OFFCURVE",
"373 402 OFFCURVE",
"291 387 CURVE",
"354 356 LINE",
"442 382 OFFCURVE",
"501 454 OFFCURVE",
"501 536 CURVE SMOOTH",
"501 637 OFFCURVE",
"419 704 OFFCURVE",
"297 704 CURVE SMOOTH",
"169 704 OFFCURVE",
"84 631 OFFCURVE",
"84 521 CURVE SMOOTH",
"84 288 OFFCURVE",
"450 346 OFFCURVE",
"450 168 CURVE SMOOTH",
"450 103 OFFCURVE",
"394 60 OFFCURVE",
"309 60 CURVE SMOOTH",
"209 60 OFFCURVE",
"143 110 OFFCURVE",
"143 186 CURVE SMOOTH",
"143 259 OFFCURVE",
"204 316 OFFCURVE",
"295 328 CURVE",
"241 361 LINE",
"134 347 OFFCURVE",
"63 272 OFFCURVE",
"63 175 CURVE SMOOTH",
"63 64 OFFCURVE",
"157 -10 OFFCURVE",
"297 -10 CURVE SMOOTH"
);
}
);
width = 589;
},
{
layerId = "51C2DFEF-3776-4D13-9284-96485B799B57";
width = 600;
},
{
layerId = "0B2E441B-685E-400D-9B9B-E078DEED62EF";
width = 600;
}
);
},
{
glyphname = asterisk;
lastChange = "2017-09-10 18:11:30 +0000";
layers = (
{
layerId = "F333AEC5-BB61-4D5E-9EDD-6124322D28F2";
paths = (
{
closed = 1;
nodes = (
"429 406 LINE",
"247 503 LINE",
"226 468 LINE",
"392 346 LINE"
);
},
{
closed = 1;
nodes = (
"247 469 LINE",
"227 503 LINE",
"43 408 LINE",
"80 348 LINE"
);
},
{
closed = 1;
nodes = (
"271 282 LINE",
"257 488 LINE",
"217 488 LINE",
"200 282 LINE"
);
},
{
closed = 1;
nodes = (
"248 505 LINE",
"82 628 LINE",
"45 568 LINE",
"227 471 LINE"
);
},
{
closed = 1;
nodes = (
"257 488 LINE",
"271 694 LINE",
"200 694 LINE",
"217 488 LINE"
);
},
{
closed = 1;
nodes = (
"429 566 LINE",
"392 627 LINE",
"225 506 LINE",
"246 471 LINE"
);
}
);
width = 474;
},
{
layerId = "51C2DFEF-3776-4D13-9284-96485B799B57";
width = 600;
},
{
layerId = "0B2E441B-685E-400D-9B9B-E078DEED62EF";
width = 600;
}
);
unicode = 002A;
},
{
glyphname = numbersign;
lastChange = "2017-09-10 18:11:30 +0000";
layers = (
{
layerId = "F333AEC5-BB61-4D5E-9EDD-6124322D28F2";
paths = (
{
closed = 1;
nodes = (
"507 0 LINE",
"507 694 LINE",
"431 694 LINE",
"431 0 LINE"
);
},
{
closed = 1;
nodes = (
"637 178 LINE",
"637 248 LINE",
"36 248 LINE",
"36 178 LINE"
);
},
{
closed = 1;
nodes = (
"245 0 LINE",
"245 694 LINE",
"169 694 LINE",
"169 0 LINE"
);
},
{
closed = 1;
nodes = (
"637 448 LINE",
"637 518 LINE",
"36 518 LINE",
"36 448 LINE"
);
}
);
width = 673;
},
{
layerId = "51C2DFEF-3776-4D13-9284-96485B799B57";
width = 600;
},
{
layerId = "0B2E441B-685E-400D-9B9B-E078DEED62EF";
width = 600;
}
);
unicode = 0023;
},
{
glyphname = slash;
lastChange = "2017-09-10 18:11:30 +0000";
layers = (
{
layerId = "F333AEC5-BB61-4D5E-9EDD-6124322D28F2";
paths = (
{
closed = 1;
nodes = (
"92 -115 LINE",
"314 735 LINE",
"234 735 LINE",
"12 -115 LINE"
);
}
);
width = 326;
},
{
layerId = "51C2DFEF-3776-4D13-9284-96485B799B57";
width = 600;
},
{
layerId = "0B2E441B-685E-400D-9B9B-E078DEED62EF";
width = 600;
}
);
unicode = 002F;
},
{
glyphname = underscore;
lastChange = "2017-09-10 18:11:30 +0000";
layers = (
{
layerId = "F333AEC5-BB61-4D5E-9EDD-6124322D28F2";
paths = (
{
closed = 1;
nodes = (
"526 0 LINE",
"526 72 LINE",
"88 72 LINE",
"88 0 LINE"
);
}
);
width = 614;
},
{
layerId = "51C2DFEF-3776-4D13-9284-96485B799B57";
width = 600;
},
{
layerId = "0B2E441B-685E-400D-9B9B-E078DEED62EF";
width = 600;
}
);
unicode = 005F;
},
{
glyphname = braceleft;
lastChange = "2017-09-10 18:11:30 +0000";
layers = (
{
layerId = "F333AEC5-BB61-4D5E-9EDD-6124322D28F2";
paths = (
{
closed = 1;
nodes = (
"342 -111 LINE",
"256 -111 OFFCURVE",
"217 -83 OFFCURVE",
"217 -25 CURVE SMOOTH",
"217 111 LINE SMOOTH",
"217 203 OFFCURVE",
"176 264 OFFCURVE",
"107 275 CURVE",
"107 276 LINE",
"171 292 OFFCURVE",
"217 359 OFFCURVE",
"217 435 CURVE SMOOTH",
"217 571 LINE SMOOTH",
"217 630 OFFCURVE",
"255 655 OFFCURVE",
"342 655 CURVE",
"342 722 LINE",
"202 722 OFFCURVE",
"142 674 OFFCURVE",
"142 561 CURVE SMOOTH",
"142 425 LINE SMOOTH",
"142 366 OFFCURVE",
"93 310 OFFCURVE",
"22 289 CURVE",
"22 263 LINE",
"97 240 OFFCURVE",
"142 178 OFFCURVE",
"142 101 CURVE SMOOTH",
"142 -35 LINE SMOOTH",
"142 -130 OFFCURVE",
"202 -171 OFFCURVE",
"342 -171 CURVE"
);
}
);
width = 374;
},
{
associatedMasterId = "F333AEC5-BB61-4D5E-9EDD-6124322D28F2";
layerId = "26302E5E-336F-4C93-8632-6CFCDE496564";
name = "Aug 6 17, 20:39";
paths = (
{
closed = 1;
nodes = (
"334 -121 LINE",
"267 -108 OFFCURVE",
"222 -54 OFFCURVE",
"222 15 CURVE SMOOTH",
"222 111 LINE SMOOTH",
"222 180 OFFCURVE",
"188 245 OFFCURVE",
"136 275 CURVE",
"136 276 LINE",
"188 306 OFFCURVE",
"222 370 OFFCURVE",
"222 435 CURVE SMOOTH",
"222 536 LINE SMOOTH",
"222 604 OFFCURVE",
"267 657 OFFCURVE",
"334 669 CURVE",
"317 746 LINE",
"212 736 OFFCURVE",
"142 652 OFFCURVE",
"142 536 CURVE SMOOTH",
"142 435 LINE SMOOTH",
"142 368 OFFCURVE",
"95 311 OFFCURVE",
"22 289 CURVE",
"22 263 LINE",
"94 241 OFFCURVE",
"142 181 OFFCURVE",
"142 111 CURVE SMOOTH",
"142 15 LINE SMOOTH",
"142 -102 OFFCURVE",
"212 -186 OFFCURVE",
"317 -196 CURVE"
);
}
);
width = 363;
},
{
layerId = "51C2DFEF-3776-4D13-9284-96485B799B57";
width = 600;
},
{
layerId = "0B2E441B-685E-400D-9B9B-E078DEED62EF";
width = 600;
}
);
unicode = 007B;
},
{
glyphname = bracketleft;
lastChange = "2017-09-10 18:11:30 +0000";
layers = (
{
layerId = "F333AEC5-BB61-4D5E-9EDD-6124322D28F2";
paths = (
{
closed = 1;
nodes = (
"333 -180 LINE",
"333 -112 LINE",
"181 -112 LINE",
"181 650 LINE",
"333 650 LINE",
"333 718 LINE",
"105 718 LINE",
"105 -180 LINE"
);
}
);
width = 366;
},
{
layerId = "51C2DFEF-3776-4D13-9284-96485B799B57";
width = 600;
},
{
layerId = "0B2E441B-685E-400D-9B9B-E078DEED62EF";
width = 600;
}
);
unicode = 005B;
},
{
glyphname = parenleft;
lastChange = "2017-09-10 18:11:30 +0000";
layers = (
{
layerId = "F333AEC5-BB61-4D5E-9EDD-6124322D28F2";
paths = (
{
closed = 1;
nodes = (
"260 -148 LINE",
"185 -14 OFFCURVE",
"142 138 OFFCURVE",
"142 269 CURVE SMOOTH",
"142 399 OFFCURVE",
"184 559 OFFCURVE",
"258 694 CURVE",
"200 725 LINE",
"107 566 OFFCURVE",
"62 421 OFFCURVE",
"62 278 CURVE SMOOTH",
"62 135 OFFCURVE",
"107 -31 OFFCURVE",
"202 -179 CURVE"
);
}
);
width = 298;
},
{
layerId = "51C2DFEF-3776-4D13-9284-96485B799B57";
width = 600;
},
{
layerId = "0B2E441B-685E-400D-9B9B-E078DEED62EF";
width = 600;
}
);
unicode = 0028;
},
{
glyphname = emdash;
lastChange = "2017-09-10 18:11:30 +0000";
layers = (
{
layerId = "F333AEC5-BB61-4D5E-9EDD-6124322D28F2";
paths = (
{
closed = 1;
nodes = (
"1088 229 LINE",
"1088 296 LINE",
"88 296 LINE",
"88 229 LINE"
);
}
);
width = 1176;
},
{
layerId = "51C2DFEF-3776-4D13-9284-96485B799B57";
width = 600;
},
{
layerId = "0B2E441B-685E-400D-9B9B-E078DEED62EF";
width = 600;
}
);
unicode = 2014;
},
{
glyphname = endash;
lastChange = "2017-09-10 18:11:30 +0000";
layers = (
{
layerId = "F333AEC5-BB61-4D5E-9EDD-6124322D28F2";
paths = (
{
closed = 1;
nodes = (
"588 229 LINE",
"588 296 LINE",
"88 296 LINE",
"88 229 LINE"
);
}
);
width = 676;
},
{
layerId = "51C2DFEF-3776-4D13-9284-96485B799B57";
width = 600;
},
{
layerId = "0B2E441B-685E-400D-9B9B-E078DEED62EF";
width = 600;
}
);
unicode = 2013;
},
{
glyphname = hyphen;
lastChange = "2017-09-10 18:11:30 +0000";
layers = (
{
layerId = "F333AEC5-BB61-4D5E-9EDD-6124322D28F2";
paths = (
{
closed = 1;
nodes = (
"378 230 LINE",
"378 297 LINE",
"88 297 LINE",
"88 230 LINE"
);
}
);
width = 466;
},
{
layerId = "51C2DFEF-3776-4D13-9284-96485B799B57";
width = 600;
},
{
layerId = "0B2E441B-685E-400D-9B9B-E078DEED62EF";
width = 600;
}
);
unicode = 002D;
},
{
glyphname = guilsinglleft;
lastChange = "2017-09-10 18:11:30 +0000";
layers = (
{
layerId = "F333AEC5-BB61-4D5E-9EDD-6124322D28F2";
paths = (
{
closed = 1;
nodes = (
"274 30 LINE",
"127 243 LINE",
"274 449 LINE",
"182 449 LINE",
"44 243 LINE",
"182 30 LINE"
);
}
);
width = 314;
},
{
layerId = "51C2DFEF-3776-4D13-9284-96485B799B57";
width = 600;
},
{
layerId = "0B2E441B-685E-400D-9B9B-E078DEED62EF";
width = 600;
}
);
unicode = 2039;
},
{
glyphname = colonsign;
lastChange = "2017-09-10 18:11:30 +0000";
layers = (
{
components = (
{
name = _stem.coloncedi;
transform = "{1, 0, 0, 1, 19, 0}";
}
);
layerId = "F333AEC5-BB61-4D5E-9EDD-6124322D28F2";
paths = (
{
closed = 1;
nodes = (
"400 26 LINE",
"376 -100 LINE",
"436 -100 LINE",
"460 26 LINE"
);
},
{
closed = 1;
nodes = (
"290 26 LINE",
"266 -100 LINE",
"326 -100 LINE",
"350 26 LINE"
);
},
{
closed = 1;
nodes = (
"427 694 LINE",
"448 814 LINE",
"388 814 LINE",
"367 694 LINE"
);
},
{
closed = 1;
nodes = (
"537 694 LINE",
"558 814 LINE",
"498 814 LINE",
"477 694 LINE"
);
}
);
width = 699;
},
{
layerId = "51C2DFEF-3776-4D13-9284-96485B799B57";
width = 600;
},
{
layerId = "0B2E441B-685E-400D-9B9B-E078DEED62EF";
width = 600;
}
);
unicode = 20A1;
},
{
glyphname = currency;
lastChange = "2017-09-10 18:11:30 +0000";
layers = (
{
layerId = "F333AEC5-BB61-4D5E-9EDD-6124322D28F2";
paths = (
{
closed = 1;
nodes = (
"457 131 OFFCURVE",
"539 215 OFFCURVE",
"539 342 CURVE SMOOTH",
"539 461 OFFCURVE",
"461 540 OFFCURVE",
"343 540 CURVE SMOOTH",
"219 540 OFFCURVE",
"137 456 OFFCURVE",
"137 331 CURVE SMOOTH",
"137 211 OFFCURVE",
"215 131 OFFCURVE",
"333 131 CURVE SMOOTH"
);
},
{
closed = 1;
nodes = (
"234 181 LINE",
"193 222 LINE",
"101 131 LINE",
"142 90 LINE"
);
},
{
closed = 1;
nodes = (
"574 131 LINE",
"482 221 LINE",
"442 181 LINE",
"534 90 LINE"
);
},
{
closed = 1;
nodes = (
"267 204 OFFCURVE",
"217 259 OFFCURVE",
"217 341 CURVE SMOOTH",
"217 417 OFFCURVE",
"263 467 OFFCURVE",
"333 467 CURVE SMOOTH",
"409 467 OFFCURVE",
"459 413 OFFCURVE",
"459 332 CURVE SMOOTH",
"459 255 OFFCURVE",
"413 204 OFFCURVE",
"343 204 CURVE SMOOTH"
);
},
{
closed = 1;
nodes = (
"234 488 LINE",
"142 580 LINE",
"101 539 LINE",
"192 448 LINE"
);
},
{
closed = 1;
nodes = (
"574 539 LINE",
"533 580 LINE",
"441 488 LINE",
"482 448 LINE"
);
}
);
width = 675;
},
{
layerId = "51C2DFEF-3776-4D13-9284-96485B799B57";
width = 600;
},
{
layerId = "0B2E441B-685E-400D-9B9B-E078DEED62EF";
width = 600;
}
);
unicode = 00A4;
},
{
glyphname = dong;
lastChange = "2017-09-10 18:11:30 +0000";
layers = (
{
layerId = "F333AEC5-BB61-4D5E-9EDD-6124322D28F2";
paths = (
{
closed = 1;
nodes = (
"540 0 LINE",
"540 60 LINE",
"118 60 LINE",
"118 0 LINE"
);
},
{
closed = 1;
nodes = (
"523 130 LINE",
"523 739 LINE",
"443 739 LINE",
"443 186 LINE",
"467 130 LINE"
);
},
{
closed = 1;
nodes = (
"364 120 OFFCURVE",
"429 154 OFFCURVE",
"489 219 CURVE",
"470 269 LINE",
"423 217 OFFCURVE",
"372 190 OFFCURVE",
"316 190 CURVE SMOOTH",
"228 190 OFFCURVE",
"169 251 OFFCURVE",
"169 345 CURVE SMOOTH",
"169 437 OFFCURVE",
"225 492 OFFCURVE",
"308 492 CURVE SMOOTH",
"380 492 OFFCURVE",
"441 447 OFFCURVE",
"457 383 CURVE",
"489 446 LINE",
"465 513 OFFCURVE",
"412 562 OFFCURVE",
"316 562 CURVE SMOOTH",
"182 562 OFFCURVE",
"89 473 OFFCURVE",
"89 333 CURVE SMOOTH",
"89 202 OFFCURVE",
"172 120 OFFCURVE",
"290 120 CURVE SMOOTH"
);
},
{
closed = 1;
nodes = (
"594 620 LINE",
"594 680 LINE",
"302 680 LINE",
"302 620 LINE"
);
}
);
width = 677;
},
{
layerId = "51C2DFEF-3776-4D13-9284-96485B799B57";
width = 600;
},
{
layerId = "0B2E441B-685E-400D-9B9B-E078DEED62EF";
width = 600;
}
);
unicode = 20AB;
},
{
glyphname = euro;
lastChange = "2017-09-10 18:11:30 +0000";
layers = (
{
components = (
{
name = _stem.euro;
transform = "{1, 0, 0, 1, 89, 0}";
}
);
layerId = "F333AEC5-BB61-4D5E-9EDD-6124322D28F2";
paths = (
{
closed = 1;
nodes = (
"636 394 LINE",
"636 454 LINE",
"81 454 LINE",
"81 394 LINE"
);
},
{
closed = 1;
nodes = (
"613 254 LINE",
"613 314 LINE",
"81 314 LINE",
"81 254 LINE"
);
}
);
width = 777;
},
{
layerId = "51C2DFEF-3776-4D13-9284-96485B799B57";
width = 600;
},
{
layerId = "0B2E441B-685E-400D-9B9B-E078DEED62EF";
width = 600;
}
);
unicode = 20AC;
},
{
glyphname = guarani;
lastChange = "2017-09-10 18:11:30 +0000";
layers = (
{
associatedMasterId = "F333AEC5-BB61-4D5E-9EDD-6124322D28F2";
layerId = "1866C078-74D9-4E80-B9A0-67CF6B4C8CA4";
name = "Aug 16 17, 22:17";
paths = (
{
closed = 1;
nodes = (
"434 -9 OFFCURVE",
"495 34 OFFCURVE",
"541 74 CURVE",
"541 368 LINE",
"332 368 LINE",
"332 296 LINE",
"464 296 LINE",
"464 102 LINE",
"433 81 OFFCURVE",
"401 64 OFFCURVE",
"356 64 CURVE SMOOTH",
"240 64 OFFCURVE",
"173 177 OFFCURVE",
"173 351 CURVE SMOOTH",
"173 526 OFFCURVE",
"241 630 OFFCURVE",
"359 630 CURVE SMOOTH",
"409 630 OFFCURVE",
"465 612 OFFCURVE",
"507 585 CURVE",
"526 663 LINE",
"481 687 OFFCURVE",
"421 703 OFFCURVE",
"367 703 CURVE SMOOTH",
"209 703 OFFCURVE",
"93 564 OFFCURVE",
"93 340 CURVE SMOOTH",
"93 126 OFFCURVE",
"200 -9 OFFCURVE",
"350 -9 CURVE SMOOTH"
);
},
{
closed = 1;
nodes = (
"398 -49 LINE",
"398 58 LINE",
"322 58 LINE",
"322 -49 LINE"
);
},
{
closed = 1;
nodes = (
"398 633 LINE",
"398 739 LINE",
"323 739 LINE",
"323 633 LINE"
);
}
);
width = 646;
},
{
components = (
{
name = G;
},
{
name = _currencyvstem;
transform = "{1, 0, 0, 1, 12, -800}";
},
{
name = _currencyvstem;
}
);
layerId = "F333AEC5-BB61-4D5E-9EDD-6124322D28F2";
width = 776;
},
{
layerId = "51C2DFEF-3776-4D13-9284-96485B799B57";
width = 600;
},
{
layerId = "0B2E441B-685E-400D-9B9B-E078DEED62EF";
width = 600;
}
);
unicode = 20B2;
},
{
glyphname = kip;
lastChange = "2017-09-10 18:11:30 +0000";
layers = (
{
components = (
{
name = K;
transform = "{1, 0, 0, 1, 47, 0}";
}
);
layerId = "F333AEC5-BB61-4D5E-9EDD-6124322D28F2";
paths = (
{
closed = 1;
nodes = (
"609 325 LINE",
"609 385 LINE",
"77 385 LINE",
"77 325 LINE"
);
}
);
width = 728;
},
{
layerId = "51C2DFEF-3776-4D13-9284-96485B799B57";
width = 600;
},
{
layerId = "0B2E441B-685E-400D-9B9B-E078DEED62EF";
width = 600;
}
);
unicode = 20AD;
},
{
glyphname = liraTurkish;
lastChange = "2017-09-10 18:11:30 +0000";
layers = (
{
layerId = "F333AEC5-BB61-4D5E-9EDD-6124322D28F2";
paths = (
{
closed = 1;
nodes = (
"440 0 OFFCURVE",
"576 132 OFFCURVE",
"576 330 CURVE",
"496 330 LINE",
"496 174 OFFCURVE",
"396 70 OFFCURVE",
"245 70 CURVE",
"235 0 LINE"
);
},
{
closed = 1;
nodes = (
"245 0 LINE",
"245 694 LINE",
"168 694 LINE",
"168 0 LINE"
);
},
{
closed = 1;
nodes = (
"409 571 LINE",
"381 625 LINE",
"78 446 LINE",
"104 393 LINE"
);
},
{
closed = 1;
nodes = (
"409 421 LINE",
"381 475 LINE",
"78 296 LINE",
"104 243 LINE"
);
}
);
width = 649;
},
{
layerId = "51C2DFEF-3776-4D13-9284-96485B799B57";
width = 600;
},
{
layerId = "0B2E441B-685E-400D-9B9B-E078DEED62EF";
width = 600;
}
);
unicode = 20BA;
},
{
glyphname = manat;
lastChange = "2017-09-10 18:11:30 +0000";
layers = (
{
layerId = "F333AEC5-BB61-4D5E-9EDD-6124322D28F2";
paths = (
{
closed = 1;
nodes = (
"178 0 LINE",
"178 228 LINE SMOOTH",
"178 406 OFFCURVE",
"251 525 OFFCURVE",
"360 525 CURVE SMOOTH",
"475 525 OFFCURVE",
"552 402 OFFCURVE",
"552 218 CURVE SMOOTH",
"552 0 LINE",
"626 0 LINE",
"626 228 LINE SMOOTH",
"626 448 OFFCURVE",
"524 595 OFFCURVE",
"370 595 CURVE SMOOTH",
"210 595 OFFCURVE",
"104 444 OFFCURVE",
"104 218 CURVE SMOOTH",
"104 0 LINE"
);
},
{
closed = 1;
nodes = (
"403 100 LINE",
"403 694 LINE",
"329 694 LINE",
"329 100 LINE"
);
}
);
width = 731;
},
{
layerId = "51C2DFEF-3776-4D13-9284-96485B799B57";
width = 600;
},
{
layerId = "0B2E441B-685E-400D-9B9B-E078DEED62EF";
width = 600;
}
);
unicode = 20BC;
},
{
glyphname = naira;
lastChange = "2017-09-10 18:11:30 +0000";
layers = (
{
components = (
{
name = N;
transform = "{1, 0, 0, 1, 64, 0}";
}
);
layerId = "F333AEC5-BB61-4D5E-9EDD-6124322D28F2";
paths = (
{
closed = 1;
nodes = (
"696 384 LINE",
"831 384 LINE",
"831 444 LINE",
"696 444 LINE"
);
},
{
closed = 1;
nodes = (
"696 254 LINE",
"831 254 LINE",
"831 314 LINE",
"696 314 LINE"
);
},
{
closed = 1;
nodes = (
"221 314 LINE",
"85 314 LINE",
"85 254 LINE",
"221 254 LINE"
);
},
{
closed = 1;
nodes = (
"221 444 LINE",
"85 444 LINE",
"85 384 LINE",
"221 384 LINE"
);
}
);
width = 914;
},
{
layerId = "51C2DFEF-3776-4D13-9284-96485B799B57";
width = 600;
},
{
layerId = "0B2E441B-685E-400D-9B9B-E078DEED62EF";
width = 600;
}
);
unicode = 20A6;
},
{
glyphname = peseta;
lastChange = "2017-09-10 18:11:30 +0000";
layers = (
{
components = (
{
name = P;
transform = "{1, 0, 0, 1, 51, 0}";
}
);
layerId = "F333AEC5-BB61-4D5E-9EDD-6124322D28F2";
paths = (
{
closed = 1;
nodes = (
"578 434 LINE",
"709 434 LINE",
"709 494 LINE",
"578 494 LINE"
);
},
{
closed = 1;
nodes = (
"198 494 LINE",
"67 494 LINE",
"67 434 LINE",
"198 434 LINE"
);
}
);
width = 774;
},
{
layerId = "51C2DFEF-3776-4D13-9284-96485B799B57";
width = 600;
},
{
layerId = "0B2E441B-685E-400D-9B9B-E078DEED62EF";
width = 600;
}
);
unicode = 20A7;
},
{
glyphname = peso;
lastChange = "2017-09-10 18:11:30 +0000";
layers = (
{
components = (
{
name = P;
transform = "{1, 0, 0, 1, 67, 0}";
}
);
layerId = "F333AEC5-BB61-4D5E-9EDD-6124322D28F2";
paths = (
{
closed = 1;
nodes = (
"594 504 LINE",
"725 504 LINE",
"725 564 LINE",
"594 564 LINE"
);
},
{
closed = 1;
nodes = (
"214 564 LINE",
"83 564 LINE",
"83 504 LINE",
"214 504 LINE"
);
},
{
closed = 1;
nodes = (
"594 364 LINE",
"725 364 LINE",
"725 424 LINE",
"594 424 LINE"
);
},
{
closed = 1;
nodes = (
"214 424 LINE",
"83 424 LINE",
"83 364 LINE",
"214 364 LINE"
);
}
);
width = 807;
},
{
layerId = "51C2DFEF-3776-4D13-9284-96485B799B57";
width = 600;
},
{
layerId = "0B2E441B-685E-400D-9B9B-E078DEED62EF";
width = 600;
}
);
unicode = 20B1;
},
{
glyphname = ruble;
lastChange = "2017-09-10 18:11:30 +0000";
layers = (
{
anchors = (
{
name = bottom;
position = "{377, 0}";
},
{
name = top;
position = "{377, 694}";
}
);
layerId = "F333AEC5-BB61-4D5E-9EDD-6124322D28F2";
paths = (
{
closed = 1;
nodes = (
"458 105 LINE",
"458 165 LINE",
"86 165 LINE",
"86 105 LINE"
);
},
{
closed = 1;
nodes = (
"259 0 LINE",
"259 622 LINE",
"382 622 LINE SMOOTH",
"487 622 OFFCURVE",
"551 558 OFFCURVE",
"551 458 CURVE SMOOTH",
"551 365 OFFCURVE",
"496 314 OFFCURVE",
"392 314 CURVE SMOOTH",
"86 314 LINE",
"86 242 LINE",
"382 242 LINE SMOOTH",
"541 242 OFFCURVE",
"636 337 OFFCURVE",
"636 468 CURVE SMOOTH",
"636 602 OFFCURVE",
"537 694 OFFCURVE",
"392 694 CURVE SMOOTH",
"176 694 LINE",
"176 0 LINE"
);
}
);
width = 717;
},
{
layerId = "51C2DFEF-3776-4D13-9284-96485B799B57";
width = 600;
},
{
layerId = "0B2E441B-685E-400D-9B9B-E078DEED62EF";
width = 600;
}
);
unicode = 20BD;
},
{
glyphname = rupeeIndian;
lastChange = "2017-09-10 18:11:30 +0000";
layers = (
{
layerId = "F333AEC5-BB61-4D5E-9EDD-6124322D28F2";
paths = (
{
closed = 1;
nodes = (
"264 287 LINE SMOOTH",
"407 287 OFFCURVE",
"506 372 OFFCURVE",
"506 499 CURVE SMOOTH",
"506 625 OFFCURVE",
"408 694 OFFCURVE",
"274 694 CURVE SMOOTH",
"97 694 LINE",
"97 632 LINE",
"264 632 LINE SMOOTH",
"361 632 OFFCURVE",
"421 584 OFFCURVE",
"421 491 CURVE SMOOTH",
"421 401 OFFCURVE",
"365 359 OFFCURVE",
"274 359 CURVE SMOOTH",
"97 359 LINE",
"97 287 LINE"
);
},
{
closed = 1;
nodes = (
"576 0 LINE",
"361 310 LINE",
"266 310 LINE",
"477 0 LINE"
);
},
{
closed = 1;
nodes = (
"589 466 LINE",
"589 526 LINE",
"97 526 LINE",
"97 466 LINE"
);
},
{
closed = 1;
nodes = (
"589 638 LINE",
"589 698 LINE",
"97 698 LINE",
"97 638 LINE"
);
}
);
width = 673;
},
{
layerId = "51C2DFEF-3776-4D13-9284-96485B799B57";
width = 600;
},
{
layerId = "0B2E441B-685E-400D-9B9B-E078DEED62EF";
width = 600;
}
);
unicode = 20B9;
},
{
glyphname = won;
lastChange = "2017-09-10 18:11:30 +0000";
layers = (
{
components = (
{
name = W;
transform = "{1, 0, 0, 1, 76, 0}";
}
);
layerId = "F333AEC5-BB61-4D5E-9EDD-6124322D28F2";
paths = (
{
closed = 1;
nodes = (
"266 252 LINE",
"266 312 LINE",
"94 312 LINE",
"94 252 LINE"
);
},
{
closed = 1;
nodes = (
"236 392 LINE",
"236 452 LINE",
"94 452 LINE",
"94 392 LINE"
);
},
{
closed = 1;
nodes = (
"1084 312 LINE",
"912 312 LINE",
"912 252 LINE",
"1084 252 LINE"
);
},
{
closed = 1;
nodes = (
"1084 452 LINE",
"942 452 LINE",
"942 392 LINE",
"1084 392 LINE"
);
}
);
width = 1179;
},
{
layerId = "51C2DFEF-3776-4D13-9284-96485B799B57";
width = 600;
},
{
layerId = "0B2E441B-685E-400D-9B9B-E078DEED62EF";
width = 600;
}
);
unicode = 20A9;
},
{
glyphname = yen;
lastChange = "2017-09-10 18:11:30 +0000";
layers = (
{
components = (
{
name = Y;
transform = "{1, 0, 0, 1, 30, 0}";
}
);
layerId = "F333AEC5-BB61-4D5E-9EDD-6124322D28F2";
paths = (
{
closed = 1;
nodes = (
"492 128 LINE",
"492 188 LINE",
"180 188 LINE",
"180 128 LINE"
);
},
{
closed = 1;
nodes = (
"492 268 LINE",
"492 328 LINE",
"180 328 LINE",
"180 268 LINE"
);
}
);
width = 678;
},
{
layerId = "51C2DFEF-3776-4D13-9284-96485B799B57";
width = 600;
},
{
layerId = "0B2E441B-685E-400D-9B9B-E078DEED62EF";
width = 600;
}
);
unicode = 00A5;
},
{
glyphname = equivalence;
lastChange = "2017-09-10 18:11:30 +0000";
layers = (
{
layerId = "F333AEC5-BB61-4D5E-9EDD-6124322D28F2";
paths = (
{
closed = 1;
nodes = (
"596 476 LINE",
"596 545 LINE",
"131 545 LINE",
"131 476 LINE"
);
},
{
closed = 1;
nodes = (
"596 132 LINE",
"596 201 LINE",
"131 201 LINE",
"131 132 LINE"
);
},
{
closed = 1;
nodes = (
"596 304 LINE",
"596 373 LINE",
"131 373 LINE",
"131 304 LINE"
);
}
);
width = 727;
},
{
layerId = "51C2DFEF-3776-4D13-9284-96485B799B57";
width = 600;
},
{
layerId = "0B2E441B-685E-400D-9B9B-E078DEED62EF";
width = 600;
}
);
unicode = 2261;
},
{
glyphname = notidentical;
lastChange = "2017-09-10 18:11:30 +0000";
layers = (
{
layerId = "F333AEC5-BB61-4D5E-9EDD-6124322D28F2";
paths = (
{
closed = 1;
nodes = (
"533 614 LINE",
"479 645 LINE",
"154 60 LINE",
"204 32 LINE"
);
},
{
closed = 1;
nodes = (
"572 132 LINE",
"572 201 LINE",
"107 201 LINE",
"107 132 LINE"
);
},
{
closed = 1;
nodes = (
"572 304 LINE",
"572 373 LINE",
"107 373 LINE",
"107 304 LINE"
);
},
{
closed = 1;
nodes = (
"572 476 LINE",
"572 545 LINE",
"107 545 LINE",
"107 476 LINE"
);
}
);
width = 679;
},
{
layerId = "51C2DFEF-3776-4D13-9284-96485B799B57";
width = 600;
},
{
layerId = "0B2E441B-685E-400D-9B9B-E078DEED62EF";
width = 600;
}
);
unicode = 2262;
},
{
glyphname = plus;
lastChange = "2017-09-10 18:11:30 +0000";
layers = (
{
layerId = "F333AEC5-BB61-4D5E-9EDD-6124322D28F2";
paths = (
{
closed = 1;
nodes = (
"354 92 LINE",
"354 618 LINE",
"284 618 LINE",
"284 92 LINE"
);
},
{
closed = 1;
nodes = (
"568 326 LINE",
"568 395 LINE",
"64 395 LINE",
"64 326 LINE"
);
}
);
width = 632;
},
{
layerId = "51C2DFEF-3776-4D13-9284-96485B799B57";
width = 600;
},
{
layerId = "0B2E441B-685E-400D-9B9B-E078DEED62EF";
width = 600;
}
);
unicode = 002B;
},
{
glyphname = minus;
lastChange = "2017-09-10 18:11:30 +0000";
layers = (
{
layerId = "F333AEC5-BB61-4D5E-9EDD-6124322D28F2";
paths = (
{
closed = 1;
nodes = (
"620 326 LINE",
"620 395 LINE",
"131 395 LINE",
"131 326 LINE"
);
}
);
width = 751;
},
{
layerId = "51C2DFEF-3776-4D13-9284-96485B799B57";
width = 600;
},
{
layerId = "0B2E441B-685E-400D-9B9B-E078DEED62EF";
width = 600;
}
);
unicode = 2212;
},
{
glyphname = multiply;
lastChange = "2017-09-10 18:11:30 +0000";
layers = (
{
layerId = "F333AEC5-BB61-4D5E-9EDD-6124322D28F2";
paths = (
{
closed = 1;
nodes = (
"454 110 LINE",
"504 160 LINE",
"504 164 LINE",
"134 556 LINE",
"130 556 LINE",
"77 507 LINE",
"77 503 LINE",
"450 110 LINE"
);
},
{
closed = 1;
nodes = (
"499 503 LINE",
"450 553 LINE",
"73 166 LINE",
"119 115 LINE"
);
}
);
width = 576;
},
{
layerId = "51C2DFEF-3776-4D13-9284-96485B799B57";
width = 600;
},
{
layerId = "0B2E441B-685E-400D-9B9B-E078DEED62EF";
width = 600;
}
);
unicode = 00D7;
},
{
glyphname = divide;
lastChange = "2017-09-10 18:11:30 +0000";
layers = (
{
components = (
{
name = _dot;
transform = "{1, 0, 0, 1, 183, -101}";
},
{
name = _dot;
transform = "{1, 0, 0, 1, 183, -495}";
}
);
layerId = "F333AEC5-BB61-4D5E-9EDD-6124322D28F2";
paths = (
{
closed = 1;
nodes = (
"557 326 LINE",
"557 395 LINE",
"65 395 LINE",
"65 326 LINE"
);
}
);
width = 625;
},
{
layerId = "51C2DFEF-3776-4D13-9284-96485B799B57";
width = 600;
},
{
layerId = "0B2E441B-685E-400D-9B9B-E078DEED62EF";
width = 600;
}
);
unicode = 00F7;
},
{
glyphname = equal;
lastChange = "2017-09-10 18:11:30 +0000";
layers = (
{
layerId = "F333AEC5-BB61-4D5E-9EDD-6124322D28F2";
paths = (
{
closed = 1;
nodes = (
"596 436 LINE",
"596 505 LINE",
"131 505 LINE",
"131 436 LINE"
);
},
{
closed = 1;
nodes = (
"596 196 LINE",
"596 265 LINE",
"131 265 LINE",
"131 196 LINE"
);
}
);
width = 727;
},
{
layerId = "51C2DFEF-3776-4D13-9284-96485B799B57";
width = 600;
},
{
layerId = "0B2E441B-685E-400D-9B9B-E078DEED62EF";
width = 600;
}
);
unicode = 003D;
},
{
glyphname = notequal;
lastChange = "2017-09-10 18:11:30 +0000";
layers = (
{
layerId = "F333AEC5-BB61-4D5E-9EDD-6124322D28F2";
paths = (
{
closed = 1;
nodes = (
"487 577 LINE",
"433 608 LINE",
"164 122 LINE",
"214 94 LINE"
);
},
{
closed = 1;
nodes = (
"561 196 LINE",
"561 265 LINE",
"96 265 LINE",
"96 196 LINE"
);
},
{
closed = 1;
nodes = (
"561 436 LINE",
"561 505 LINE",
"96 505 LINE",
"96 436 LINE"
);
}
);
width = 657;
},
{
layerId = "51C2DFEF-3776-4D13-9284-96485B799B57";
width = 600;
},
{
layerId = "0B2E441B-685E-400D-9B9B-E078DEED62EF";
width = 600;
}
);
unicode = 2260;
},
{
glyphname = greater;
lastChange = "2017-09-10 18:11:30 +0000";
layers = (
{
layerId = "F333AEC5-BB61-4D5E-9EDD-6124322D28F2";
paths = (
{
closed = 1;
nodes = (
"528 306 LINE",
"528 370 LINE",
"82 599 LINE",
"82 516 LINE",
"472 325 LINE",
"472 353 LINE",
"82 163 LINE",
"82 85 LINE"
);
}
);
width = 593;
},
{
layerId = "51C2DFEF-3776-4D13-9284-96485B799B57";
width = 600;
},
{
layerId = "0B2E441B-685E-400D-9B9B-E078DEED62EF";
width = 600;
}
);
unicode = 003E;
},
{
glyphname = greaterequal;
lastChange = "2017-09-10 18:11:30 +0000";
layers = (
{
layerId = "F333AEC5-BB61-4D5E-9EDD-6124322D28F2";
paths = (
{
closed = 1;
nodes = (
"567 379 LINE",
"567 438 LINE",
"96 626 LINE",
"96 553 LINE",
"506 400 LINE",
"505 422 LINE",
"96 264 LINE",
"96 198 LINE"
);
},
{
closed = 1;
nodes = (
"567 61 LINE",
"567 126 LINE",
"102 126 LINE",
"102 61 LINE"
);
}
);
width = 647;
},
{
layerId = "51C2DFEF-3776-4D13-9284-96485B799B57";
width = 600;
},
{
layerId = "0B2E441B-685E-400D-9B9B-E078DEED62EF";
width = 600;
}
);
unicode = 2265;
},
{
glyphname = plusminus;
lastChange = "2017-09-10 18:11:30 +0000";
layers = (
{
layerId = "F333AEC5-BB61-4D5E-9EDD-6124322D28F2";
paths = (
{
closed = 1;
nodes = (
"353 177 LINE",
"353 653 LINE",
"283 653 LINE",
"283 177 LINE"
);
},
{
closed = 1;
nodes = (
"552 69 LINE",
"552 134 LINE",
"90 134 LINE",
"90 69 LINE"
);
},
{
closed = 1;
nodes = (
"553 385 LINE",
"553 454 LINE",
"77 454 LINE",
"77 385 LINE"
);
}
);
width = 633;
},
{
layerId = "51C2DFEF-3776-4D13-9284-96485B799B57";
width = 600;
},
{
layerId = "0B2E441B-685E-400D-9B9B-E078DEED62EF";
width = 600;
}
);
unicode = 00B1;
},
{
glyphname = approxequal;
lastChange = "2017-09-10 18:11:30 +0000";
layers = (
{
layerId = "F333AEC5-BB61-4D5E-9EDD-6124322D28F2";
paths = (
{
closed = 1;
nodes = (
"158 413 OFFCURVE",
"203 453 OFFCURVE",
"240 453 CURVE SMOOTH",
"290 453 OFFCURVE",
"327 377 OFFCURVE",
"403 377 CURVE SMOOTH",
"466 377 OFFCURVE",
"532 428 OFFCURVE",
"556 517 CURVE",
"504 528 LINE",
"490 485 OFFCURVE",
"449 447 OFFCURVE",
"412 447 CURVE SMOOTH",
"360 447 OFFCURVE",
"332 523 OFFCURVE",
"250 523 CURVE SMOOTH",
"186 523 OFFCURVE",
"121 476 OFFCURVE",
"96 385 CURVE",
"148 374 LINE"
);
},
{
closed = 1;
nodes = (
"158 213 OFFCURVE",
"203 253 OFFCURVE",
"240 253 CURVE SMOOTH",
"290 253 OFFCURVE",
"327 177 OFFCURVE",
"403 177 CURVE SMOOTH",
"466 177 OFFCURVE",
"532 228 OFFCURVE",
"556 317 CURVE",
"504 328 LINE",
"490 285 OFFCURVE",
"449 247 OFFCURVE",
"412 247 CURVE SMOOTH",
"360 247 OFFCURVE",
"332 323 OFFCURVE",
"250 323 CURVE SMOOTH",
"186 323 OFFCURVE",
"121 276 OFFCURVE",
"96 185 CURVE",
"148 174 LINE"
);
}
);
width = 652;
},
{
layerId = "51C2DFEF-3776-4D13-9284-96485B799B57";
width = 600;
},
{
layerId = "0B2E441B-685E-400D-9B9B-E078DEED62EF";
width = 600;
}
);
unicode = 2248;
},
{
glyphname = asciitilde;
lastChange = "2017-09-10 18:11:30 +0000";
layers = (
{
layerId = "F333AEC5-BB61-4D5E-9EDD-6124322D28F2";
paths = (
{
closed = 1;
nodes = (
"163 263 OFFCURVE",
"204 303 OFFCURVE",
"240 303 CURVE SMOOTH",
"288 303 OFFCURVE",
"325 227 OFFCURVE",
"400 227 CURVE SMOOTH",
"462 227 OFFCURVE",
"529 278 OFFCURVE",
"552 367 CURVE",
"495 378 LINE",
"482 335 OFFCURVE",
"444 297 OFFCURVE",
"409 297 CURVE SMOOTH",
"358 297 OFFCURVE",
"329 373 OFFCURVE",
"249 373 CURVE SMOOTH",
"187 373 OFFCURVE",
"120 326 OFFCURVE",
"96 235 CURVE",
"153 224 LINE"
);
}
);
width = 647;
},
{
layerId = "51C2DFEF-3776-4D13-9284-96485B799B57";
width = 600;
},
{
layerId = "0B2E441B-685E-400D-9B9B-E078DEED62EF";
width = 600;
}
);
unicode = 007E;
},
{
glyphname = logicalnot;
lastChange = "2017-09-10 18:11:30 +0000";
layers = (
{
layerId = "F333AEC5-BB61-4D5E-9EDD-6124322D28F2";
paths = (
{
closed = 1;
nodes = (
"555 328 LINE",
"555 395 LINE",
"79 395 LINE",
"79 328 LINE"
);
},
{
closed = 1;
nodes = (
"555 152 LINE",
"555 353 LINE",
"475 353 LINE",
"475 152 LINE"
);
}
);
width = 686;
},
{
layerId = "51C2DFEF-3776-4D13-9284-96485B799B57";
width = 600;
},
{
layerId = "0B2E441B-685E-400D-9B9B-E078DEED62EF";
width = 600;
}
);
unicode = 00AC;
},
{
glyphname = infinity;
lastChange = "2017-09-10 18:11:30 +0000";
layers = (
{
layerId = "F333AEC5-BB61-4D5E-9EDD-6124322D28F2";
paths = (
{
closed = 1;
nodes = (
"785 145 OFFCURVE",
"858 224 OFFCURVE",
"858 343 CURVE SMOOTH",
"858 457 OFFCURVE",
"789 533 OFFCURVE",
"684 533 CURVE SMOOTH",
"468 533 OFFCURVE",
"427 215 OFFCURVE",
"275 215 CURVE SMOOTH",
"214 215 OFFCURVE",
"174 266 OFFCURVE",
"174 342 CURVE SMOOTH",
"174 415 OFFCURVE",
"214 463 OFFCURVE",
"274 463 CURVE SMOOTH",
"432 463 OFFCURVE",
"458 145 OFFCURVE",
"675 145 CURVE SMOOTH"
);
},
{
closed = 1;
nodes = (
"478 145 OFFCURVE",
"518 463 OFFCURVE",
"675 463 CURVE SMOOTH",
"738 463 OFFCURVE",
"778 411 OFFCURVE",
"778 331 CURVE SMOOTH",
"778 258 OFFCURVE",
"741 215 OFFCURVE",
"680 215 CURVE SMOOTH",
"514 215 OFFCURVE",
"503 533 OFFCURVE",
"281 533 CURVE SMOOTH",
"169 533 OFFCURVE",
"94 453 OFFCURVE",
"94 333 CURVE SMOOTH",
"94 220 OFFCURVE",
"162 145 OFFCURVE",
"265 145 CURVE SMOOTH"
);
}
);
width = 956;
},
{
layerId = "51C2DFEF-3776-4D13-9284-96485B799B57";
width = 600;
},
{
layerId = "0B2E441B-685E-400D-9B9B-E078DEED62EF";
width = 600;
}
);
unicode = 221E;
},
{
glyphname = emptyset;
lastChange = "2017-09-10 18:11:30 +0000";
layers = (
{
layerId = "F333AEC5-BB61-4D5E-9EDD-6124322D28F2";
paths = (
{
closed = 1;
nodes = (
"528 68 OFFCURVE",
"642 179 OFFCURVE",
"642 345 CURVE SMOOTH",
"642 507 OFFCURVE",
"532 615 OFFCURVE",
"368 615 CURVE SMOOTH",
"198 615 OFFCURVE",
"85 503 OFFCURVE",
"85 335 CURVE SMOOTH",
"85 175 OFFCURVE",
"194 68 OFFCURVE",
"358 68 CURVE SMOOTH"
);
},
{
closed = 1;
nodes = (
"246 138 OFFCURVE",
"165 221 OFFCURVE",
"165 345 CURVE SMOOTH",
"165 465 OFFCURVE",
"242 545 OFFCURVE",
"358 545 CURVE SMOOTH",
"480 545 OFFCURVE",
"562 461 OFFCURVE",
"562 335 CURVE SMOOTH",
"562 217 OFFCURVE",
"484 138 OFFCURVE",
"368 138 CURVE SMOOTH"
);
},
{
closed = 1;
nodes = (
"592 630 LINE",
"536 667 LINE",
"135 67 LINE",
"183 33 LINE"
);
}
);
width = 728;
},
{
layerId = "51C2DFEF-3776-4D13-9284-96485B799B57";
width = 600;
},
{
layerId = "0B2E441B-685E-400D-9B9B-E078DEED62EF";
width = 600;
}
);
unicode = 2205;
},
{
glyphname = integral;
lastChange = "2017-09-10 18:11:30 +0000";
layers = (
{
layerId = "F333AEC5-BB61-4D5E-9EDD-6124322D28F2";
paths = (
{
closed = 1;
nodes = (
"253 -170 OFFCURVE",
"318 -115 OFFCURVE",
"318 -3 CURVE SMOOTH",
"318 161 OFFCURVE",
"178 417 OFFCURVE",
"178 582 CURVE SMOOTH",
"178 653 OFFCURVE",
"204 676 OFFCURVE",
"251 676 CURVE SMOOTH",
"275 676 OFFCURVE",
"295 670 OFFCURVE",
"316 662 CURVE",
"340 731 LINE",
"314 743 OFFCURVE",
"292 749 OFFCURVE",
"259 749 CURVE SMOOTH",
"171 749 OFFCURVE",
"98 705 OFFCURVE",
"98 571 CURVE SMOOTH",
"98 387 OFFCURVE",
"237 127 OFFCURVE",
"237 -10 CURVE SMOOTH",
"237 -74 OFFCURVE",
"207 -97 OFFCURVE",
"167 -97 CURVE SMOOTH",
"146 -97 OFFCURVE",
"115 -91 OFFCURVE",
"91 -82 CURVE",
"67 -152 LINE",
"96 -164 OFFCURVE",
"128 -170 OFFCURVE",
"159 -170 CURVE SMOOTH"
);
}
);
width = 410;
},
{
layerId = "51C2DFEF-3776-4D13-9284-96485B799B57";
width = 600;
},
{
layerId = "0B2E441B-685E-400D-9B9B-E078DEED62EF";
width = 600;
}
);
unicode = 222B;
},
{
glyphname = Ohm;
lastChange = "2017-09-10 18:11:30 +0000";
layers = (
{
layerId = "F333AEC5-BB61-4D5E-9EDD-6124322D28F2";
paths = (
{
closed = 1;
nodes = (
"341 0 LINE",
"341 53 LINE",
"250 124 OFFCURVE",
"189 260 OFFCURVE",
"189 394 CURVE SMOOTH",
"189 538 OFFCURVE",
"275 631 OFFCURVE",
"406 631 CURVE SMOOTH",
"542 631 OFFCURVE",
"639 529 OFFCURVE",
"639 388 CURVE SMOOTH",
"639 266 OFFCURVE",
"577 132 OFFCURVE",
"485 53 CURVE",
"485 0 LINE",
"737 0 LINE",
"737 72 LINE",
"573 72 LINE",
"662 135 OFFCURVE",
"721 265 OFFCURVE",
"721 397 CURVE SMOOTH",
"721 581 OFFCURVE",
"599 704 OFFCURVE",
"417 704 CURVE SMOOTH",
"230 704 OFFCURVE",
"106 576 OFFCURVE",
"106 385 CURVE SMOOTH",
"106 247 OFFCURVE",
"165 122 OFFCURVE",
"254 72 CURVE",
"88 72 LINE",
"88 0 LINE"
);
}
);
width = 826;
},
{
layerId = "51C2DFEF-3776-4D13-9284-96485B799B57";
width = 600;
},
{
layerId = "0B2E441B-685E-400D-9B9B-E078DEED62EF";
width = 600;
}
);
unicode = 2126;
},
{
glyphname = increment;
lastChange = "2017-09-10 18:11:30 +0000";
layers = (
{
layerId = "F333AEC5-BB61-4D5E-9EDD-6124322D28F2";
paths = (
{
closed = 1;
nodes = (
"621 1 LINE",
"621 54 LINE",
"391 694 LINE",
"294 694 LINE",
"61 54 LINE",
"61 1 LINE"
);
},
{
closed = 1;
nodes = (
"348 649 LINE",
"325 649 LINE",
"542 38 LINE",
"569 68 LINE",
"115 68 LINE",
"133 38 LINE"
);
}
);
width = 682;
},
{
layerId = "51C2DFEF-3776-4D13-9284-96485B799B57";
width = 600;
},
{
layerId = "0B2E441B-685E-400D-9B9B-E078DEED62EF";
width = 600;
}
);
unicode = 2206;
},
{
glyphname = product;
lastChange = "2017-09-10 18:11:30 +0000";
layers = (
{
layerId = "F333AEC5-BB61-4D5E-9EDD-6124322D28F2";
paths = (
{
closed = 1;
nodes = (
"214 -95 LINE",
"214 622 LINE",
"584 622 LINE",
"584 -95 LINE",
"667 -95 LINE",
"667 694 LINE",
"131 694 LINE",
"131 -95 LINE"
);
}
);
width = 798;
},
{
layerId = "51C2DFEF-3776-4D13-9284-96485B799B57";
width = 600;
},
{
layerId = "0B2E441B-685E-400D-9B9B-E078DEED62EF";
width = 600;
}
);
unicode = 220F;
},
{
glyphname = summation;
lastChange = "2017-09-10 18:11:30 +0000";
layers = (
{
layerId = "F333AEC5-BB61-4D5E-9EDD-6124322D28F2";
paths = (
{
closed = 1;
nodes = (
"572 -95 LINE",
"572 -24 LINE",
"163 -24 LINE",
"447 299 LINE",
"166 622 LINE",
"572 622 LINE",
"572 694 LINE",
"62 694 LINE",
"62 638 LINE",
"351 299 LINE",
"62 -39 LINE",
"62 -95 LINE"
);
}
);
width = 636;
},
{
layerId = "51C2DFEF-3776-4D13-9284-96485B799B57";
width = 600;
},
{
layerId = "0B2E441B-685E-400D-9B9B-E078DEED62EF";
width = 600;
}
);
unicode = 2211;
},
{
glyphname = radical;
lastChange = "2017-09-10 18:11:30 +0000";
layers = (
{
layerId = "F333AEC5-BB61-4D5E-9EDD-6124322D28F2";
paths = (
{
closed = 1;
nodes = (
"357 -59 LINE",
"507 739 LINE",
"420 739 LINE",
"309 59 LINE",
"233 303 LINE",
"55 303 LINE",
"55 231 LINE",
"171 231 LINE",
"277 -59 LINE"
);
}
);
width = 573;
},
{
layerId = "51C2DFEF-3776-4D13-9284-96485B799B57";
width = 600;
},
{
layerId = "0B2E441B-685E-400D-9B9B-E078DEED62EF";
width = 600;
}
);
unicode = 221A;
},
{
glyphname = micro;
lastChange = "2017-09-10 18:11:30 +0000";
layers = (
{
layerId = "F333AEC5-BB61-4D5E-9EDD-6124322D28F2";
paths = (
{
closed = 1;
nodes = (
"388 -10 OFFCURVE",
"443 23 OFFCURVE",
"490 73 CURVE",
"471 124 LINE",
"432 84 OFFCURVE",
"399 60 OFFCURVE",
"342 60 CURVE SMOOTH",
"268 60 OFFCURVE",
"206 100 OFFCURVE",
"206 182 CURVE",
"166 166 LINE",
"166 60 OFFCURVE",
"237 -10 OFFCURVE",
"327 -10 CURVE SMOOTH"
);
},
{
closed = 1;
nodes = (
"206 -244 LINE",
"206 482 LINE",
"131 482 LINE",
"131 -244 LINE"
);
},
{
closed = 1;
nodes = (
"540 0 LINE",
"540 482 LINE",
"460 482 LINE",
"460 56 LINE",
"484 0 LINE"
);
}
);
width = 645;
},
{
layerId = "51C2DFEF-3776-4D13-9284-96485B799B57";
width = 600;
},
{
layerId = "0B2E441B-685E-400D-9B9B-E078DEED62EF";
width = 600;
}
);
unicode = 00B5;
},
{
glyphname = partialdiff;
lastChange = "2017-09-10 18:11:30 +0000";
layers = (
{
layerId = "F333AEC5-BB61-4D5E-9EDD-6124322D28F2";
paths = (
{
closed = 1;
nodes = (
"466 -12 OFFCURVE",
"559 137 OFFCURVE",
"559 365 CURVE SMOOTH",
"559 589 OFFCURVE",
"469 701 OFFCURVE",
"313 701 CURVE SMOOTH",
"249 701 OFFCURVE",
"179 682 OFFCURVE",
"134 654 CURVE",
"155 596 LINE",
"201 617 OFFCURVE",
"261 631 OFFCURVE",
"304 631 CURVE SMOOTH",
"415 631 OFFCURVE",
"479 541 OFFCURVE",
"479 349 CURVE SMOOTH",
"479 170 OFFCURVE",
"423 58 OFFCURVE",
"301 58 CURVE SMOOTH",
"215 58 OFFCURVE",
"156 114 OFFCURVE",
"156 211 CURVE SMOOTH",
"156 301 OFFCURVE",
"207 359 OFFCURVE",
"293 359 CURVE SMOOTH",
"367 359 OFFCURVE",
"439 316 OFFCURVE",
"481 249 CURVE",
"487 342 LINE",
"445 399 OFFCURVE",
"383 429 OFFCURVE",
"307 429 CURVE SMOOTH",
"170 429 OFFCURVE",
"76 330 OFFCURVE",
"76 197 CURVE SMOOTH",
"76 69 OFFCURVE",
"162 -12 OFFCURVE",
"291 -12 CURVE SMOOTH"
);
}
);
width = 649;
},
{
layerId = "51C2DFEF-3776-4D13-9284-96485B799B57";
width = 600;
},
{
layerId = "0B2E441B-685E-400D-9B9B-E078DEED62EF";
width = 600;
}
);
unicode = 2202;
},
{
glyphname = upArrow;
lastChange = "2017-09-10 18:11:30 +0000";
layers = (
{
layerId = "F333AEC5-BB61-4D5E-9EDD-6124322D28F2";
paths = (
{
closed = 1;
nodes = (
"352 44 LINE",
"352 484 LINE",
"540 282 LINE",
"586 324 LINE",
"320 598 LINE",
"316 598 LINE",
"52 324 LINE",
"98 282 LINE",
"284 484 LINE",
"284 44 LINE"
);
}
);
width = 638;
},
{
layerId = "51C2DFEF-3776-4D13-9284-96485B799B57";
width = 600;
},
{
layerId = "0B2E441B-685E-400D-9B9B-E078DEED62EF";
width = 600;
}
);
note = arrowup;
unicode = 2191;
},
{
glyphname = rightArrow;
lastChange = "2017-09-10 18:11:30 +0000";
layers = (
{
layerId = "F333AEC5-BB61-4D5E-9EDD-6124322D28F2";
paths = (
{
closed = 1;
nodes = (
"617 319 LINE",
"617 323 LINE",
"344 588 LINE",
"302 542 LINE",
"503 355 LINE",
"64 355 LINE",
"64 287 LINE",
"503 287 LINE",
"302 100 LINE",
"344 54 LINE"
);
}
);
width = 670;
},
{
layerId = "51C2DFEF-3776-4D13-9284-96485B799B57";
width = 600;
},
{
layerId = "0B2E441B-685E-400D-9B9B-E078DEED62EF";
width = 600;
}
);
note = arrowright;
unicode = 2192;
},
{
glyphname = downArrow;
lastChange = "2017-09-10 18:11:30 +0000";
layers = (
{
layerId = "F333AEC5-BB61-4D5E-9EDD-6124322D28F2";
paths = (
{
closed = 1;
nodes = (
"321 44 LINE",
"587 318 LINE",
"541 360 LINE",
"353 158 LINE",
"353 598 LINE",
"285 598 LINE",
"285 158 LINE",
"99 360 LINE",
"53 318 LINE",
"317 44 LINE"
);
}
);
width = 640;
},
{
layerId = "51C2DFEF-3776-4D13-9284-96485B799B57";
width = 600;
},
{
layerId = "0B2E441B-685E-400D-9B9B-E078DEED62EF";
width = 600;
}
);
note = arrowdown;
unicode = 2193;
},
{
glyphname = leftArrow;
lastChange = "2017-09-10 18:11:30 +0000";
layers = (
{
layerId = "F333AEC5-BB61-4D5E-9EDD-6124322D28F2";
paths = (
{
closed = 1;
nodes = (
"368 100 LINE",
"167 287 LINE",
"606 287 LINE",
"606 355 LINE",
"167 355 LINE",
"368 542 LINE",
"326 588 LINE",
"53 323 LINE",
"53 319 LINE",
"326 54 LINE"
);
}
);
width = 670;
},
{
layerId = "51C2DFEF-3776-4D13-9284-96485B799B57";
width = 600;
},
{
layerId = "0B2E441B-685E-400D-9B9B-E078DEED62EF";
width = 600;
}
);
note = arrowleft;
unicode = 2190;
},
{
glyphname = blackCircle;
lastChange = "2017-09-10 18:11:30 +0000";
layers = (
{
layerId = "F333AEC5-BB61-4D5E-9EDD-6124322D28F2";
paths = (
{
closed = 1;
nodes = (
"417 130 OFFCURVE",
"511 223 OFFCURVE",
"511 338 CURVE SMOOTH",
"511 454 OFFCURVE",
"417 547 OFFCURVE",
"302 547 CURVE SMOOTH",
"187 547 OFFCURVE",
"93 454 OFFCURVE",
"93 338 CURVE SMOOTH",
"93 223 OFFCURVE",
"187 130 OFFCURVE",
"302 130 CURVE SMOOTH"
);
}
);
width = 604;
},
{
layerId = "51C2DFEF-3776-4D13-9284-96485B799B57";
width = 600;
},
{
layerId = "0B2E441B-685E-400D-9B9B-E078DEED62EF";
width = 600;
}
);
note = H18533;
unicode = 25CF;
},
{
glyphname = whiteCircle;
lastChange = "2017-09-10 18:11:30 +0000";
layers = (
{
layerId = "F333AEC5-BB61-4D5E-9EDD-6124322D28F2";
paths = (
{
closed = 1;
nodes = (
"658 -10 OFFCURVE",
"811 139 OFFCURVE",
"811 350 CURVE SMOOTH",
"811 557 OFFCURVE",
"661 704 OFFCURVE",
"450 704 CURVE SMOOTH",
"234 704 OFFCURVE",
"82 553 OFFCURVE",
"82 340 CURVE SMOOTH",
"82 135 OFFCURVE",
"231 -10 OFFCURVE",
"442 -10 CURVE SMOOTH"
);
},
{
closed = 1;
nodes = (
"276 60 OFFCURVE",
"152 180 OFFCURVE",
"152 350 CURVE SMOOTH",
"152 516 OFFCURVE",
"272 634 OFFCURVE",
"442 634 CURVE SMOOTH",
"617 634 OFFCURVE",
"741 512 OFFCURVE",
"741 340 CURVE SMOOTH",
"741 176 OFFCURVE",
"621 60 OFFCURVE",
"452 60 CURVE SMOOTH"
);
}
);
width = 893;
},
{
layerId = "51C2DFEF-3776-4D13-9284-96485B799B57";
width = 600;
},
{
layerId = "0B2E441B-685E-400D-9B9B-E078DEED62EF";
width = 600;
}
);
note = circle;
unicode = 25CB;
},
{
glyphname = dottedCircle;
lastChange = "2017-09-10 18:11:30 +0000";
layers = (
{
layerId = "F333AEC5-BB61-4D5E-9EDD-6124322D28F2";
paths = (
{
closed = 1;
nodes = (
"437 425 OFFCURVE",
"447 435 OFFCURVE",
"447 451 CURVE SMOOTH",
"447 466 OFFCURVE",
"437 476 OFFCURVE",
"421 476 CURVE SMOOTH",
"406 476 OFFCURVE",
"396 466 OFFCURVE",
"396 451 CURVE SMOOTH",
"396 435 OFFCURVE",
"406 425 OFFCURVE",
"421 425 CURVE SMOOTH"
);
},
{
closed = 1;
nodes = (
"187 57 OFFCURVE",
"197 67 OFFCURVE",
"197 82 CURVE SMOOTH",
"197 97 OFFCURVE",
"187 108 OFFCURVE",
"172 108 CURVE SMOOTH",
"156 108 OFFCURVE",
"146 97 OFFCURVE",
"146 82 CURVE SMOOTH",
"146 67 OFFCURVE",
"156 57 OFFCURVE",
"172 57 CURVE SMOOTH"
);
},
{
closed = 1;
nodes = (
"259 8 OFFCURVE",
"269 18 OFFCURVE",
"269 33 CURVE SMOOTH",
"269 48 OFFCURVE",
"259 59 OFFCURVE",
"244 59 CURVE SMOOTH",
"228 59 OFFCURVE",
"218 48 OFFCURVE",
"218 33 CURVE SMOOTH",
"218 18 OFFCURVE",
"228 8 OFFCURVE",
"244 8 CURVE SMOOTH"
);
},
{
closed = 1;
nodes = (
"138 130 OFFCURVE",
"148 141 OFFCURVE",
"148 157 CURVE SMOOTH",
"148 171 OFFCURVE",
"138 181 OFFCURVE",
"122 181 CURVE SMOOTH",
"107 181 OFFCURVE",
"97 171 OFFCURVE",
"97 157 CURVE SMOOTH",
"97 141 OFFCURVE",
"107 130 OFFCURVE",
"122 130 CURVE SMOOTH"
);
},
{
closed = 1;
nodes = (
"347 -10 OFFCURVE",
"357 1 OFFCURVE",
"357 17 CURVE SMOOTH",
"357 31 OFFCURVE",
"347 41 OFFCURVE",
"332 41 CURVE SMOOTH",
"317 41 OFFCURVE",
"307 31 OFFCURVE",
"307 17 CURVE SMOOTH",
"307 1 OFFCURVE",
"317 -10 OFFCURVE",
"332 -10 CURVE SMOOTH"
);
},
{
closed = 1;
nodes = (
"122 216 OFFCURVE",
"132 226 OFFCURVE",
"132 242 CURVE SMOOTH",
"132 257 OFFCURVE",
"122 267 OFFCURVE",
"107 267 CURVE SMOOTH",
"91 267 OFFCURVE",
"81 257 OFFCURVE",
"81 242 CURVE SMOOTH",
"81 226 OFFCURVE",
"91 216 OFFCURVE",
"107 216 CURVE SMOOTH"
);
},
{
closed = 1;
nodes = (
"138 303 OFFCURVE",
"148 312 OFFCURVE",
"148 328 CURVE SMOOTH",
"148 343 OFFCURVE",
"138 353 OFFCURVE",
"122 353 CURVE SMOOTH",
"107 353 OFFCURVE",
"97 343 OFFCURVE",
"97 328 CURVE SMOOTH",
"97 312 OFFCURVE",
"107 303 OFFCURVE",
"122 303 CURVE SMOOTH"
);
},
{
closed = 1;
nodes = (
"437 8 OFFCURVE",
"447 18 OFFCURVE",
"447 33 CURVE SMOOTH",
"447 48 OFFCURVE",
"437 59 OFFCURVE",
"421 59 CURVE SMOOTH",
"406 59 OFFCURVE",
"396 48 OFFCURVE",
"396 33 CURVE SMOOTH",
"396 18 OFFCURVE",
"406 8 OFFCURVE",
"421 8 CURVE SMOOTH"
);
},
{
closed = 1;
nodes = (
"187 377 OFFCURVE",
"197 386 OFFCURVE",
"197 402 CURVE SMOOTH",
"197 417 OFFCURVE",
"187 427 OFFCURVE",
"172 427 CURVE SMOOTH",
"156 427 OFFCURVE",
"146 417 OFFCURVE",
"146 402 CURVE SMOOTH",
"146 386 OFFCURVE",
"156 377 OFFCURVE",
"172 377 CURVE SMOOTH"
);
},
{
closed = 1;
nodes = (
"509 57 OFFCURVE",
"519 67 OFFCURVE",
"519 82 CURVE SMOOTH",
"519 97 OFFCURVE",
"509 108 OFFCURVE",
"493 108 CURVE SMOOTH",
"478 108 OFFCURVE",
"468 97 OFFCURVE",
"468 82 CURVE SMOOTH",
"468 67 OFFCURVE",
"478 57 OFFCURVE",
"493 57 CURVE SMOOTH"
);
},
{
closed = 1;
nodes = (
"259 425 OFFCURVE",
"269 435 OFFCURVE",
"269 451 CURVE SMOOTH",
"269 466 OFFCURVE",
"259 476 OFFCURVE",
"244 476 CURVE SMOOTH",
"228 476 OFFCURVE",
"218 466 OFFCURVE",
"218 451 CURVE SMOOTH",
"218 435 OFFCURVE",
"228 425 OFFCURVE",
"244 425 CURVE SMOOTH"
);
},
{
closed = 1;
nodes = (
"558 130 OFFCURVE",
"568 141 OFFCURVE",
"568 157 CURVE SMOOTH",
"568 171 OFFCURVE",
"558 181 OFFCURVE",
"543 181 CURVE SMOOTH",
"528 181 OFFCURVE",
"518 171 OFFCURVE",
"518 157 CURVE SMOOTH",
"518 141 OFFCURVE",
"528 130 OFFCURVE",
"543 130 CURVE SMOOTH"
);
},
{
closed = 1;
nodes = (
"573 216 OFFCURVE",
"583 226 OFFCURVE",
"583 242 CURVE SMOOTH",
"583 257 OFFCURVE",
"573 267 OFFCURVE",
"557 267 CURVE SMOOTH",
"542 267 OFFCURVE",
"532 257 OFFCURVE",
"532 242 CURVE SMOOTH",
"532 226 OFFCURVE",
"542 216 OFFCURVE",
"557 216 CURVE SMOOTH"
);
},
{
closed = 1;
nodes = (
"347 443 OFFCURVE",
"357 453 OFFCURVE",
"357 468 CURVE SMOOTH",
"357 484 OFFCURVE",
"347 493 OFFCURVE",
"332 493 CURVE SMOOTH",
"317 493 OFFCURVE",
"307 484 OFFCURVE",
"307 468 CURVE SMOOTH",
"307 453 OFFCURVE",
"317 443 OFFCURVE",
"332 443 CURVE SMOOTH"
);
},
{
closed = 1;
nodes = (
"558 303 OFFCURVE",
"568 312 OFFCURVE",
"568 328 CURVE SMOOTH",
"568 343 OFFCURVE",
"558 353 OFFCURVE",
"543 353 CURVE SMOOTH",
"528 353 OFFCURVE",
"518 343 OFFCURVE",
"518 328 CURVE SMOOTH",
"518 312 OFFCURVE",
"528 303 OFFCURVE",
"543 303 CURVE SMOOTH"
);
},
{
closed = 1;
nodes = (
"509 377 OFFCURVE",
"519 386 OFFCURVE",
"519 402 CURVE SMOOTH",
"519 417 OFFCURVE",
"509 427 OFFCURVE",
"493 427 CURVE SMOOTH",
"478 427 OFFCURVE",
"468 417 OFFCURVE",
"468 402 CURVE SMOOTH",
"468 386 OFFCURVE",
"478 377 OFFCURVE",
"493 377 CURVE SMOOTH"
);
}
);
width = 666;
},
{
layerId = "51C2DFEF-3776-4D13-9284-96485B799B57";
width = 600;
},
{
layerId = "0B2E441B-685E-400D-9B9B-E078DEED62EF";
width = 600;
}
);
unicode = 25CC;
},
{
glyphname = lozenge;
lastChange = "2017-09-10 18:11:30 +0000";
layers = (
{
layerId = "F333AEC5-BB61-4D5E-9EDD-6124322D28F2";
paths = (
{
closed = 1;
nodes = (
"312 0 LINE",
"507 357 LINE",
"312 694 LINE",
"240 694 LINE",
"62 357 LINE",
"240 0 LINE"
);
},
{
closed = 1;
nodes = (
"291 56 LINE",
"129 385 LINE",
"129 329 LINE",
"292 640 LINE",
"261 640 LINE",
"439 329 LINE",
"439 384 LINE",
"262 56 LINE"
);
}
);
width = 566;
},
{
layerId = "51C2DFEF-3776-4D13-9284-96485B799B57";
width = 600;
},
{
layerId = "0B2E441B-685E-400D-9B9B-E078DEED62EF";
width = 600;
}
);
unicode = 25CA;
},
{
glyphname = mediumBlackSmallSquare;
lastChange = "2017-09-10 18:11:30 +0000";
layers = (
{
layerId = "F333AEC5-BB61-4D5E-9EDD-6124322D28F2";
paths = (
{
closed = 1;
nodes = (
"607 99 LINE",
"607 575 LINE",
"131 575 LINE",
"131 99 LINE"
);
}
);
width = 738;
},
{
layerId = "51C2DFEF-3776-4D13-9284-96485B799B57";
width = 600;
},
{
layerId = "0B2E441B-685E-400D-9B9B-E078DEED62EF";
width = 600;
}
);
note = uni25FE;
unicode = 25FE;
},
{
glyphname = at;
lastChange = "2017-09-10 18:11:30 +0000";
layers = (
{
layerId = "F333AEC5-BB61-4D5E-9EDD-6124322D28F2";
paths = (
{
closed = 1;
nodes = (
"562 -164 OFFCURVE",
"635 -153 OFFCURVE",
"681 -136 CURVE",
"667 -80 LINE",
"620 -94 OFFCURVE",
"558 -104 OFFCURVE",
"505 -104 CURVE SMOOTH",
"290 -104 OFFCURVE",
"145 42 OFFCURVE",
"145 263 CURVE SMOOTH",
"145 488 OFFCURVE",
"295 644 OFFCURVE",
"520 644 CURVE SMOOTH",
"718 644 OFFCURVE",
"852 523 OFFCURVE",
"852 325 CURVE SMOOTH",
"852 204 OFFCURVE",
"802 117 OFFCURVE",
"724 117 CURVE SMOOTH",
"693 117 OFFCURVE",
"668 131 OFFCURVE",
"668 166 CURVE",
"596 168 LINE",
"596 98 OFFCURVE",
"646 61 OFFCURVE",
"715 61 CURVE SMOOTH",
"837 61 OFFCURVE",
"917 176 OFFCURVE",
"917 338 CURVE SMOOTH",
"917 564 OFFCURVE",
"762 704 OFFCURVE",
"529 704 CURVE SMOOTH",
"261 704 OFFCURVE",
"81 519 OFFCURVE",
"81 254 CURVE SMOOTH",
"81 0 OFFCURVE",
"247 -164 OFFCURVE",
"497 -164 CURVE SMOOTH"
);
},
{
closed = 1;
nodes = (
"525 51 OFFCURVE",
"578 80 OFFCURVE",
"615 118 CURVE",
"597 168 LINE",
"571 134 OFFCURVE",
"528 111 OFFCURVE",
"486 111 CURVE SMOOTH",
"422 111 OFFCURVE",
"379 165 OFFCURVE",
"379 257 CURVE SMOOTH",
"379 351 OFFCURVE",
"424 422 OFFCURVE",
"500 422 CURVE SMOOTH",
"550 422 OFFCURVE",
"593 391 OFFCURVE",
"616 344 CURVE",
"620 419 LINE",
"604 449 OFFCURVE",
"569 482 OFFCURVE",
"506 482 CURVE SMOOTH",
"401 482 OFFCURVE",
"304 391 OFFCURVE",
"304 247 CURVE SMOOTH",
"304 127 OFFCURVE",
"372 51 OFFCURVE",
"467 51 CURVE SMOOTH"
);
},
{
closed = 1;
nodes = (
"667 154 LINE",
"689 470 LINE",
"630 470 LINE",
"611 388 LINE",
"595 154 LINE"
);
}
);
width = 992;
},
{
layerId = "51C2DFEF-3776-4D13-9284-96485B799B57";
width = 600;
},
{
layerId = "0B2E441B-685E-400D-9B9B-E078DEED62EF";
width = 600;
}
);
unicode = 0040;
},
{
glyphname = ampersand;
lastChange = "2017-09-10 18:11:30 +0000";
layers = (
{
layerId = "F333AEC5-BB61-4D5E-9EDD-6124322D28F2";
paths = (
{
closed = 1;
nodes = (
"640 52 LINE",
"293 337 OFFCURVE",
"228 418 OFFCURVE",
"228 523 CURVE SMOOTH",
"228 597 OFFCURVE",
"261 634 OFFCURVE",
"323 634 CURVE SMOOTH",
"381 634 OFFCURVE",
"421 600 OFFCURVE",
"421 551 CURVE SMOOTH",
"421 403 OFFCURVE",
"71 426 OFFCURVE",
"71 187 CURVE SMOOTH",
"71 69 OFFCURVE",
"156 -12 OFFCURVE",
"282 -12 CURVE SMOOTH",
"423 -12 OFFCURVE",
"548 88 OFFCURVE",
"642 277 CURVE",
"577 315 LINE",
"496 150 OFFCURVE",
"400 61 OFFCURVE",
"294 61 CURVE SMOOTH",
"211 61 OFFCURVE",
"153 116 OFFCURVE",
"153 194 CURVE SMOOTH",
"153 386 OFFCURVE",
"501 352 OFFCURVE",
"501 554 CURVE SMOOTH",
"501 643 OFFCURVE",
"433 704 OFFCURVE",
"331 704 CURVE SMOOTH",
"220 704 OFFCURVE",
"148 631 OFFCURVE",
"148 512 CURVE SMOOTH",
"148 395 OFFCURVE",
"217 295 OFFCURVE",
"587 -10 CURVE"
);
}
);
width = 711;
},
{
layerId = "51C2DFEF-3776-4D13-9284-96485B799B57";
width = 600;
},
{
layerId = "0B2E441B-685E-400D-9B9B-E078DEED62EF";
width = 600;
}
);
unicode = 0026;
},
{
glyphname = paragraph;
lastChange = "2017-09-10 18:11:30 +0000";
layers = (
{
layerId = "F333AEC5-BB61-4D5E-9EDD-6124322D28F2";
paths = (
{
closed = 1;
nodes = (
"373 -170 LINE",
"373 625 LINE",
"520 625 LINE",
"520 -170 LINE",
"603 -170 LINE",
"603 694 LINE",
"322 694 LINE SMOOTH",
"167 694 OFFCURVE",
"63 611 OFFCURVE",
"63 479 CURVE SMOOTH",
"63 356 OFFCURVE",
"153 269 OFFCURVE",
"290 269 CURVE",
"290 -170 LINE"
);
}
);
width = 734;
},
{
layerId = "51C2DFEF-3776-4D13-9284-96485B799B57";
width = 600;
},
{
layerId = "0B2E441B-685E-400D-9B9B-E078DEED62EF";
width = 600;
}
);
unicode = 00B6;
},
{
glyphname = section;
lastChange = "2017-09-10 18:11:30 +0000";
layers = (
{
layerId = "F333AEC5-BB61-4D5E-9EDD-6124322D28F2";
paths = (
{
closed = 1;
nodes = (
"393 -10 OFFCURVE",
"470 47 OFFCURVE",
"470 137 CURVE SMOOTH",
"470 311 OFFCURVE",
"182 254 OFFCURVE",
"182 355 CURVE SMOOTH",
"182 395 OFFCURVE",
"230 429 OFFCURVE",
"287 429 CURVE",
"301 469 LINE",
"182 469 OFFCURVE",
"102 420 OFFCURVE",
"102 341 CURVE SMOOTH",
"102 186 OFFCURVE",
"390 243 OFFCURVE",
"390 128 CURVE SMOOTH",
"390 85 OFFCURVE",
"350 60 OFFCURVE",
"279 60 CURVE SMOOTH",
"225 60 OFFCURVE",
"158 74 OFFCURVE",
"113 94 CURVE",
"94 27 LINE",
"148 4 OFFCURVE",
"213 -10 OFFCURVE",
"270 -10 CURVE SMOOTH"
);
},
{
closed = 1;
nodes = (
"390 224 OFFCURVE",
"470 280 OFFCURVE",
"470 363 CURVE SMOOTH",
"470 518 OFFCURVE",
"182 463 OFFCURVE",
"182 570 CURVE SMOOTH",
"182 609 OFFCURVE",
"222 633 OFFCURVE",
"287 633 CURVE SMOOTH",
"329 633 OFFCURVE",
"384 623 OFFCURVE",
"425 609 CURVE",
"444 674 LINE",
"401 693 OFFCURVE",
"351 703 OFFCURVE",
"300 703 CURVE SMOOTH",
"180 703 OFFCURVE",
"102 647 OFFCURVE",
"102 561 CURVE SMOOTH",
"102 394 OFFCURVE",
"390 454 OFFCURVE",
"390 341 CURVE SMOOTH",
"390 299 OFFCURVE",
"352 274 OFFCURVE",
"283 274 CURVE",
"269 224 LINE"
);
}
);
width = 564;
},
{
layerId = "51C2DFEF-3776-4D13-9284-96485B799B57";
width = 600;
},
{
layerId = "0B2E441B-685E-400D-9B9B-E078DEED62EF";
width = 600;
}
);
unicode = 00A7;
},
{
glyphname = copyright;
lastChange = "2017-09-10 18:11:30 +0000";
layers = (
{
layerId = "F333AEC5-BB61-4D5E-9EDD-6124322D28F2";
paths = (
{
closed = 1;
nodes = (
"647 -3 OFFCURVE",
"797 143 OFFCURVE",
"797 350 CURVE SMOOTH",
"797 553 OFFCURVE",
"650 697 OFFCURVE",
"443 697 CURVE SMOOTH",
"232 697 OFFCURVE",
"82 549 OFFCURVE",
"82 340 CURVE SMOOTH",
"82 139 OFFCURVE",
"228 -3 OFFCURVE",
"435 -3 CURVE SMOOTH"
);
},
{
closed = 1;
nodes = (
"266 55 OFFCURVE",
"140 177 OFFCURVE",
"140 350 CURVE SMOOTH",
"140 519 OFFCURVE",
"262 639 OFFCURVE",
"435 639 CURVE SMOOTH",
"613 639 OFFCURVE",
"739 515 OFFCURVE",
"739 340 CURVE SMOOTH",
"739 173 OFFCURVE",
"617 55 OFFCURVE",
"445 55 CURVE SMOOTH"
);
},
{
closed = 1;
nodes = (
"484 136 OFFCURVE",
"524 145 OFFCURVE",
"570 162 CURVE",
"552 214 LINE",
"515 199 OFFCURVE",
"482 193 OFFCURVE",
"456 193 CURVE SMOOTH",
"367 193 OFFCURVE",
"303 259 OFFCURVE",
"303 354 CURVE SMOOTH",
"303 441 OFFCURVE",
"361 504 OFFCURVE",
"439 504 CURVE SMOOTH",
"468 504 OFFCURVE",
"508 496 OFFCURVE",
"545 479 CURVE",
"568 539 LINE",
"524 554 OFFCURVE",
"484 561 OFFCURVE",
"451 561 CURVE SMOOTH",
"327 561 OFFCURVE",
"240 472 OFFCURVE",
"240 344 CURVE SMOOTH",
"240 221 OFFCURVE",
"322 136 OFFCURVE",
"444 136 CURVE SMOOTH"
);
}
);
width = 879;
},
{
layerId = "51C2DFEF-3776-4D13-9284-96485B799B57";
width = 600;
},
{
layerId = "0B2E441B-685E-400D-9B9B-E078DEED62EF";
width = 600;
}
);
unicode = 00A9;
},
{
glyphname = registered;
lastChange = "2017-09-10 18:11:30 +0000";
layers = (
{
layerId = "F333AEC5-BB61-4D5E-9EDD-6124322D28F2";
paths = (
{
closed = 1;
nodes = (
"463 279 OFFCURVE",
"564 377 OFFCURVE",
"564 515 CURVE SMOOTH",
"564 652 OFFCURVE",
"465 749 OFFCURVE",
"326 749 CURVE SMOOTH",
"184 749 OFFCURVE",
"83 649 OFFCURVE",
"83 510 CURVE SMOOTH",
"83 374 OFFCURVE",
"181 279 OFFCURVE",
"321 279 CURVE SMOOTH"
);
},
{
closed = 1;
nodes = (
"212 325 OFFCURVE",
"130 405 OFFCURVE",
"130 516 CURVE SMOOTH",
"130 625 OFFCURVE",
"209 703 OFFCURVE",
"321 703 CURVE SMOOTH",
"435 703 OFFCURVE",
"517 622 OFFCURVE",
"517 510 CURVE SMOOTH",
"517 401 OFFCURVE",
"439 325 OFFCURVE",
"327 325 CURVE SMOOTH"
);
},
{
closed = 1;
nodes = (
"279 382 LINE",
"279 622 LINE",
"275 612 LINE",
"322 612 LINE SMOOTH",
"351 612 OFFCURVE",
"371 597 OFFCURVE",
"371 570 CURVE SMOOTH",
"371 547 OFFCURVE",
"356 532 OFFCURVE",
"325 532 CURVE SMOOTH",
"249 532 LINE",
"249 490 LINE",
"322 490 LINE SMOOTH",
"379 490 OFFCURVE",
"418 524 OFFCURVE",
"418 574 CURVE SMOOTH",
"418 623 OFFCURVE",
"381 654 OFFCURVE",
"325 654 CURVE SMOOTH",
"233 654 LINE",
"233 382 LINE"
);
},
{
closed = 1;
nodes = (
"437 382 LINE",
"360 515 LINE",
"310 515 LINE",
"386 382 LINE"
);
}
);
width = 647;
},
{
layerId = "51C2DFEF-3776-4D13-9284-96485B799B57";
width = 600;
},
{
layerId = "0B2E441B-685E-400D-9B9B-E078DEED62EF";
width = 600;
}
);
unicode = 00AE;
},
{
glyphname = trademark;
lastChange = "2017-09-10 18:11:30 +0000";
layers = (
{
layerId = "F333AEC5-BB61-4D5E-9EDD-6124322D28F2";
paths = (
{
closed = 1;
nodes = (
"258 361 LINE",
"258 674 LINE",
"190 674 LINE",
"190 361 LINE"
);
},
{
closed = 1;
nodes = (
"383 634 LINE",
"383 694 LINE",
"66 694 LINE",
"66 634 LINE"
);
},
{
closed = 1;
nodes = (
"504 361 LINE",
"504 615 LINE",
"495 615 LINE",
"607 411 LINE",
"637 411 LINE",
"753 610 LINE",
"744 610 LINE",
"744 361 LINE",
"804 361 LINE",
"804 694 LINE",
"742 694 LINE",
"612 469 LINE",
"634 469 LINE",
"514 694 LINE",
"444 694 LINE",
"444 361 LINE"
);
}
);
width = 935;
},
{
layerId = "51C2DFEF-3776-4D13-9284-96485B799B57";
width = 600;
},
{
layerId = "0B2E441B-685E-400D-9B9B-E078DEED62EF";
width = 600;
}
);
unicode = 2122;
},
{
glyphname = degree;
lastChange = "2017-09-10 18:11:30 +0000";
layers = (
{
layerId = "F333AEC5-BB61-4D5E-9EDD-6124322D28F2";
paths = (
{
closed = 1;
nodes = (
"334 417 OFFCURVE",
"391 475 OFFCURVE",
"391 560 CURVE SMOOTH",
"391 647 OFFCURVE",
"334 704 OFFCURVE",
"249 704 CURVE SMOOTH",
"163 704 OFFCURVE",
"106 647 OFFCURVE",
"106 560 CURVE SMOOTH",
"106 475 OFFCURVE",
"163 417 OFFCURVE",
"249 417 CURVE SMOOTH"
);
},
{
closed = 1;
nodes = (
"202 484 OFFCURVE",
"171 515 OFFCURVE",
"171 560 CURVE SMOOTH",
"171 608 OFFCURVE",
"202 639 OFFCURVE",
"249 639 CURVE SMOOTH",
"295 639 OFFCURVE",
"326 608 OFFCURVE",
"326 560 CURVE SMOOTH",
"326 515 OFFCURVE",
"295 484 OFFCURVE",
"249 484 CURVE SMOOTH"
);
}
);
width = 498;
},
{
layerId = "51C2DFEF-3776-4D13-9284-96485B799B57";
width = 600;
},
{
layerId = "0B2E441B-685E-400D-9B9B-E078DEED62EF";
width = 600;
}
);
unicode = 00B0;
},
{
glyphname = bar;
lastChange = "2017-09-10 18:11:30 +0000";
layers = (
{
layerId = "F333AEC5-BB61-4D5E-9EDD-6124322D28F2";
paths = (
{
closed = 1;
nodes = (
"211 -157 LINE",
"211 739 LINE",
"131 739 LINE",
"131 -157 LINE"
);
}
);
width = 342;
},
{
layerId = "51C2DFEF-3776-4D13-9284-96485B799B57";
width = 600;
},
{
layerId = "0B2E441B-685E-400D-9B9B-E078DEED62EF";
width = 600;
}
);
unicode = 007C;
},
{
glyphname = brokenbar;
lastChange = "2017-09-10 18:11:30 +0000";
layers = (
{
layerId = "F333AEC5-BB61-4D5E-9EDD-6124322D28F2";
paths = (
{
closed = 1;
nodes = (
"211 -157 LINE",
"211 131 LINE",
"131 131 LINE",
"131 -157 LINE"
);
},
{
closed = 1;
nodes = (
"211 462 LINE",
"211 739 LINE",
"131 739 LINE",
"131 462 LINE"
);
}
);
width = 342;
},
{
layerId = "51C2DFEF-3776-4D13-9284-96485B799B57";
width = 600;
},
{
layerId = "0B2E441B-685E-400D-9B9B-E078DEED62EF";
width = 600;
}
);
unicode = 00A6;
},
{
glyphname = dagger;
lastChange = "2017-09-10 18:11:30 +0000";
layers = (
{
layerId = "F333AEC5-BB61-4D5E-9EDD-6124322D28F2";
paths = (
{
closed = 1;
nodes = (
"254 0 LINE",
"241 540 LINE",
"254 694 LINE",
"170 694 LINE",
"178 540 LINE",
"170 0 LINE"
);
},
{
closed = 1;
nodes = (
"207 512 LINE",
"207 568 LINE",
"58 575 LINE",
"58 505 LINE"
);
},
{
closed = 1;
nodes = (
"368 575 LINE",
"215 568 LINE",
"215 512 LINE",
"368 505 LINE"
);
}
);
width = 426;
},
{
layerId = "51C2DFEF-3776-4D13-9284-96485B799B57";
width = 600;
},
{
layerId = "0B2E441B-685E-400D-9B9B-E078DEED62EF";
width = 600;
}
);
unicode = 2020;
},
{
glyphname = literSign;
lastChange = "2017-09-10 18:11:30 +0000";
layers = (
{
layerId = "F333AEC5-BB61-4D5E-9EDD-6124322D28F2";
paths = (
{
closed = 1;
nodes = (
"327 -10 OFFCURVE",
"361 -1 OFFCURVE",
"387 15 CURVE",
"373 71 LINE",
"355 61 OFFCURVE",
"331 55 OFFCURVE",
"313 55 CURVE SMOOTH",
"272 55 OFFCURVE",
"239 87 OFFCURVE",
"239 135 CURVE SMOOTH",
"239 554 LINE SMOOTH",
"239 633 OFFCURVE",
"257 679 OFFCURVE",
"283 679 CURVE SMOOTH",
"303 679 OFFCURVE",
"317 654 OFFCURVE",
"317 610 CURVE SMOOTH",
"317 499 OFFCURVE",
"229 364 OFFCURVE",
"48 135 CURVE",
"94 97 LINE",
"312 369 OFFCURVE",
"397 510 OFFCURVE",
"397 622 CURVE SMOOTH",
"397 700 OFFCURVE",
"356 749 OFFCURVE",
"290 749 CURVE SMOOTH",
"207 749 OFFCURVE",
"159 673 OFFCURVE",
"159 544 CURVE SMOOTH",
"159 117 LINE SMOOTH",
"159 41 OFFCURVE",
"219 -10 OFFCURVE",
"295 -10 CURVE SMOOTH"
);
}
);
width = 476;
},
{
layerId = "51C2DFEF-3776-4D13-9284-96485B799B57";
width = 600;
},
{
layerId = "0B2E441B-685E-400D-9B9B-E078DEED62EF";
width = 600;
}
);
unicode = 2113;
},
{
glyphname = daggerdbl;
lastChange = "2017-09-10 18:11:30 +0000";
layers = (
{
layerId = "F333AEC5-BB61-4D5E-9EDD-6124322D28F2";
paths = (
{
closed = 1;
nodes = (
"277 0 LINE",
"265 155 LINE",
"273 346 LINE",
"265 526 LINE",
"277 694 LINE",
"194 694 LINE",
"202 526 LINE",
"194 346 LINE",
"202 155 LINE",
"194 0 LINE"
);
},
{
closed = 1;
nodes = (
"230 126 LINE",
"230 182 LINE",
"81 189 LINE",
"81 119 LINE"
);
},
{
closed = 1;
nodes = (
"391 189 LINE",
"239 182 LINE",
"239 126 LINE",
"391 119 LINE"
);
},
{
closed = 1;
nodes = (
"230 512 LINE",
"230 568 LINE",
"81 575 LINE",
"81 505 LINE"
);
},
{
closed = 1;
nodes = (
"391 575 LINE",
"239 568 LINE",
"239 512 LINE",
"391 505 LINE"
);
}
);
width = 472;
},
{
layerId = "51C2DFEF-3776-4D13-9284-96485B799B57";
width = 600;
},
{
layerId = "0B2E441B-685E-400D-9B9B-E078DEED62EF";
width = 600;
}
);
unicode = 2021;
},
{
glyphname = estimated;
lastChange = "2017-09-10 18:11:30 +0000";
layers = (
{
layerId = "F333AEC5-BB61-4D5E-9EDD-6124322D28F2";
paths = (
{
closed = 1;
nodes = (
"562 -10 OFFCURVE",
"686 42 OFFCURVE",
"758 119 CURVE",
"692 119 LINE",
"620 62 OFFCURVE",
"528 36 OFFCURVE",
"439 36 CURVE SMOOTH",
"317 36 OFFCURVE",
"243 84 OFFCURVE",
"196 145 CURVE",
"196 315 LINE",
"779 315 LINE",
"779 545 OFFCURVE",
"662 704 OFFCURVE",
"434 704 CURVE SMOOTH",
"203 704 OFFCURVE",
"85 541 OFFCURVE",
"85 339 CURVE SMOOTH",
"85 123 OFFCURVE",
"221 -10 OFFCURVE",
"431 -10 CURVE SMOOTH"
);
},
{
closed = 1;
nodes = (
"196 535 LINE",
"242 619 OFFCURVE",
"317 662 OFFCURVE",
"431 662 CURVE SMOOTH",
"545 662 OFFCURVE",
"619 619 OFFCURVE",
"665 535 CURVE",
"665 358 LINE",
"196 358 LINE"
);
}
);
width = 854;
},
{
layerId = "51C2DFEF-3776-4D13-9284-96485B799B57";
width = 600;
},
{
layerId = "0B2E441B-685E-400D-9B9B-E078DEED62EF";
width = 600;
}
);
unicode = 212E;
},
{
glyphname = asciicircum;
lastChange = "2017-09-10 18:11:30 +0000";
layers = (
{
layerId = "F333AEC5-BB61-4D5E-9EDD-6124322D28F2";
paths = (
{
closed = 1;
nodes = (
"259 616 LINE",
"250 616 LINE",
"383 466 LINE",
"441 518 LINE",
"285 694 LINE",
"238 694 LINE",
"71 510 LINE",
"121 465 LINE"
);
}
);
width = 516;
},
{
layerId = "51C2DFEF-3776-4D13-9284-96485B799B57";
width = 600;
},
{
layerId = "0B2E441B-685E-400D-9B9B-E078DEED62EF";
width = 600;
}
);
unicode = 005E;
},
{
glyphname = blank;
lastChange = "2017-09-10 18:11:30 +0000";
layers = (
{
layerId = "F333AEC5-BB61-4D5E-9EDD-6124322D28F2";
paths = (
{
closed = 1;
nodes = (
"697 0 LINE",
"697 166 LINE",
"624 166 LINE",
"624 73 LINE",
"204 73 LINE",
"204 166 LINE",
"131 166 LINE",
"131 0 LINE"
);
}
);
width = 828;
},
{
layerId = "51C2DFEF-3776-4D13-9284-96485B799B57";
width = 600;
},
{
layerId = "0B2E441B-685E-400D-9B9B-E078DEED62EF";
width = 600;
}
);
note = uni2423;
unicode = 2423;
},
{
glyphname = caroncomb.alt;
lastChange = "2017-09-10 18:11:30 +0000";
layers = (
{
anchors = (
{
name = _topright;
position = "{120, 482}";
}
);
layerId = "F333AEC5-BB61-4D5E-9EDD-6124322D28F2";
paths = (
{
closed = 1;
nodes = (
"173 741 LINE",
"99 749 LINE",
"79 558 LINE",
"132 553 LINE"
);
}
);
width = 233;
},
{
layerId = "51C2DFEF-3776-4D13-9284-96485B799B57";
width = 600;
},
{
layerId = "0B2E441B-685E-400D-9B9B-E078DEED62EF";
width = 600;
}
);
},
{
glyphname = ringcomb;
lastChange = "2017-09-10 18:11:30 +0000";
layers = (
{
anchors = (
{
name = _top;
position = "{173, 482}";
},
{
name = top;
position = "{176, 739}";
}
);
layerId = "F333AEC5-BB61-4D5E-9EDD-6124322D28F2";
paths = (
{
closed = 1;
nodes = (
"234 555 OFFCURVE",
"277 599 OFFCURVE",
"277 659 CURVE SMOOTH",
"277 720 OFFCURVE",
"234 763 OFFCURVE",
"173 763 CURVE SMOOTH",
"113 763 OFFCURVE",
"69 720 OFFCURVE",
"69 659 CURVE SMOOTH",
"69 599 OFFCURVE",
"113 555 OFFCURVE",
"173 555 CURVE SMOOTH"
);
},
{
closed = 1;
nodes = (
"147 611 OFFCURVE",
"125 633 OFFCURVE",
"125 661 CURVE SMOOTH",
"125 689 OFFCURVE",
"147 711 OFFCURVE",
"175 711 CURVE SMOOTH",
"203 711 OFFCURVE",
"225 689 OFFCURVE",
"225 661 CURVE SMOOTH",
"225 633 OFFCURVE",
"203 611 OFFCURVE",
"175 611 CURVE SMOOTH"
);
}
);
width = 346;
},
{
layerId = "51C2DFEF-3776-4D13-9284-96485B799B57";
width = 600;
},
{
layerId = "0B2E441B-685E-400D-9B9B-E078DEED62EF";
width = 600;
}
);
unicode = 030A;
},
{
glyphname = tildecomb;
lastChange = "2017-09-10 18:11:30 +0000";
layers = (
{
anchors = (
{
name = _top;
position = "{235, 482}";
},
{
name = top;
position = "{235, 669}";
}
);
layerId = "F333AEC5-BB61-4D5E-9EDD-6124322D28F2";
paths = (
{
closed = 1;
nodes = (
"127 619 OFFCURVE",
"151 643 OFFCURVE",
"175 643 CURVE SMOOTH",
"214 643 OFFCURVE",
"237 582 OFFCURVE",
"295 582 CURVE SMOOTH",
"344 582 OFFCURVE",
"386 626 OFFCURVE",
"406 700 CURVE",
"353 709 LINE",
"343 668 OFFCURVE",
"325 648 OFFCURVE",
"301 648 CURVE SMOOTH",
"258 648 OFFCURVE",
"236 710 OFFCURVE",
"180 710 CURVE SMOOTH",
"131 710 OFFCURVE",
"84 663 OFFCURVE",
"64 591 CURVE",
"117 582 LINE"
);
}
);
width = 470;
},
{
layerId = "51C2DFEF-3776-4D13-9284-96485B799B57";
width = 600;
},
{
layerId = "0B2E441B-685E-400D-9B9B-E078DEED62EF";
width = 600;
}
);
unicode = 0303;
},
{
glyphname = hookabovecomb;
lastChange = "2017-09-10 18:11:30 +0000";
layers = (
{
anchors = (
{
name = _top;
position = "{143, 482}";
},
{
name = top;
position = "{135, 709}";
}
);
layerId = "F333AEC5-BB61-4D5E-9EDD-6124322D28F2";
paths = (
{
closed = 1;
nodes = (
"209 584 OFFCURVE",
"248 636 OFFCURVE",
"248 688 CURVE SMOOTH",
"248 739 OFFCURVE",
"210 772 OFFCURVE",
"152 772 CURVE SMOOTH",
"119 772 OFFCURVE",
"82 761 OFFCURVE",
"40 740 CURVE",
"59 686 LINE",
"87 700 OFFCURVE",
"115 709 OFFCURVE",
"135 709 CURVE SMOOTH",
"162 709 OFFCURVE",
"181 693 OFFCURVE",
"181 669 CURVE SMOOTH",
"181 642 OFFCURVE",
"157 611 OFFCURVE",
"121 591 CURVE",
"136 549 LINE"
);
}
);
width = 309;
},
{
layerId = "51C2DFEF-3776-4D13-9284-96485B799B57";
width = 600;
},
{
layerId = "0B2E441B-685E-400D-9B9B-E078DEED62EF";
width = 600;
}
);
unicode = 0309;
},
{
glyphname = horncomb;
lastChange = "2017-09-10 18:11:30 +0000";
layers = (
{
anchors = (
{
name = _topright;
position = "{142, 482}";
},
{
name = topright;
position = "{142, 482}";
}
);
layerId = "F333AEC5-BB61-4D5E-9EDD-6124322D28F2";
paths = (
{
closed = 1;
nodes = (
"150 427 OFFCURVE",
"219 500 OFFCURVE",
"219 610 CURVE",
"139 610 LINE",
"139 534 OFFCURVE",
"102 483 OFFCURVE",
"46 482 CURVE",
"46 427 LINE"
);
}
);
width = 284;
},
{
layerId = "51C2DFEF-3776-4D13-9284-96485B799B57";
width = 600;
},
{
layerId = "0B2E441B-685E-400D-9B9B-E078DEED62EF";
width = 600;
}
);
unicode = 031B;
},
{
glyphname = cedillacomb;
lastChange = "2017-09-10 18:11:30 +0000";
layers = (
{
anchors = (
{
name = _bottom;
position = "{201, 0}";
},
{
name = bottom;
position = "{291, -230}";
}
);
associatedMasterId = "F333AEC5-BB61-4D5E-9EDD-6124322D28F2";
layerId = "8267F91D-1D2D-4BD0-A3F6-1A108ACC4797";
name = "Aug 10 17, 20:24";
paths = (
{
closed = 1;
nodes = (
"232 -254 OFFCURVE",
"286 -201 OFFCURVE",
"286 -124 CURVE SMOOTH",
"286 -73 OFFCURVE",
"262 -22 OFFCURVE",
"226 7 CURVE",
"163 7 LINE",
"196 -23 OFFCURVE",
"218 -67 OFFCURVE",
"218 -107 CURVE SMOOTH",
"218 -155 OFFCURVE",
"186 -187 OFFCURVE",
"134 -187 CURVE SMOOTH",
"107 -187 OFFCURVE",
"72 -178 OFFCURVE",
"50 -165 CURVE",
"35 -227 LINE",
"64 -243 OFFCURVE",
"112 -254 OFFCURVE",
"150 -254 CURVE SMOOTH"
);
}
);
width = 353;
},
{
anchors = (
{
name = _bottom;
position = "{182, 0}";
},
{
name = bottom;
position = "{291, -230}";
}
);
layerId = "F333AEC5-BB61-4D5E-9EDD-6124322D28F2";
paths = (
{
closed = 1;
nodes = (
"258 -229 OFFCURVE",
"310 -191 OFFCURVE",
"310 -132 CURVE SMOOTH",
"310 -81 OFFCURVE",
"271 -51 OFFCURVE",
"196 -45 CURVE",
"207 5 LINE",
"152 5 LINE",
"130 -89 LINE",
"204 -94 OFFCURVE",
"239 -111 OFFCURVE",
"239 -142 CURVE SMOOTH",
"239 -164 OFFCURVE",
"221 -174 OFFCURVE",
"184 -174 CURVE SMOOTH",
"154 -174 OFFCURVE",
"125 -168 OFFCURVE",
"101 -155 CURVE",
"84 -209 LINE",
"110 -222 OFFCURVE",
"143 -229 OFFCURVE",
"178 -229 CURVE SMOOTH"
);
}
);
width = 353;
},
{
layerId = "51C2DFEF-3776-4D13-9284-96485B799B57";
width = 600;
},
{
layerId = "0B2E441B-685E-400D-9B9B-E078DEED62EF";
width = 600;
}
);
unicode = 0327;
},
{
glyphname = ogonekcomb;
lastChange = "2017-09-10 18:11:30 +0000";
layers = (
{
anchors = (
{
name = _ogonek;
position = "{251, 10}";
}
);
layerId = "F333AEC5-BB61-4D5E-9EDD-6124322D28F2";
paths = (
{
closed = 1;
nodes = (
"225 -229 OFFCURVE",
"247 -220 OFFCURVE",
"264 -209 CURVE",
"258 -165 LINE",
"244 -171 OFFCURVE",
"228 -175 OFFCURVE",
"214 -175 CURVE SMOOTH",
"182 -175 OFFCURVE",
"162 -153 OFFCURVE",
"162 -118 CURVE SMOOTH",
"162 -64 OFFCURVE",
"209 -16 OFFCURVE",
"269 0 CURVE",
"229 13 LINE",
"147 -8 OFFCURVE",
"91 -61 OFFCURVE",
"91 -132 CURVE SMOOTH",
"91 -192 OFFCURVE",
"130 -229 OFFCURVE",
"194 -229 CURVE SMOOTH"
);
}
);
width = 323;
},
{
layerId = "51C2DFEF-3776-4D13-9284-96485B799B57";
width = 600;
},
{
layerId = "0B2E441B-685E-400D-9B9B-E078DEED62EF";
width = 600;
}
);
unicode = 0328;
},
{
glyphname = strokeshortcomb;
lastChange = "2017-09-10 18:11:30 +0000";
layers = (
{
anchors = (
{
name = _center;
position = "{234, 298}";
}
);
layerId = "F333AEC5-BB61-4D5E-9EDD-6124322D28F2";
paths = (
{
closed = 1;
nodes = (
"380 268 LINE",
"380 328 LINE",
"88 328 LINE",
"88 268 LINE"
);
}
);
width = 468;
},
{
layerId = "51C2DFEF-3776-4D13-9284-96485B799B57";
width = 600;
},
{
layerId = "0B2E441B-685E-400D-9B9B-E078DEED62EF";
width = 600;
}
);
unicode = 0335;
},
{
glyphname = strokelongcomb;
lastChange = "2017-09-10 18:11:30 +0000";
layers = (
{
anchors = (
{
name = _center;
position = "{445, 342}";
}
);
layerId = "F333AEC5-BB61-4D5E-9EDD-6124322D28F2";
paths = (
{
closed = 1;
nodes = (
"801 312 LINE",
"801 372 LINE",
"88 372 LINE",
"88 312 LINE"
);
}
);
width = 889;
},
{
layerId = "51C2DFEF-3776-4D13-9284-96485B799B57";
width = 600;
},
{
layerId = "0B2E441B-685E-400D-9B9B-E078DEED62EF";
width = 600;
}
);
unicode = 0336;
},
{
glyphname = slashshortcomb;
lastChange = "2017-09-10 18:11:30 +0000";
layers = (
{
anchors = (
{
name = _center;
position = "{179, 286}";
}
);
layerId = "F333AEC5-BB61-4D5E-9EDD-6124322D28F2";
paths = (
{
closed = 1;
nodes = (
"320 329 LINE",
"291 379 LINE",
"38 241 LINE",
"68 192 LINE"
);
}
);
width = 355;
},
{
layerId = "51C2DFEF-3776-4D13-9284-96485B799B57";
width = 600;
},
{
layerId = "0B2E441B-685E-400D-9B9B-E078DEED62EF";
width = 600;
}
);
unicode = 0337;
},
{
glyphname = slashlongcomb;
lastChange = "2017-09-10 18:11:30 +0000";
layers = (
{
anchors = (
{
name = _center;
position = "{229, 242}";
}
);
layerId = "F333AEC5-BB61-4D5E-9EDD-6124322D28F2";
paths = (
{
closed = 1;
nodes = (
"440 514 LINE",
"393 543 LINE",
"11 -28 LINE",
"54 -57 LINE"
);
}
);
width = 456;
},
{
layerId = "51C2DFEF-3776-4D13-9284-96485B799B57";
width = 600;
},
{
layerId = "0B2E441B-685E-400D-9B9B-E078DEED62EF";
width = 600;
}
);
unicode = 0338;
},
{
glyphname = tildecomb.case;
lastChange = "2017-09-10 18:11:30 +0000";
layers = (
{
anchors = (
{
name = _top;
position = "{235, 694}";
},
{
name = top;
position = "{236, 876}";
}
);
layerId = "F333AEC5-BB61-4D5E-9EDD-6124322D28F2";
paths = (
{
closed = 1;
nodes = (
"128 811 OFFCURVE",
"152 824 OFFCURVE",
"176 824 CURVE SMOOTH",
"215 824 OFFCURVE",
"238 774 OFFCURVE",
"296 774 CURVE SMOOTH",
"345 774 OFFCURVE",
"387 808 OFFCURVE",
"407 882 CURVE",
"354 891 LINE",
"344 850 OFFCURVE",
"326 840 OFFCURVE",
"302 840 CURVE SMOOTH",
"259 840 OFFCURVE",
"237 891 OFFCURVE",
"181 891 CURVE SMOOTH",
"132 891 OFFCURVE",
"85 855 OFFCURVE",
"65 783 CURVE",
"118 774 LINE"
);
}
);
width = 470;
},
{
layerId = "51C2DFEF-3776-4D13-9284-96485B799B57";
width = 600;
},
{
layerId = "0B2E441B-685E-400D-9B9B-E078DEED62EF";
width = 600;
}
);
},
{
glyphname = hookabovecomb.case;
lastChange = "2017-09-10 18:11:30 +0000";
layers = (
{
anchors = (
{
name = _top;
position = "{143, 694}";
},
{
name = top;
position = "{136, 901}";
}
);
layerId = "F333AEC5-BB61-4D5E-9EDD-6124322D28F2";
paths = (
{
closed = 1;
nodes = (
"209 767 OFFCURVE",
"249 809 OFFCURVE",
"249 860 CURVE SMOOTH",
"249 910 OFFCURVE",
"211 944 OFFCURVE",
"153 944 CURVE SMOOTH",
"121 944 OFFCURVE",
"86 934 OFFCURVE",
"41 912 CURVE",
"60 858 LINE",
"88 872 OFFCURVE",
"118 881 OFFCURVE",
"137 881 CURVE SMOOTH",
"164 881 OFFCURVE",
"182 864 OFFCURVE",
"182 842 CURVE SMOOTH",
"182 818 OFFCURVE",
"160 796 OFFCURVE",
"122 783 CURVE",
"137 741 LINE"
);
}
);
width = 309;
},
{
layerId = "51C2DFEF-3776-4D13-9284-96485B799B57";
width = 600;
},
{
layerId = "0B2E441B-685E-400D-9B9B-E078DEED62EF";
width = 600;
}
);
},
{
glyphname = ogonekcomb.case;
lastChange = "2017-09-10 18:11:30 +0000";
layers = (
{
anchors = (
{
name = _ogonek;
position = "{251, 10}";
}
);
layerId = "F333AEC5-BB61-4D5E-9EDD-6124322D28F2";
paths = (
{
closed = 1;
nodes = (
"225 -229 OFFCURVE",
"247 -220 OFFCURVE",
"264 -209 CURVE",
"258 -165 LINE",
"244 -171 OFFCURVE",
"228 -175 OFFCURVE",
"214 -175 CURVE SMOOTH",
"182 -175 OFFCURVE",
"157 -153 OFFCURVE",
"157 -117 CURVE SMOOTH",
"157 -64 OFFCURVE",
"209 -16 OFFCURVE",
"269 0 CURVE",
"215 17 LINE",
"137 -3 OFFCURVE",
"86 -65 OFFCURVE",
"86 -131 CURVE SMOOTH",
"86 -192 OFFCURVE",
"130 -229 OFFCURVE",
"194 -229 CURVE SMOOTH"
);
}
);
width = 323;
},
{
layerId = "51C2DFEF-3776-4D13-9284-96485B799B57";
width = 600;
},
{
layerId = "0B2E441B-685E-400D-9B9B-E078DEED62EF";
width = 600;
}
);
},
{
glyphname = strokeshortcomb.case;
lastChange = "2017-09-10 18:11:30 +0000";
layers = (
{
anchors = (
{
name = _center;
position = "{234, 298}";
}
);
layerId = "F333AEC5-BB61-4D5E-9EDD-6124322D28F2";
paths = (
{
closed = 1;
nodes = (
"394 267 LINE",
"394 329 LINE",
"74 329 LINE",
"74 267 LINE"
);
}
);
width = 468;
},
{
layerId = "51C2DFEF-3776-4D13-9284-96485B799B57";
width = 600;
},
{
layerId = "0B2E441B-685E-400D-9B9B-E078DEED62EF";
width = 600;
}
);
},
{
glyphname = slashshortcomb.case;
lastChange = "2017-09-10 18:11:30 +0000";
layers = (
{
anchors = (
{
name = _center;
position = "{181, 282}";
}
);
layerId = "F333AEC5-BB61-4D5E-9EDD-6124322D28F2";
paths = (
{
closed = 1;
nodes = (
"324 321 LINE",
"291 379 LINE",
"38 241 LINE",
"72 184 LINE"
);
}
);
width = 355;
},
{
layerId = "51C2DFEF-3776-4D13-9284-96485B799B57";
width = 600;
},
{
layerId = "0B2E441B-685E-400D-9B9B-E078DEED62EF";
width = 600;
}
);
},
{
glyphname = slashlongcomb.case;
lastChange = "2017-09-10 18:11:30 +0000";
layers = (
{
anchors = (
{
name = _center;
position = "{270, 349}";
}
);
layerId = "F333AEC5-BB61-4D5E-9EDD-6124322D28F2";
paths = (
{
closed = 1;
nodes = (
"543 709 LINE",
"489 744 LINE",
"-1 -4 LINE",
"50 -39 LINE"
);
}
);
width = 550;
},
{
layerId = "51C2DFEF-3776-4D13-9284-96485B799B57";
width = 600;
},
{
layerId = "0B2E441B-685E-400D-9B9B-E078DEED62EF";
width = 600;
}
);
},
{
glyphname = ogonekcomb.narrow;
lastChange = "2017-09-10 18:11:30 +0000";
layers = (
{
anchors = (
{
name = _ogonek;
position = "{251, 10}";
}
);
layerId = "F333AEC5-BB61-4D5E-9EDD-6124322D28F2";
paths = (
{
closed = 1;
nodes = (
"247 -229 OFFCURVE",
"269 -223 OFFCURVE",
"292 -209 CURVE",
"286 -165 LINE",
"268 -172 OFFCURVE",
"254 -175 OFFCURVE",
"242 -175 CURVE SMOOTH",
"213 -175 OFFCURVE",
"192 -156 OFFCURVE",
"192 -115 CURVE SMOOTH",
"192 -67 OFFCURVE",
"221 -29 OFFCURVE",
"269 0 CURVE",
"229 13 LINE",
"162 -19 OFFCURVE",
"121 -69 OFFCURVE",
"121 -131 CURVE SMOOTH",
"121 -195 OFFCURVE",
"164 -229 OFFCURVE",
"222 -229 CURVE SMOOTH"
);
}
);
width = 323;
},
{
layerId = "51C2DFEF-3776-4D13-9284-96485B799B57";
width = 600;
},
{
layerId = "0B2E441B-685E-400D-9B9B-E078DEED62EF";
width = 600;
}
);
},
{
export = 0;
glyphname = _ogonekcomb.tall;
lastChange = "2017-09-10 19:27:17 +0000";
layers = (
{
anchors = (
{
name = _ogonek;
position = "{251, 10}";
}
);
layerId = "F333AEC5-BB61-4D5E-9EDD-6124322D28F2";
paths = (
{
closed = 1;
nodes = (
"225 -229 OFFCURVE",
"247 -220 OFFCURVE",
"264 -209 CURVE",
"258 -165 LINE",
"240 -172 OFFCURVE",
"225 -175 OFFCURVE",
"214 -175 CURVE SMOOTH",
"183 -175 OFFCURVE",
"162 -151 OFFCURVE",
"162 -115 CURVE SMOOTH",
"162 -69 OFFCURVE",
"198 -23 OFFCURVE",
"269 21 CURVE",
"229 34 LINE",
"136 -12 OFFCURVE",
"91 -63 OFFCURVE",
"91 -125 CURVE SMOOTH",
"91 -186 OFFCURVE",
"135 -229 OFFCURVE",
"197 -229 CURVE SMOOTH"
);
}
);
width = 323;
},
{
layerId = "51C2DFEF-3776-4D13-9284-96485B799B57";
width = 600;
},
{
layerId = "0B2E441B-685E-400D-9B9B-E078DEED62EF";
width = 600;
}
);
},
{
export = 0;
glyphname = _o.numero;
lastChange = "2017-09-10 19:27:17 +0000";
layers = (
{
layerId = "F333AEC5-BB61-4D5E-9EDD-6124322D28F2";
paths = (
{
closed = 1;
nodes = (
"418 202 OFFCURVE",
"515 304 OFFCURVE",
"515 459 CURVE SMOOTH",
"515 606 OFFCURVE",
"428 704 OFFCURVE",
"289 704 CURVE SMOOTH",
"147 704 OFFCURVE",
"52 602 OFFCURVE",
"52 448 CURVE SMOOTH",
"52 301 OFFCURVE",
"138 202 OFFCURVE",
"277 202 CURVE SMOOTH"
);
},
{
closed = 1;
nodes = (
"196 272 OFFCURVE",
"132 346 OFFCURVE",
"132 458 CURVE SMOOTH",
"132 564 OFFCURVE",
"188 634 OFFCURVE",
"278 634 CURVE SMOOTH",
"370 634 OFFCURVE",
"435 560 OFFCURVE",
"435 448 CURVE SMOOTH",
"435 343 OFFCURVE",
"378 272 OFFCURVE",
"288 272 CURVE SMOOTH"
);
},
{
closed = 1;
nodes = (
"478 0 LINE",
"478 69 LINE",
"87 69 LINE",
"87 0 LINE"
);
}
);
width = 567;
},
{
layerId = "51C2DFEF-3776-4D13-9284-96485B799B57";
width = 600;
},
{
layerId = "0B2E441B-685E-400D-9B9B-E078DEED62EF";
width = 600;
}
);
note = o;
},
{
export = 0;
glyphname = _slash.zero;
lastChange = "2017-09-10 19:27:17 +0000";
layers = (
{
anchors = (
{
name = _slash;
position = "{223, 241}";
}
);
layerId = "F333AEC5-BB61-4D5E-9EDD-6124322D28F2";
paths = (
{
closed = 1;
nodes = (
"387 433 LINE",
"340 462 LINE",
"58 40 LINE",
"101 11 LINE"
);
}
);
width = 456;
},
{
layerId = "51C2DFEF-3776-4D13-9284-96485B799B57";
width = 600;
},
{
layerId = "0B2E441B-685E-400D-9B9B-E078DEED62EF";
width = 600;
}
);
},
{
export = 0;
glyphname = _O.OE;
lastChange = "2017-09-10 19:27:17 +0000";
layers = (
{
anchors = (
{
name = "#exit";
position = "{672, 291}";
},
{
name = top;
position = "{391, 694}";
}
);
layerId = "F333AEC5-BB61-4D5E-9EDD-6124322D28F2";
paths = (
{
closed = 1;
nodes = (
"640 79 LINE",
"619 71 OFFCURVE",
"575 65 OFFCURVE",
"530 65 CURVE SMOOTH",
"369 65 OFFCURVE",
"266 178 OFFCURVE",
"266 355 CURVE SMOOTH",
"266 525 OFFCURVE",
"362 630 OFFCURVE",
"522 630 CURVE SMOOTH",
"567 630 OFFCURVE",
"614 625 OFFCURVE",
"640 611 CURVE",
"680 686 LINE",
"656 695 OFFCURVE",
"583 703 OFFCURVE",
"531 703 CURVE SMOOTH",
"314 703 OFFCURVE",
"181 564 OFFCURVE",
"181 343 CURVE SMOOTH",
"181 127 OFFCURVE",
"308 -7 OFFCURVE",
"530 -7 CURVE SMOOTH",
"584 -7 OFFCURVE",
"656 1 OFFCURVE",
"680 10 CURVE"
);
}
);
width = 782;
},
{
layerId = "51C2DFEF-3776-4D13-9284-96485B799B57";
width = 600;
},
{
layerId = "0B2E441B-685E-400D-9B9B-E078DEED62EF";
width = 600;
}
);
note = O;
},
{
export = 0;
glyphname = _horncomb.O;
lastChange = "2017-09-10 19:27:17 +0000";
layers = (
{
anchors = (
{
name = _topright;
position = "{142, 482}";
},
{
name = topright;
position = "{142, 482}";
}
);
layerId = "F333AEC5-BB61-4D5E-9EDD-6124322D28F2";
paths = (
{
closed = 1;
nodes = (
"170 433 OFFCURVE",
"249 500 OFFCURVE",
"249 610 CURVE",
"169 610 LINE",
"169 531 OFFCURVE",
"120 483 OFFCURVE",
"39 482 CURVE",
"39 433 LINE"
);
}
);
width = 284;
},
{
layerId = "51C2DFEF-3776-4D13-9284-96485B799B57";
width = 600;
},
{
layerId = "0B2E441B-685E-400D-9B9B-E078DEED62EF";
width = 600;
}
);
},
{
export = 0;
glyphname = _bowl.d;
lastChange = "2017-09-16 15:57:28 +0000";
layers = (
{
anchors = (
{
name = "_#bowl";
position = "{441, 252}";
}
);
layerId = "F333AEC5-BB61-4D5E-9EDD-6124322D28F2";
paths = (
{
closed = 1;
nodes = (
"356 -10 OFFCURVE",
"420 22 OFFCURVE",
"473 83 CURVE",
"454 133 LINE",
"409 84 OFFCURVE",
"360 60 OFFCURVE",
"307 60 CURVE SMOOTH",
"214 60 OFFCURVE",
"153 135 OFFCURVE",
"153 250 CURVE SMOOTH",
"153 357 OFFCURVE",
"205 422 OFFCURVE",
"291 422 CURVE SMOOTH",
"363 422 OFFCURVE",
"425 377 OFFCURVE",
"441 313 CURVE",
"473 376 LINE",
"447 450 OFFCURVE",
"385 492 OFFCURVE",
"300 492 CURVE SMOOTH",
"166 492 OFFCURVE",
"73 386 OFFCURVE",
"73 235 CURVE SMOOTH",
"73 90 OFFCURVE",
"159 -10 OFFCURVE",
"285 -10 CURVE SMOOTH"
);
}
);
width = 538;
},
{
anchors = (
{
name = "_#bowl";
position = "{453, 252}";
}
);
layerId = "51C2DFEF-3776-4D13-9284-96485B799B57";
paths = (
{
closed = 1;
nodes = (
"406 -10 OFFCURVE",
"469 34 OFFCURVE",
"496 111 CURVE",
"461 191 LINE",
"429 154 OFFCURVE",
"394 134 OFFCURVE",
"359 134 CURVE SMOOTH",
"305 134 OFFCURVE",
"267 182 OFFCURVE",
"267 250 CURVE SMOOTH",
"267 315 OFFCURVE",
"300 354 OFFCURVE",
"355 354 CURVE SMOOTH",
"401 354 OFFCURVE",
"439 329 OFFCURVE",
"457 287 CURVE",
"519 349 LINE",
"500 443 OFFCURVE",
"432 500 OFFCURVE",
"337 500 CURVE SMOOTH",
"199 500 OFFCURVE",
"91 385 OFFCURVE",
"91 237 CURVE SMOOTH",
"91 97 OFFCURVE",
"191 -10 OFFCURVE",
"323 -10 CURVE SMOOTH"
);
}
);
width = 568;
},
{
anchors = (
{
name = "_#bowl";
position = "{406, 252}";
}
);
layerId = "0B2E441B-685E-400D-9B9B-E078DEED62EF";
paths = (
{
closed = 1;
nodes = (
"314 -10 OFFCURVE",
"374 25 OFFCURVE",
"413 87 CURVE",
"405 100 LINE",
"368 43 OFFCURVE",
"311 10 OFFCURVE",
"248 10 CURVE SMOOTH",
"141 10 OFFCURVE",
"67 105 OFFCURVE",
"67 242 CURVE SMOOTH",
"67 378 OFFCURVE",
"139 466 OFFCURVE",
"252 466 CURVE SMOOTH",
"322 466 OFFCURVE",
"377 433 OFFCURVE",
"407 373 CURVE",
"419 385 LINE",
"393 448 OFFCURVE",
"330 486 OFFCURVE",
"253 486 CURVE SMOOTH",
"129 486 OFFCURVE",
"46 386 OFFCURVE",
"46 237 CURVE SMOOTH",
"46 92 OFFCURVE",
"128 -10 OFFCURVE",
"245 -10 CURVE SMOOTH"
);
}
);
width = 456;
},
{
anchors = (
{
name = "_#bowl";
position = "{462, 252}";
}
);
associatedMasterId = "51C2DFEF-3776-4D13-9284-96485B799B57";
layerId = "25BF9506-137E-4486-8556-E5F9C1163A36";
name = "Sep 16 17, 15:49";
paths = (
{
closed = 1;
nodes = (
"380 -10 OFFCURVE",
"444 25 OFFCURVE",
"493 91 CURVE",
"470 201 LINE",
"429 155 OFFCURVE",
"394 134 OFFCURVE",
"356 134 CURVE SMOOTH",
"302 134 OFFCURVE",
"267 177 OFFCURVE",
"267 243 CURVE SMOOTH",
"267 313 OFFCURVE",
"302 354 OFFCURVE",
"360 354 CURVE SMOOTH",
"407 354 OFFCURVE",
"447 329 OFFCURVE",
"466 287 CURVE",
"488 415 LINE",
"466 471 OFFCURVE",
"416 500 OFFCURVE",
"340 500 CURVE SMOOTH",
"192 500 OFFCURVE",
"91 391 OFFCURVE",
"91 232 CURVE SMOOTH",
"91 88 OFFCURVE",
"178 -10 OFFCURVE",
"305 -10 CURVE SMOOTH"
);
}
);
width = 577;
}
);
},
{
export = 0;
glyphname = _stem.d;
lastChange = "2017-09-16 14:13:03 +0000";
layers = (
{
anchors = (
{
name = "#bowl";
position = "{123, 252}";
}
);
layerId = "F333AEC5-BB61-4D5E-9EDD-6124322D28F2";
paths = (
{
closed = 1;
nodes = (
"189 0 LINE",
"189 739 LINE",
"109 739 LINE",
"109 56 LINE",
"133 0 LINE"
);
}
);
width = 298;
},
{
anchors = (
{
name = "#bowl";
position = "{87, 252}";
}
);
layerId = "51C2DFEF-3776-4D13-9284-96485B799B57";
paths = (
{
closed = 1;
nodes = (
"253 0 LINE",
"253 739 LINE",
"80 739 LINE",
"80 120 LINE",
"128 0 LINE"
);
}
);
width = 333;
},
{
anchors = (
{
name = "#bowl";
position = "{41, 252}";
}
);
layerId = "0B2E441B-685E-400D-9B9B-E078DEED62EF";
paths = (
{
closed = 1;
nodes = (
"59 0 LINE",
"59 739 LINE",
"40 739 LINE",
"40 74 LINE",
"45 0 LINE"
);
}
);
width = 100;
}
);
},
{
export = 0;
glyphname = _bowl.b;
lastChange = "2017-09-16 15:33:54 +0000";
layers = (
{
anchors = (
{
name = "_#bowl";
position = "{161, 252}";
}
);
components = (
{
name = _bowl.d;
transform = "{-1, 0, 0, -1, 593, 482}";
}
);
layerId = "F333AEC5-BB61-4D5E-9EDD-6124322D28F2";
width = 538;
},
{
anchors = (
{
name = "_#bowl";
position = "{120, 252}";
}
);
components = (
{
name = _bowl.d;
transform = "{-1, 0, 0, -1, 595, 490}";
}
);
layerId = "51C2DFEF-3776-4D13-9284-96485B799B57";
width = 577;
},
{
anchors = (
{
name = "_#bowl";
position = "{58, 252}";
}
);
components = (
{
name = _bowl.d;
transform = "{-1, 0, 0, -1, 465, 476}";
}
);
layerId = "0B2E441B-685E-400D-9B9B-E078DEED62EF";
width = 456;
},
{
anchors = (
{
name = "_#bowl";
position = "{161, 252}";
}
);
associatedMasterId = "F333AEC5-BB61-4D5E-9EDD-6124322D28F2";
layerId = "3C2B9616-8740-4885-960A-497D394C34E3";
name = "Sep 16 17, 16:15";
paths = (
{
closed = 1;
nodes = (
"428 -10 OFFCURVE",
"519 97 OFFCURVE",
"519 249 CURVE SMOOTH",
"519 395 OFFCURVE",
"436 492 OFFCURVE",
"311 492 CURVE SMOOTH",
"240 492 OFFCURVE",
"176 459 OFFCURVE",
"119 393 CURVE",
"138 343 LINE",
"183 393 OFFCURVE",
"235 420 OFFCURVE",
"288 420 CURVE SMOOTH",
"379 420 OFFCURVE",
"439 347 OFFCURVE",
"439 236 CURVE SMOOTH",
"439 129 OFFCURVE",
"386 60 OFFCURVE",
"301 60 CURVE SMOOTH",
"243 60 OFFCURVE",
"191 92 OFFCURVE",
"161 149 CURVE",
"129 106 LINE",
"158 30 OFFCURVE",
"218 -10 OFFCURVE",
"298 -10 CURVE SMOOTH"
);
}
);
width = 572;
}
);
},
{
export = 0;
glyphname = _stem.b;
lastChange = "2017-09-16 14:13:52 +0000";
layers = (
{
anchors = (
{
name = "#bowl";
position = "{185, 252}";
}
);
layerId = "F333AEC5-BB61-4D5E-9EDD-6124322D28F2";
paths = (
{
closed = 1;
nodes = (
"165 0 LINE",
"189 56 LINE",
"189 739 LINE",
"109 739 LINE",
"109 0 LINE"
);
}
);
width = 298;
},
{
anchors = (
{
name = "#bowl";
position = "{234, 252}";
}
);
layerId = "51C2DFEF-3776-4D13-9284-96485B799B57";
paths = (
{
closed = 1;
nodes = (
"205 0 LINE",
"253 120 LINE",
"253 739 LINE",
"80 739 LINE",
"80 0 LINE"
);
}
);
width = 333;
},
{
anchors = (
{
name = "#bowl";
position = "{58, 252}";
}
);
layerId = "0B2E441B-685E-400D-9B9B-E078DEED62EF";
paths = (
{
closed = 1;
nodes = (
"55 0 LINE",
"60 74 LINE",
"60 739 LINE",
"41 739 LINE",
"41 0 LINE"
);
}
);
width = 100;
}
);
},
{
export = 0;
glyphname = _shoulder.n;
lastChange = "2017-09-16 15:41:57 +0000";
layers = (
{
anchors = (
{
name = "#entry";
position = "{62, 401}";
},
{
name = "#exit";
position = "{391, 401}";
},
{
name = "#hook";
position = "{368, 0}";
}
);
layerId = "F333AEC5-BB61-4D5E-9EDD-6124322D28F2";
paths = (
{
closed = 1;
nodes = (
"407 0 LINE",
"407 316 LINE SMOOTH",
"407 423 OFFCURVE",
"336 492 OFFCURVE",
"228 492 CURVE SMOOTH",
"158 492 OFFCURVE",
"89 462 OFFCURVE",
"38 409 CURVE",
"57 358 LINE",
"97 399 OFFCURVE",
"150 422 OFFCURVE",
"206 422 CURVE SMOOTH",
"284 422 OFFCURVE",
"327 378 OFFCURVE",
"327 300 CURVE SMOOTH",
"327 0 LINE"
);
}
);
width = 502;
},
{
anchors = (
{
name = "#entry";
position = "{123, 401}";
},
{
name = "#exit";
position = "{465, 401}";
},
{
name = "#hook";
position = "{463, 0}";
}
);
layerId = "0B2E441B-685E-400D-9B9B-E078DEED62EF";
paths = (
{
closed = 1;
nodes = (
"459 0 LINE",
"459 324 LINE SMOOTH",
"459 424 OFFCURVE",
"398 486 OFFCURVE",
"298 486 CURVE SMOOTH",
"220 486 OFFCURVE",
"146 448 OFFCURVE",
"102 384 CURVE",
"111 370 LINE",
"151 431 OFFCURVE",
"222 467 OFFCURVE",
"298 467 CURVE SMOOTH",
"389 467 OFFCURVE",
"439 413 OFFCURVE",
"439 314 CURVE SMOOTH",
"439 0 LINE"
);
}
);
width = 585;
},
{
anchors = (
{
name = "#entry";
position = "{82, 401}";
},
{
name = "#exit";
position = "{411, 401}";
},
{
name = "#hook";
position = "{338, 0}";
}
);
associatedMasterId = "51C2DFEF-3776-4D13-9284-96485B799B57";
layerId = "5486800A-8954-4FF2-85E0-7FBEDFF08C03";
name = "Sep 14 17, 20:26";
paths = (
{
closed = 1;
nodes = (
"419 0 LINE",
"419 308 LINE SMOOTH",
"419 426 OFFCURVE",
"350 500 OFFCURVE",
"239 500 CURVE SMOOTH",
"178 500 OFFCURVE",
"113 476 OFFCURVE",
"63 415 CURVE",
"82 309 LINE",
"108 336 OFFCURVE",
"139 350 OFFCURVE",
"174 350 CURVE SMOOTH",
"223 350 OFFCURVE",
"246 324 OFFCURVE",
"246 269 CURVE SMOOTH",
"246 0 LINE"
);
}
);
width = 499;
},
{
anchors = (
{
name = "#entry";
position = "{82, 401}";
},
{
name = "#exit";
position = "{411, 401}";
},
{
name = "#hook";
position = "{338, 0}";
}
);
associatedMasterId = "51C2DFEF-3776-4D13-9284-96485B799B57";
layerId = "DFF52CF9-64FA-4D15-8760-17CA82ABB11F";
name = "Sep 14 17, 20:26";
paths = (
{
closed = 1;
nodes = (
"419 0 LINE",
"419 308 LINE SMOOTH",
"419 426 OFFCURVE",
"350 500 OFFCURVE",
"239 500 CURVE SMOOTH",
"178 500 OFFCURVE",
"121 476 OFFCURVE",
"82 434 CURVE",
"82 309 LINE",
"108 336 OFFCURVE",
"139 350 OFFCURVE",
"174 350 CURVE SMOOTH",
"223 350 OFFCURVE",
"246 324 OFFCURVE",
"246 269 CURVE SMOOTH",
"246 0 LINE"
);
}
);
width = 499;
},
{
anchors = (
{
name = "#entry";
position = "{82, 401}";
},
{
name = "#exit";
position = "{403, 401}";
},
{
name = "#hook";
position = "{338, 0}";
}
);
layerId = "51C2DFEF-3776-4D13-9284-96485B799B57";
paths = (
{
closed = 1;
nodes = (
"419 0 LINE",
"419 308 LINE SMOOTH",
"419 426 OFFCURVE",
"350 500 OFFCURVE",
"239 500 CURVE SMOOTH",
"168 500 OFFCURVE",
"105 469 OFFCURVE",
"63 412 CURVE",
"82 309 LINE",
"108 336 OFFCURVE",
"139 350 OFFCURVE",
"174 350 CURVE SMOOTH",
"223 350 OFFCURVE",
"246 324 OFFCURVE",
"246 269 CURVE SMOOTH",
"246 0 LINE"
);
}
);
width = 499;
},
{
anchors = (
{
name = "#entry";
position = "{123, 401}";
},
{
name = "#exit";
position = "{465, 401}";
},
{
name = "#hook";
position = "{463, 0}";
}
);
associatedMasterId = "0B2E441B-685E-400D-9B9B-E078DEED62EF";
layerId = "3BF302AE-F98C-489D-B953-0D631F351006";
name = "Sep 14 17, 20:28";
paths = (
{
closed = 1;
nodes = (
"459 0 LINE",
"459 324 LINE SMOOTH",
"459 424 OFFCURVE",
"398 486 OFFCURVE",
"298 486 CURVE SMOOTH",
"225 486 OFFCURVE",
"149 449 OFFCURVE",
"108 391 CURVE",
"117 377 LINE",
"153 431 OFFCURVE",
"226 467 OFFCURVE",
"298 467 CURVE SMOOTH",
"389 467 OFFCURVE",
"439 413 OFFCURVE",
"439 314 CURVE SMOOTH",
"439 0 LINE"
);
}
);
width = 585;
}
);
},
{
export = 0;
glyphname = _stem.n;
lastChange = "2017-09-14 18:21:45 +0000";
layers = (
{
anchors = (
{
name = "#exit";
position = "{152, 401}";
}
);
layerId = "F333AEC5-BB61-4D5E-9EDD-6124322D28F2";
paths = (
{
closed = 1;
nodes = (
"168 0 LINE",
"168 426 LINE",
"144 482 LINE",
"88 482 LINE",
"88 0 LINE"
);
}
);
width = 573;
},
{
anchors = (
{
name = "#exit";
position = "{237, 401}";
}
);
layerId = "51C2DFEF-3776-4D13-9284-96485B799B57";
paths = (
{
closed = 1;
nodes = (
"253 0 LINE",
"253 376 LINE",
"225 490 LINE",
"80 490 LINE",
"80 0 LINE"
);
}
);
width = 333;
},
{
anchors = (
{
name = "#exit";
position = "{126, 401}";
}
);
layerId = "0B2E441B-685E-400D-9B9B-E078DEED62EF";
paths = (
{
closed = 1;
nodes = (
"120 0 LINE",
"120 404 LINE",
"116 480 LINE",
"100 480 LINE",
"100 0 LINE"
);
}
);
width = 600;
}
);
},
{
export = 0;
glyphname = _Qtail;
lastChange = "2017-09-10 19:27:17 +0000";
layers = (
{
anchors = (
{
name = "_#Qtail";
position = "{591, 93}";
}
);
layerId = "F333AEC5-BB61-4D5E-9EDD-6124322D28F2";
paths = (
{
closed = 1;
nodes = (
"704 4 LINE",
"510 258 LINE",
"454 214 LINE",
"647 -39 LINE"
);
}
);
width = 781;
},
{
layerId = "51C2DFEF-3776-4D13-9284-96485B799B57";
width = 600;
},
{
layerId = "0B2E441B-685E-400D-9B9B-E078DEED62EF";
width = 600;
}
);
},
{
export = 0;
glyphname = _stem.g;
lastChange = "2017-09-16 14:57:39 +0000";
layers = (
{
anchors = (
{
name = "#bowl";
position = "{410, 252}";
}
);
layerId = "F333AEC5-BB61-4D5E-9EDD-6124322D28F2";
paths = (
{
closed = 1;
nodes = (
"381 -227 OFFCURVE",
"477 -136 OFFCURVE",
"477 14 CURVE SMOOTH",
"477 482 LINE",
"421 482 LINE",
"397 417 LINE",
"397 2 LINE SMOOTH",
"397 -109 OFFCURVE",
"345 -158 OFFCURVE",
"252 -158 CURVE SMOOTH",
"208 -158 OFFCURVE",
"167 -147 OFFCURVE",
"114 -126 CURVE",
"95 -191 LINE",
"145 -214 OFFCURVE",
"192 -227 OFFCURVE",
"244 -227 CURVE SMOOTH"
);
}
);
width = 565;
},
{
anchors = (
{
name = "#bowl";
position = "{378, 243}";
}
);
layerId = "51C2DFEF-3776-4D13-9284-96485B799B57";
paths = (
{
closed = 1;
nodes = (
"408 -227 OFFCURVE",
"545 -118 OFFCURVE",
"545 42 CURVE SMOOTH",
"545 490 LINE",
"400 490 LINE",
"372 370 LINE",
"372 32 LINE SMOOTH",
"372 -49 OFFCURVE",
"322 -89 OFFCURVE",
"231 -89 CURVE SMOOTH",
"180 -89 OFFCURVE",
"124 -77 OFFCURVE",
"84 -58 CURVE",
"50 -193 LINE",
"106 -216 OFFCURVE",
"162 -227 OFFCURVE",
"221 -227 CURVE SMOOTH"
);
}
);
width = 600;
},
{
anchors = (
{
name = "#bowl";
position = "{398, 252}";
}
);
layerId = "0B2E441B-685E-400D-9B9B-E078DEED62EF";
paths = (
{
closed = 1;
nodes = (
"346 -227 OFFCURVE",
"417 -160 OFFCURVE",
"417 -56 CURVE SMOOTH",
"417 482 LINE",
"402 482 LINE",
"397 408 LINE",
"397 -68 LINE SMOOTH",
"397 -153 OFFCURVE",
"336 -207 OFFCURVE",
"240 -207 CURVE SMOOTH",
"196 -207 OFFCURVE",
"151 -196 OFFCURVE",
"100 -173 CURVE",
"92 -190 LINE",
"139 -213 OFFCURVE",
"189 -227 OFFCURVE",
"238 -227 CURVE SMOOTH"
);
}
);
width = 600;
}
);
},
{
export = 0;
glyphname = _stem.q;
lastChange = "2017-09-16 14:13:32 +0000";
layers = (
{
anchors = (
{
name = "#bowl";
position = "{453, 252}";
}
);
layerId = "F333AEC5-BB61-4D5E-9EDD-6124322D28F2";
paths = (
{
closed = 1;
nodes = (
"520 -217 LINE",
"520 482 LINE",
"464 482 LINE",
"440 426 LINE",
"440 -217 LINE"
);
}
);
width = 568;
},
{
anchors = (
{
name = "#bowl";
position = "{87, 252}";
}
);
layerId = "51C2DFEF-3776-4D13-9284-96485B799B57";
paths = (
{
closed = 1;
nodes = (
"253 -217 LINE",
"253 490 LINE",
"108 490 LINE",
"80 370 LINE",
"80 -217 LINE"
);
}
);
width = 333;
},
{
anchors = (
{
name = "#bowl";
position = "{41, 252}";
}
);
layerId = "0B2E441B-685E-400D-9B9B-E078DEED62EF";
paths = (
{
closed = 1;
nodes = (
"60 -217 LINE",
"60 480 LINE",
"45 480 LINE",
"40 406 LINE",
"40 -217 LINE"
);
}
);
width = 100;
}
);
},
{
export = 0;
glyphname = _stem.p;
lastChange = "2017-09-16 14:14:00 +0000";
layers = (
{
anchors = (
{
name = "#bowl";
position = "{197, 252}";
}
);
layerId = "F333AEC5-BB61-4D5E-9EDD-6124322D28F2";
paths = (
{
closed = 1;
nodes = (
"200 -217 LINE",
"200 426 LINE",
"176 482 LINE",
"120 482 LINE",
"120 -217 LINE"
);
}
);
width = 568;
},
{
anchors = (
{
name = "#bowl";
position = "{234, 252}";
}
);
layerId = "51C2DFEF-3776-4D13-9284-96485B799B57";
paths = (
{
closed = 1;
nodes = (
"253 -217 LINE",
"253 370 LINE",
"225 490 LINE",
"80 490 LINE",
"80 -217 LINE"
);
}
);
width = 600;
},
{
anchors = (
{
name = "#bowl";
position = "{58, 252}";
}
);
layerId = "0B2E441B-685E-400D-9B9B-E078DEED62EF";
paths = (
{
closed = 1;
nodes = (
"60 -217 LINE",
"60 406 LINE",
"55 480 LINE",
"40 480 LINE",
"40 -217 LINE"
);
}
);
width = 100;
}
);
},
{
export = 0;
glyphname = _quote;
lastChange = "2017-09-10 19:27:17 +0000";
layers = (
{
layerId = "F333AEC5-BB61-4D5E-9EDD-6124322D28F2";
paths = (
{
closed = 1;
nodes = (
"195 482 LINE",
"205 694 LINE",
"118 694 LINE",
"128 482 LINE"
);
}
);
width = 323;
},
{
layerId = "51C2DFEF-3776-4D13-9284-96485B799B57";
width = 600;
},
{
layerId = "0B2E441B-685E-400D-9B9B-E078DEED62EF";
width = 600;
}
);
},
{
export = 0;
glyphname = _comma;
lastChange = "2017-09-10 19:27:17 +0000";
layers = (
{
layerId = "F333AEC5-BB61-4D5E-9EDD-6124322D28F2";
paths = (
{
closed = 1;
nodes = (
"165 -148 LINE",
"203 -65 OFFCURVE",
"234 48 OFFCURVE",
"234 103 CURVE",
"151 103 LINE",
"151 50 OFFCURVE",
"129 -63 OFFCURVE",
"102 -148 CURVE"
);
}
);
width = 329;
},
{
layerId = "51C2DFEF-3776-4D13-9284-96485B799B57";
width = 600;
},
{
layerId = "0B2E441B-685E-400D-9B9B-E078DEED62EF";
width = 600;
}
);
},
{
export = 0;
glyphname = _period;
lastChange = "2017-09-10 19:27:17 +0000";
layers = (
{
layerId = "F333AEC5-BB61-4D5E-9EDD-6124322D28F2";
paths = (
{
closed = 1;
nodes = (
"209 -10 OFFCURVE",
"235 17 OFFCURVE",
"235 54 CURVE SMOOTH",
"235 91 OFFCURVE",
"209 118 OFFCURVE",
"171 118 CURVE SMOOTH",
"133 118 OFFCURVE",
"107 91 OFFCURVE",
"107 54 CURVE SMOOTH",
"107 17 OFFCURVE",
"133 -10 OFFCURVE",
"171 -10 CURVE SMOOTH"
);
}
);
width = 342;
},
{
layerId = "51C2DFEF-3776-4D13-9284-96485B799B57";
width = 600;
},
{
layerId = "0B2E441B-685E-400D-9B9B-E078DEED62EF";
width = 600;
}
);
},
{
export = 0;
glyphname = _stem.h;
lastChange = "2017-09-16 10:53:22 +0000";
layers = (
{
anchors = (
{
name = "#exit";
position = "{156, 401}";
}
);
layerId = "F333AEC5-BB61-4D5E-9EDD-6124322D28F2";
paths = (
{
closed = 1;
nodes = (
"168 0 LINE",
"168 739 LINE",
"88 739 LINE",
"88 0 LINE"
);
}
);
width = 573;
},
{
anchors = (
{
name = "#exit";
position = "{237, 401}";
}
);
layerId = "51C2DFEF-3776-4D13-9284-96485B799B57";
paths = (
{
closed = 1;
nodes = (
"253 0 LINE",
"253 739 LINE",
"80 739 LINE",
"80 0 LINE"
);
}
);
width = 333;
},
{
anchors = (
{
name = "#exit";
position = "{166, 401}";
}
);
layerId = "0B2E441B-685E-400D-9B9B-E078DEED62EF";
paths = (
{
closed = 1;
nodes = (
"159 0 LINE",
"159 739 LINE",
"140 739 LINE",
"140 0 LINE"
);
}
);
width = 299;
}
);
},
{
export = 0;
glyphname = _stem.exclam;
lastChange = "2017-09-10 19:27:17 +0000";
layers = (
{
layerId = "F333AEC5-BB61-4D5E-9EDD-6124322D28F2";
paths = (
{
closed = 1;
nodes = (
"194 201 LINE",
"204 694 LINE",
"120 694 LINE",
"130 201 LINE"
);
}
);
width = 342;
},
{
layerId = "51C2DFEF-3776-4D13-9284-96485B799B57";
width = 600;
},
{
layerId = "0B2E441B-685E-400D-9B9B-E078DEED62EF";
width = 600;
}
);
},
{
export = 0;
glyphname = _typoquote;
lastChange = "2017-09-10 19:27:17 +0000";
layers = (
{
layerId = "F333AEC5-BB61-4D5E-9EDD-6124322D28F2";
paths = (
{
closed = 1;
nodes = (
"133 -148 LINE",
"180 -78 OFFCURVE",
"212 22 OFFCURVE",
"212 103 CURVE",
"129 103 LINE",
"129 25 OFFCURVE",
"101 -76 OFFCURVE",
"60 -148 CURVE"
);
}
);
width = 294;
},
{
layerId = "51C2DFEF-3776-4D13-9284-96485B799B57";
width = 600;
},
{
layerId = "0B2E441B-685E-400D-9B9B-E078DEED62EF";
width = 600;
}
);
},
{
export = 0;
glyphname = _stem.question;
lastChange = "2017-09-10 19:27:17 +0000";
layers = (
{
layerId = "F333AEC5-BB61-4D5E-9EDD-6124322D28F2";
paths = (
{
closed = 1;
nodes = (
"268 195 LINE",
"268 238 LINE SMOOTH",
"268 391 OFFCURVE",
"429 428 OFFCURVE",
"429 554 CURVE SMOOTH",
"429 643 OFFCURVE",
"350 704 OFFCURVE",
"234 704 CURVE SMOOTH",
"169 704 OFFCURVE",
"98 685 OFFCURVE",
"34 650 CURVE",
"55 591 LINE",
"119 619 OFFCURVE",
"166 631 OFFCURVE",
"211 631 CURVE SMOOTH",
"290 631 OFFCURVE",
"344 593 OFFCURVE",
"344 538 CURVE SMOOTH",
"344 445 OFFCURVE",
"192 410 OFFCURVE",
"192 238 CURVE SMOOTH",
"192 195 LINE"
);
}
);
width = 495;
},
{
layerId = "51C2DFEF-3776-4D13-9284-96485B799B57";
width = 600;
},
{
layerId = "0B2E441B-685E-400D-9B9B-E078DEED62EF";
width = 600;
}
);
},
{
export = 0;
glyphname = _dot;
lastChange = "2017-09-15 16:28:19 +0000";
layers = (
{
layerId = "F333AEC5-BB61-4D5E-9EDD-6124322D28F2";
paths = (
{
closed = 1;
nodes = (
"164 595 OFFCURVE",
"185 616 OFFCURVE",
"185 652 CURVE SMOOTH",
"185 688 OFFCURVE",
"164 709 OFFCURVE",
"128 709 CURVE SMOOTH",
"92 709 OFFCURVE",
"71 688 OFFCURVE",
"71 652 CURVE SMOOTH",
"71 616 OFFCURVE",
"92 595 OFFCURVE",
"128 595 CURVE SMOOTH"
);
}
);
width = 256;
},
{
layerId = "51C2DFEF-3776-4D13-9284-96485B799B57";
paths = (
{
closed = 1;
nodes = (
"232 575 OFFCURVE",
"273 616 OFFCURVE",
"273 676 CURVE SMOOTH",
"273 737 OFFCURVE",
"232 778 OFFCURVE",
"172 778 CURVE SMOOTH",
"112 778 OFFCURVE",
"71 737 OFFCURVE",
"71 676 CURVE SMOOTH",
"71 616 OFFCURVE",
"112 575 OFFCURVE",
"172 575 CURVE SMOOTH"
);
}
);
width = 344;
},
{
layerId = "0B2E441B-685E-400D-9B9B-E078DEED62EF";
paths = (
{
closed = 1;
nodes = (
"104 607 OFFCURVE",
"113 616 OFFCURVE",
"113 628 CURVE SMOOTH",
"113 640 OFFCURVE",
"104 649 OFFCURVE",
"92 649 CURVE SMOOTH",
"80 649 OFFCURVE",
"71 640 OFFCURVE",
"71 628 CURVE SMOOTH",
"71 616 OFFCURVE",
"80 607 OFFCURVE",
"92 607 CURVE SMOOTH"
);
}
);
width = 184;
}
);
},
{
export = 0;
glyphname = _acute;
lastChange = "2017-09-10 19:27:17 +0000";
layers = (
{
layerId = "F333AEC5-BB61-4D5E-9EDD-6124322D28F2";
paths = (
{
closed = 1;
nodes = (
"403 689 LINE",
"340 740 LINE",
"225 564 LINE",
"268 529 LINE"
);
}
);
width = 600;
},
{
layerId = "51C2DFEF-3776-4D13-9284-96485B799B57";
width = 600;
},
{
layerId = "0B2E441B-685E-400D-9B9B-E078DEED62EF";
width = 600;
}
);
},
{
export = 0;
glyphname = _circumflex;
lastChange = "2017-09-10 19:27:17 +0000";
layers = (
{
layerId = "F333AEC5-BB61-4D5E-9EDD-6124322D28F2";
paths = (
{
closed = 1;
nodes = (
"315 672 LINE",
"284 672 LINE",
"401 559 LINE",
"444 602 LINE",
"325 729 LINE",
"282 729 LINE",
"152 589 LINE",
"183 559 LINE"
);
}
);
width = 600;
},
{
layerId = "51C2DFEF-3776-4D13-9284-96485B799B57";
width = 600;
},
{
layerId = "0B2E441B-685E-400D-9B9B-E078DEED62EF";
width = 600;
}
);
},
{
export = 0;
glyphname = _a.ae;
lastChange = "2017-09-10 19:27:17 +0000";
layers = (
{
anchors = (
{
name = "#exit";
position = "{401, 236}";
}
);
layerId = "F333AEC5-BB61-4D5E-9EDD-6124322D28F2";
paths = (
{
closed = 1;
nodes = (
"441 224 LINE",
"441 326 LINE SMOOTH",
"441 429 OFFCURVE",
"370 492 OFFCURVE",
"252 492 CURVE SMOOTH",
"186 492 OFFCURVE",
"125 473 OFFCURVE",
"61 435 CURVE",
"82 378 LINE",
"140 408 OFFCURVE",
"185 420 OFFCURVE",
"234 420 CURVE SMOOTH",
"318 420 OFFCURVE",
"361 384 OFFCURVE",
"361 313 CURVE SMOOTH",
"361 224 LINE"
);
},
{
closed = 1;
nodes = (
"326 -10 OFFCURVE",
"414 62 OFFCURVE",
"430 169 CURVE",
"401 183 LINE",
"385 108 OFFCURVE",
"320 60 OFFCURVE",
"236 60 CURVE SMOOTH",
"172 60 OFFCURVE",
"131 89 OFFCURVE",
"131 134 CURVE SMOOTH",
"131 196 OFFCURVE",
"205 224 OFFCURVE",
"373 224 CURVE",
"373 284 LINE",
"166 284 OFFCURVE",
"51 225 OFFCURVE",
"51 120 CURVE SMOOTH",
"51 42 OFFCURVE",
"115 -10 OFFCURVE",
"212 -10 CURVE SMOOTH"
);
}
);
width = 520;
},
{
anchors = (
{
name = "#exit";
position = "{401, 236}";
}
);
associatedMasterId = "F333AEC5-BB61-4D5E-9EDD-6124322D28F2";
layerId = "46551FC0-8528-4C2B-B664-13BFC786DE8F";
name = "Sep 5 17, 21:54";
paths = (
{
closed = 1;
nodes = (
"441 224 LINE",
"441 316 LINE SMOOTH",
"441 426 OFFCURVE",
"373 492 OFFCURVE",
"259 492 CURVE SMOOTH",
"200 492 OFFCURVE",
"133 474 OFFCURVE",
"81 444 CURVE",
"102 388 LINE",
"142 408 OFFCURVE",
"196 420 OFFCURVE",
"241 420 CURVE SMOOTH",
"321 420 OFFCURVE",
"361 381 OFFCURVE",
"361 303 CURVE SMOOTH",
"361 224 LINE"
);
},
{
closed = 1;
nodes = (
"333 -10 OFFCURVE",
"413 55 OFFCURVE",
"430 169 CURVE",
"401 183 LINE",
"385 108 OFFCURVE",
"320 60 OFFCURVE",
"236 60 CURVE SMOOTH",
"171 60 OFFCURVE",
"131 88 OFFCURVE",
"131 134 CURVE SMOOTH",
"131 196 OFFCURVE",
"207 224 OFFCURVE",
"373 224 CURVE",
"373 284 LINE",
"153 284 OFFCURVE",
"51 234 OFFCURVE",
"51 126 CURVE SMOOTH",
"51 42 OFFCURVE",
"112 -10 OFFCURVE",
"211 -10 CURVE SMOOTH"
);
}
);
width = 520;
},
{
layerId = "51C2DFEF-3776-4D13-9284-96485B799B57";
width = 600;
},
{
layerId = "0B2E441B-685E-400D-9B9B-E078DEED62EF";
width = 600;
}
);
leftMetricsKey = a;
},
{
export = 0;
glyphname = _A.AE;
lastChange = "2017-09-10 19:27:17 +0000";
layers = (
{
anchors = (
{
name = "#exit";
position = "{514, 291}";
}
);
layerId = "F333AEC5-BB61-4D5E-9EDD-6124322D28F2";
paths = (
{
closed = 1;
nodes = (
"121 0 LINE",
"476 633 LINE",
"474 637 LINE",
"474 0 LINE",
"557 0 LINE",
"557 694 LINE",
"429 694 LINE",
"31 0 LINE"
);
},
{
closed = 1;
nodes = (
"502 202 LINE",
"502 282 LINE",
"226 282 LINE",
"226 202 LINE"
);
}
);
width = 604;
},
{
layerId = "51C2DFEF-3776-4D13-9284-96485B799B57";
width = 600;
},
{
layerId = "0B2E441B-685E-400D-9B9B-E078DEED62EF";
width = 600;
}
);
leftMetricsKey = A;
},
{
export = 0;
glyphname = _stem.thorn;
lastChange = "2017-09-10 19:27:17 +0000";
layers = (
{
anchors = (
{
name = "#bowl";
position = "{165, 252}";
}
);
layerId = "F333AEC5-BB61-4D5E-9EDD-6124322D28F2";
paths = (
{
closed = 1;
nodes = (
"168 -217 LINE",
"168 694 LINE",
"88 694 LINE",
"88 -217 LINE"
);
}
);
width = 536;
},
{
layerId = "51C2DFEF-3776-4D13-9284-96485B799B57";
width = 600;
},
{
layerId = "0B2E441B-685E-400D-9B9B-E078DEED62EF";
width = 600;
}
);
leftMetricsKey = h;
},
{
export = 0;
glyphname = _macron;
lastChange = "2017-09-10 19:27:17 +0000";
layers = (
{
layerId = "F333AEC5-BB61-4D5E-9EDD-6124322D28F2";
paths = (
{
closed = 1;
nodes = (
"401 610 LINE",
"401 675 LINE",
"88 675 LINE",
"88 610 LINE"
);
}
);
width = 489;
},
{
layerId = "51C2DFEF-3776-4D13-9284-96485B799B57";
width = 600;
},
{
layerId = "0B2E441B-685E-400D-9B9B-E078DEED62EF";
width = 600;
}
);
},
{
export = 0;
glyphname = _commaaccent;
lastChange = "2017-09-10 19:27:17 +0000";
layers = (
{
layerId = "F333AEC5-BB61-4D5E-9EDD-6124322D28F2";
paths = (
{
closed = 1;
nodes = (
"156 -227 LINE",
"184 -189 OFFCURVE",
"203 -124 OFFCURVE",
"203 -65 CURVE",
"128 -65 LINE",
"128 -127 OFFCURVE",
"116 -192 OFFCURVE",
"97 -227 CURVE"
);
}
);
width = 329;
},
{
layerId = "51C2DFEF-3776-4D13-9284-96485B799B57";
width = 600;
},
{
layerId = "0B2E441B-685E-400D-9B9B-E078DEED62EF";
width = 600;
}
);
},
{
export = 0;
glyphname = _bottomhook;
lastChange = "2017-09-10 19:27:17 +0000";
layers = (
{
anchors = (
{
name = "_#hook";
position = "{463, 0}";
}
);
layerId = "F333AEC5-BB61-4D5E-9EDD-6124322D28F2";
paths = (
{
closed = 1;
nodes = (
"453 -185 OFFCURVE",
"502 -117 OFFCURVE",
"502 -23 CURVE SMOOTH",
"502 0 LINE",
"422 0 LINE",
"422 -35 LINE SMOOTH",
"422 -97 OFFCURVE",
"392 -145 OFFCURVE",
"332 -179 CURVE",
"354 -227 LINE"
);
}
);
width = 581;
},
{
layerId = "51C2DFEF-3776-4D13-9284-96485B799B57";
width = 600;
},
{
layerId = "0B2E441B-685E-400D-9B9B-E078DEED62EF";
width = 600;
}
);
},
{
export = 0;
glyphname = _N.Eng;
lastChange = "2017-09-10 19:27:17 +0000";
layers = (
{
anchors = (
{
name = "#hook";
position = "{636, 0}";
}
);
layerId = "F333AEC5-BB61-4D5E-9EDD-6124322D28F2";
paths = (
{
closed = 1;
nodes = (
"675 0 LINE",
"675 694 LINE",
"597 694 LINE",
"597 87 LINE",
"615 87 LINE",
"204 694 LINE",
"109 694 LINE",
"109 0 LINE",
"187 0 LINE",
"187 605 LINE",
"170 605 LINE",
"595 -22 LINE"
);
}
);
width = 784;
},
{
layerId = "51C2DFEF-3776-4D13-9284-96485B799B57";
width = 600;
},
{
layerId = "0B2E441B-685E-400D-9B9B-E078DEED62EF";
width = 600;
}
);
},
{
export = 0;
glyphname = _breve;
lastChange = "2017-09-10 19:27:17 +0000";
layers = (
{
layerId = "F333AEC5-BB61-4D5E-9EDD-6124322D28F2";
paths = (
{
closed = 1;
nodes = (
"266 547 OFFCURVE",
"318 588 OFFCURVE",
"343 666 CURVE",
"304 692 LINE",
"286 638 OFFCURVE",
"252 610 OFFCURVE",
"204 610 CURVE SMOOTH",
"163 610 OFFCURVE",
"124 643 OFFCURVE",
"106 692 CURVE",
"42 654 LINE",
"66 590 OFFCURVE",
"126 547 OFFCURVE",
"192 547 CURVE SMOOTH"
);
}
);
width = 405;
},
{
layerId = "51C2DFEF-3776-4D13-9284-96485B799B57";
width = 600;
},
{
layerId = "0B2E441B-685E-400D-9B9B-E078DEED62EF";
width = 600;
}
);
},
{
export = 0;
glyphname = _k;
lastChange = "2017-09-16 13:33:45 +0000";
layers = (
{
anchors = (
{
name = "#entry";
position = "{50, 401}";
}
);
layerId = "F333AEC5-BB61-4D5E-9EDD-6124322D28F2";
paths = (
{
closed = 1;
nodes = (
"398 0 LINE",
"125 298 LINE",
"122 242 LINE",
"381 482 LINE",
"279 482 LINE",
"50 267 LINE",
"290 0 LINE"
);
}
);
width = 406;
},
{
anchors = (
{
name = "#entry";
position = "{156, 401}";
}
);
layerId = "51C2DFEF-3776-4D13-9284-96485B799B57";
paths = (
{
closed = 1;
nodes = (
"566 0 LINE",
"329 303 LINE",
"329 247 LINE",
"546 490 LINE",
"349 490 LINE",
"156 272 LINE",
"359 0 LINE"
);
}
);
width = 585;
},
{
anchors = (
{
name = "#entry";
position = "{65, 401}";
}
);
layerId = "0B2E441B-685E-400D-9B9B-E078DEED62EF";
paths = (
{
closed = 1;
nodes = (
"356 0 LINE",
"65 273 LINE",
"65 252 LINE",
"341 480 LINE",
"314 480 LINE",
"50 262 LINE",
"327 0 LINE"
);
}
);
width = 379;
}
);
},
{
export = 0;
glyphname = _stem.kgreenlandic;
lastChange = "2017-09-10 19:27:17 +0000";
layers = (
{
anchors = (
{
name = "#exit";
position = "{156, 401}";
}
);
layerId = "F333AEC5-BB61-4D5E-9EDD-6124322D28F2";
paths = (
{
closed = 1;
nodes = (
"168 0 LINE",
"168 482 LINE",
"88 482 LINE",
"88 0 LINE"
);
}
);
width = 573;
},
{
layerId = "51C2DFEF-3776-4D13-9284-96485B799B57";
width = 600;
},
{
layerId = "0B2E441B-685E-400D-9B9B-E078DEED62EF";
width = 600;
}
);
},
{
export = 0;
glyphname = _fraction;
lastChange = "2017-09-10 19:27:17 +0000";
layers = (
{
layerId = "F333AEC5-BB61-4D5E-9EDD-6124322D28F2";
paths = (
{
closed = 1;
nodes = (
"9 0 LINE",
"394 694 LINE",
"310 694 LINE",
"-70 0 LINE"
);
}
);
width = 324;
},
{
layerId = "51C2DFEF-3776-4D13-9284-96485B799B57";
width = 600;
},
{
layerId = "0B2E441B-685E-400D-9B9B-E078DEED62EF";
width = 600;
}
);
},
{
export = 0;
glyphname = _zero.percent;
lastChange = "2017-09-10 19:27:17 +0000";
layers = (
{
layerId = "F333AEC5-BB61-4D5E-9EDD-6124322D28F2";
paths = (
{
closed = 1;
nodes = (
"262 -10 OFFCURVE",
"325 70 OFFCURVE",
"325 189 CURVE SMOOTH",
"325 302 OFFCURVE",
"266 378 OFFCURVE",
"178 378 CURVE SMOOTH",
"83 378 OFFCURVE",
"20 299 OFFCURVE",
"20 180 CURVE SMOOTH",
"20 66 OFFCURVE",
"79 -10 OFFCURVE",
"167 -10 CURVE SMOOTH"
);
},
{
closed = 1;
nodes = (
"129 56 OFFCURVE",
"97 110 OFFCURVE",
"97 190 CURVE SMOOTH",
"97 263 OFFCURVE",
"125 312 OFFCURVE",
"168 312 CURVE SMOOTH",
"216 312 OFFCURVE",
"248 259 OFFCURVE",
"248 179 CURVE SMOOTH",
"248 105 OFFCURVE",
"220 56 OFFCURVE",
"178 56 CURVE SMOOTH"
);
}
);
width = 345;
},
{
layerId = "51C2DFEF-3776-4D13-9284-96485B799B57";
width = 600;
},
{
layerId = "0B2E441B-685E-400D-9B9B-E078DEED62EF";
width = 600;
}
);
},
{
export = 0;
glyphname = _stem.sterling;
lastChange = "2017-09-10 19:27:17 +0000";
layers = (
{
layerId = "F333AEC5-BB61-4D5E-9EDD-6124322D28F2";
paths = (
{
closed = 1;
nodes = (
"558 0 LINE",
"558 72 LINE",
"171 72 LINE",
"215 90 OFFCURVE",
"231 145 OFFCURVE",
"231 208 CURVE SMOOTH",
"231 491 LINE SMOOTH",
"231 577 OFFCURVE",
"282 631 OFFCURVE",
"390 631 CURVE SMOOTH",
"428 631 OFFCURVE",
"466 624 OFFCURVE",
"507 612 CURVE",
"531 681 LINE",
"489 697 OFFCURVE",
"449 704 OFFCURVE",
"402 704 CURVE SMOOTH",
"234 704 OFFCURVE",
"154 615 OFFCURVE",
"154 481 CURVE SMOOTH",
"154 198 LINE SMOOTH",
"154 141 OFFCURVE",
"129 90 OFFCURVE",
"76 72 CURVE",
"76 0 LINE"
);
}
);
width = 579;
},
{
layerId = "51C2DFEF-3776-4D13-9284-96485B799B57";
width = 600;
},
{
layerId = "0B2E441B-685E-400D-9B9B-E078DEED62EF";
width = 600;
}
);
},
{
export = 0;
glyphname = _stroke.sterling;
lastChange = "2017-09-10 19:27:17 +0000";
layers = (
{
layerId = "F333AEC5-BB61-4D5E-9EDD-6124322D28F2";
paths = (
{
closed = 1;
nodes = (
"431 318 LINE",
"431 378 LINE",
"99 378 LINE",
"99 318 LINE"
);
}
);
width = 579;
},
{
layerId = "51C2DFEF-3776-4D13-9284-96485B799B57";
width = 600;
},
{
layerId = "0B2E441B-685E-400D-9B9B-E078DEED62EF";
width = 600;
}
);
},
{
export = 0;
glyphname = _control;
lastChange = "2017-09-10 19:27:17 +0000";
layers = (
{
layerId = "F333AEC5-BB61-4D5E-9EDD-6124322D28F2";
paths = (
{
closed = 1;
nodes = (
"517 430 LINE",
"330 694 LINE",
"250 694 LINE",
"63 430 LINE",
"121 389 LINE",
"288 619 LINE",
"456 388 LINE"
);
}
);
width = 580;
},
{
layerId = "51C2DFEF-3776-4D13-9284-96485B799B57";
width = 600;
},
{
layerId = "0B2E441B-685E-400D-9B9B-E078DEED62EF";
width = 600;
}
);
},
{
export = 0;
glyphname = _stem.coloncedi;
lastChange = "2017-09-10 19:44:44 +0000";
layers = (
{
associatedMasterId = "F333AEC5-BB61-4D5E-9EDD-6124322D28F2";
layerId = "30AAC32E-4220-47BF-9C48-E460ABED85E7";
name = "Aug 16 17, 22:14";
paths = (
{
closed = 1;
nodes = (
"449 -10 OFFCURVE",
"505 9 OFFCURVE",
"550 34 CURVE",
"535 95 LINE",
"499 78 OFFCURVE",
"451 63 OFFCURVE",
"409 63 CURVE SMOOTH",
"293 63 OFFCURVE",
"221 180 OFFCURVE",
"221 356 CURVE SMOOTH",
"221 519 OFFCURVE",
"283 630 OFFCURVE",
"390 630 CURVE SMOOTH",
"426 630 OFFCURVE",
"483 617 OFFCURVE",
"524 597 CURVE",
"546 675 LINE",
"499 695 OFFCURVE",
"444 703 OFFCURVE",
"406 703 CURVE SMOOTH",
"244 703 OFFCURVE",
"141 558 OFFCURVE",
"141 341 CURVE SMOOTH",
"141 129 OFFCURVE",
"240 -10 OFFCURVE",
"393 -10 CURVE SMOOTH"
);
}
);
width = 636;
},
{
components = (
{
name = C;
}
);
layerId = "F333AEC5-BB61-4D5E-9EDD-6124322D28F2";
width = 651;
},
{
layerId = "51C2DFEF-3776-4D13-9284-96485B799B57";
width = 600;
},
{
layerId = "0B2E441B-685E-400D-9B9B-E078DEED62EF";
width = 600;
}
);
},
{
export = 0;
glyphname = _slash.zero.osf;
lastChange = "2017-09-10 19:27:17 +0000";
layers = (
{
anchors = (
{
name = _slash;
position = "{223, 241}";
}
);
layerId = "F333AEC5-BB61-4D5E-9EDD-6124322D28F2";
paths = (
{
closed = 1;
nodes = (
"348 373 LINE",
"301 402 LINE",
"78 69 LINE",
"121 40 LINE"
);
}
);
width = 456;
},
{
layerId = "51C2DFEF-3776-4D13-9284-96485B799B57";
width = 600;
},
{
layerId = "0B2E441B-685E-400D-9B9B-E078DEED62EF";
width = 600;
}
);
},
{
export = 0;
glyphname = _circumflex.case;
lastChange = "2017-09-10 19:27:17 +0000";
layers = (
{
layerId = "F333AEC5-BB61-4D5E-9EDD-6124322D28F2";
paths = (
{
closed = 1;
nodes = (
"308 653 LINE",
"284 653 LINE",
"393 553 LINE",
"436 601 LINE",
"325 715 LINE",
"282 715 LINE",
"165 593 LINE",
"198 553 LINE"
);
}
);
width = 600;
},
{
layerId = "51C2DFEF-3776-4D13-9284-96485B799B57";
width = 600;
},
{
layerId = "0B2E441B-685E-400D-9B9B-E078DEED62EF";
width = 600;
}
);
},
{
export = 0;
glyphname = _breve.case;
lastChange = "2017-09-10 19:27:17 +0000";
layers = (
{
layerId = "F333AEC5-BB61-4D5E-9EDD-6124322D28F2";
paths = (
{
closed = 1;
nodes = (
"281 744 OFFCURVE",
"332 782 OFFCURVE",
"356 851.4 CURVE",
"317 874.8 LINE",
"297 831 OFFCURVE",
"262 807 OFFCURVE",
"218 807 CURVE SMOOTH",
"173 807 OFFCURVE",
"138 831 OFFCURVE",
"119 874.8 CURVE",
"55 840.6 LINE",
"80 781 OFFCURVE",
"140 744 OFFCURVE",
"210 744 CURVE SMOOTH"
);
}
);
width = 414;
},
{
layerId = "51C2DFEF-3776-4D13-9284-96485B799B57";
width = 600;
},
{
layerId = "0B2E441B-685E-400D-9B9B-E078DEED62EF";
width = 600;
}
);
},
{
export = 0;
glyphname = _acute.case;
lastChange = "2017-09-10 19:27:17 +0000";
layers = (
{
layerId = "F333AEC5-BB61-4D5E-9EDD-6124322D28F2";
paths = (
{
closed = 1;
nodes = (
"431 639 LINE",
"381 703 LINE",
"234 573 LINE",
"268 529 LINE"
);
}
);
width = 600;
},
{
layerId = "51C2DFEF-3776-4D13-9284-96485B799B57";
width = 600;
},
{
layerId = "0B2E441B-685E-400D-9B9B-E078DEED62EF";
width = 600;
}
);
},
{
export = 0;
glyphname = _currencyvstem;
lastChange = "2017-09-10 19:27:17 +0000";
layers = (
{
layerId = "F333AEC5-BB61-4D5E-9EDD-6124322D28F2";
paths = (
{
closed = 1;
nodes = (
"452 694 LINE",
"452 800 LINE",
"382 800 LINE",
"382 694 LINE"
);
}
);
width = 698;
},
{
layerId = "51C2DFEF-3776-4D13-9284-96485B799B57";
width = 600;
},
{
layerId = "0B2E441B-685E-400D-9B9B-E078DEED62EF";
width = 600;
}
);
},
{
export = 0;
glyphname = _bowl.P;
lastChange = "2017-09-10 19:27:17 +0000";
layers = (
{
layerId = "F333AEC5-BB61-4D5E-9EDD-6124322D28F2";
paths = (
{
closed = 1;
nodes = (
"176 622 LINE",
"315 622 LINE SMOOTH",
"420 622 OFFCURVE",
"484 558 OFFCURVE",
"484 458 CURVE SMOOTH",
"484 365 OFFCURVE",
"429 314 OFFCURVE",
"325 314 CURVE SMOOTH",
"148 314 LINE",
"148 242 LINE",
"315 242 LINE SMOOTH",
"474 242 OFFCURVE",
"569 337 OFFCURVE",
"569 468 CURVE SMOOTH",
"569 602 OFFCURVE",
"470 694 OFFCURVE",
"325 694 CURVE SMOOTH",
"176 694 LINE"
);
}
);
width = 619;
},
{
layerId = "51C2DFEF-3776-4D13-9284-96485B799B57";
width = 600;
},
{
layerId = "0B2E441B-685E-400D-9B9B-E078DEED62EF";
width = 600;
}
);
},
{
export = 0;
glyphname = _stem.P;
lastChange = "2017-09-10 19:27:17 +0000";
layers = (
{
layerId = "F333AEC5-BB61-4D5E-9EDD-6124322D28F2";
paths = (
{
closed = 1;
nodes = (
"109 694 LINE",
"109 0 LINE",
"192 0 LINE",
"192 694 LINE"
);
}
);
width = 619;
},
{
layerId = "51C2DFEF-3776-4D13-9284-96485B799B57";
width = 600;
},
{
layerId = "0B2E441B-685E-400D-9B9B-E078DEED62EF";
width = 600;
}
);
},
